%TF.GenerationSoftware,KiCad,Pcbnew,10.0.0*%
%TF.CreationDate,2026-04-08T02:10:28-07:00*%
%TF.ProjectId,FPL,46504c2e-6b69-4636-9164-5f7063625858,rev?*%
%TF.SameCoordinates,Original*%
%TF.FileFunction,Copper,L2,Inr*%
%TF.FilePolarity,Positive*%
%FSLAX46Y46*%
G04 Gerber Fmt 4.6, Leading zero omitted, Abs format (unit mm)*
G04 Created by KiCad (PCBNEW 10.0.0) date 2026-04-08 02:10:28*
%MOMM*%
%LPD*%
G01*
G04 APERTURE LIST*
%TA.AperFunction,ComponentPad*%
%ADD10R,2.800000X1.800000*%
%TD*%
%TA.AperFunction,ComponentPad*%
%ADD11O,2.800000X1.800000*%
%TD*%
%TA.AperFunction,ComponentPad*%
%ADD12C,1.250000*%
%TD*%
%TA.AperFunction,ComponentPad*%
%ADD13O,3.016000X1.508000*%
%TD*%
%TA.AperFunction,ComponentPad*%
%ADD14C,1.600000*%
%TD*%
%TA.AperFunction,ComponentPad*%
%ADD15R,1.700000X1.700000*%
%TD*%
%TA.AperFunction,ComponentPad*%
%ADD16C,1.700000*%
%TD*%
%TA.AperFunction,ComponentPad*%
%ADD17O,1.050000X1.700000*%
%TD*%
%TA.AperFunction,ComponentPad*%
%ADD18O,2.800000X1.100000*%
%TD*%
%TA.AperFunction,ComponentPad*%
%ADD19R,1.800000X2.800000*%
%TD*%
%TA.AperFunction,ComponentPad*%
%ADD20O,1.800000X2.800000*%
%TD*%
%TA.AperFunction,ViaPad*%
%ADD21C,0.600000*%
%TD*%
%TA.AperFunction,ViaPad*%
%ADD22C,0.400000*%
%TD*%
%TA.AperFunction,Conductor*%
%ADD23C,0.130000*%
%TD*%
%TA.AperFunction,Profile*%
%ADD24C,0.050000*%
%TD*%
G04 APERTURE END LIST*
D10*
%TO.N,Net-(U1A-PT6B)*%
%TO.C,J7*%
X129140000Y-105580000D03*
D11*
%TO.N,Net-(U1A-PT6A)*%
X129140000Y-108120000D03*
%TD*%
D12*
%TO.N,TXP*%
%TO.C,J4*%
X202780000Y-104305000D03*
%TO.N,TXN*%
X201680000Y-105325000D03*
%TO.N,RXP*%
X202780000Y-106345000D03*
%TO.N,unconnected-(J4-Pad4)*%
X201680000Y-107365000D03*
%TO.N,unconnected-(J4-Pad5)*%
X202780000Y-108385000D03*
%TO.N,RXN*%
X201680000Y-109405000D03*
%TO.N,unconnected-(J4-Pad7)*%
X202780000Y-110425000D03*
%TO.N,unconnected-(J4-Pad8)*%
X201680000Y-111445000D03*
%TO.N,GND*%
X201680000Y-101035000D03*
%TO.N,LED2*%
X201680000Y-103325000D03*
%TO.N,LED1*%
X202780000Y-112335000D03*
%TO.N,GND*%
X202780000Y-114835000D03*
D13*
X211750000Y-118000000D03*
X211750000Y-97750000D03*
%TD*%
D14*
%TO.N,1V8*%
%TO.C,R2*%
X124360000Y-118650000D03*
%TO.N,PL35D*%
X124360000Y-108490000D03*
%TD*%
%TO.N,Net-(U5-VDD)*%
%TO.C,R92*%
X153610000Y-122170000D03*
%TO.N,Net-(U5-~{RST})*%
X143450000Y-122170000D03*
%TD*%
%TO.N,3V3*%
%TO.C,R91*%
X189640000Y-76460000D03*
%TO.N,Net-(Q1-G)*%
X199800000Y-76460000D03*
%TD*%
D15*
%TO.N,Net-(U1C-PR32B)*%
%TO.C,J6*%
X145670000Y-89450000D03*
D16*
%TO.N,Net-(U1C-PR32C)*%
X148210000Y-89450000D03*
%TO.N,Net-(U1C-PR32D)*%
X150749999Y-89450000D03*
%TD*%
D14*
%TO.N,3V3*%
%TO.C,R14*%
X167250000Y-78030000D03*
%TO.N,Net-(U1H-TDI)*%
X157090000Y-78030000D03*
%TD*%
%TO.N,Net-(U1G-DONE)*%
%TO.C,R10*%
X179930000Y-86130000D03*
%TO.N,Net-(D1-Pad2)*%
X179930000Y-96290000D03*
%TD*%
D10*
%TO.N,2V5*%
%TO.C,J21*%
X170210000Y-116810000D03*
D11*
X170210000Y-119350000D03*
X170210000Y-121890000D03*
X170210000Y-124430000D03*
X170210000Y-126970000D03*
%TD*%
D17*
%TO.N,Net-(J2-SHIELD-PadSH1)*%
%TO.C,J2*%
X211825000Y-135805000D03*
X211825000Y-127055000D03*
D18*
X215540000Y-136380001D03*
X215540000Y-126479999D03*
%TD*%
D15*
%TO.N,Net-(U1H-TMS)*%
%TO.C,J3*%
X158390000Y-82730000D03*
D16*
%TO.N,Net-(U1H-TDI)*%
X155850000Y-82730000D03*
%TO.N,Net-(U1H-TDO)*%
X153310001Y-82730000D03*
%TO.N,Net-(U1H-TCK)*%
X150770000Y-82730000D03*
%TO.N,1V2*%
X148230000Y-82730000D03*
%TO.N,GND*%
X145690000Y-82730000D03*
%TD*%
D14*
%TO.N,unconnected-(S1-Pad1)*%
%TO.C,S1*%
X164430000Y-108250000D03*
%TO.N,GND*%
X157930000Y-108250000D03*
%TO.N,PROGRAM*%
X164430000Y-103750000D03*
%TO.N,unconnected-(S1-Pad4)*%
X157930000Y-103750000D03*
%TD*%
D10*
%TO.N,Net-(U1A-PT13B)*%
%TO.C,J10*%
X130810000Y-96930000D03*
D11*
%TO.N,Net-(U1A-PT13A)*%
X130810000Y-94390000D03*
%TD*%
D10*
%TO.N,GND*%
%TO.C,J22*%
X157750000Y-123460000D03*
D11*
X157750000Y-126000000D03*
X157750000Y-128540000D03*
X157750000Y-131080000D03*
X157750000Y-133620000D03*
%TD*%
D10*
%TO.N,1V8*%
%TO.C,J19*%
X180370000Y-117250000D03*
D11*
X180370000Y-119790000D03*
X180370000Y-122330000D03*
X180370000Y-124870000D03*
X180370000Y-127410000D03*
%TD*%
D14*
%TO.N,Net-(Q1-G)*%
%TO.C,R90*%
X199800000Y-79500000D03*
%TO.N,PT44B*%
X189640000Y-79500000D03*
%TD*%
D10*
%TO.N,3V3*%
%TO.C,J20*%
X162250000Y-123460000D03*
D11*
X162250000Y-126000000D03*
X162250000Y-128540000D03*
X162250000Y-131080000D03*
X162250000Y-133620000D03*
%TD*%
D14*
%TO.N,GND*%
%TO.C,R93*%
X133200000Y-132750000D03*
%TO.N,Net-(U5-SUSPEND)*%
X143360000Y-132750000D03*
%TD*%
D19*
%TO.N,Net-(U1C-PR20D)*%
%TO.C,J5*%
X159910000Y-47910000D03*
D20*
%TO.N,Net-(U1C-PR20C)*%
X157370000Y-47910000D03*
%TO.N,Net-(U1C-PR20B)*%
X154830001Y-47910000D03*
%TO.N,Net-(U1C-PR20A)*%
X152290000Y-47910000D03*
%TO.N,Net-(U1C-PR17D)*%
X149750000Y-47910000D03*
%TO.N,Net-(U1C-PR17C)*%
X147210000Y-47910000D03*
%TO.N,Net-(U1C-PR17B)*%
X144670000Y-47910000D03*
%TO.N,Net-(U1C-PR17A)*%
X142129999Y-47910000D03*
%TO.N,Net-(U1C-PR14D)*%
X139590000Y-47910000D03*
%TO.N,Net-(U1C-PR14C)*%
X137050000Y-47910000D03*
%TO.N,Net-(U1C-PR14B)*%
X134510000Y-47910000D03*
%TO.N,Net-(U1C-PR14A)*%
X131970001Y-47910000D03*
%TO.N,Net-(U1C-PR11D)*%
X129430000Y-47910000D03*
%TO.N,Net-(U1C-PR11C)*%
X126890000Y-47910000D03*
%TO.N,Net-(U1C-PR11B)*%
X124350000Y-47910000D03*
%TO.N,Net-(U1C-PR11A)*%
X121810001Y-47910000D03*
%TD*%
D19*
%TO.N,Net-(U1A-PT11B)*%
%TO.C,J9*%
X137520000Y-122660000D03*
D20*
%TO.N,Net-(U1A-PT11A)*%
X140060000Y-122660000D03*
%TD*%
D14*
%TO.N,Net-(U1G-~{INIT})*%
%TO.C,R11*%
X155800000Y-52880001D03*
%TO.N,Net-(D2-Pad2)*%
X155800000Y-63040001D03*
%TD*%
%TO.N,1V8*%
%TO.C,R1*%
X174630000Y-122640000D03*
%TO.N,PL35C*%
X174630000Y-112480000D03*
%TD*%
%TO.N,Net-(U2-NRST)*%
%TO.C,R15*%
X183815795Y-109184205D03*
%TO.N,3V3*%
X191000000Y-102000000D03*
%TD*%
%TO.N,3V3*%
%TO.C,R13*%
X169850000Y-72910000D03*
%TO.N,Net-(U1H-TMS)*%
X159690000Y-72910000D03*
%TD*%
%TO.N,Net-(D2-Pad1)*%
%TO.C,R12*%
X157640000Y-68380000D03*
%TO.N,GND*%
X167800000Y-68380000D03*
%TD*%
D19*
%TO.N,Net-(U1A-PT9B)*%
%TO.C,J8*%
X128730000Y-122400000D03*
D20*
%TO.N,Net-(U1A-PT9A)*%
X131270000Y-122400000D03*
%TD*%
D14*
%TO.N,Net-(U2-RBIAS)*%
%TO.C,R16*%
X197420000Y-94500000D03*
%TO.N,GND*%
X207580000Y-94500000D03*
%TD*%
%TO.N,GND*%
%TO.C,R9*%
X169770000Y-104160000D03*
%TO.N,Net-(D1-Pad1)*%
X179930000Y-104160000D03*
%TD*%
%TO.N,3V3*%
%TO.C,R8*%
X174180000Y-76600000D03*
%TO.N,Net-(U7-{slash}HOLD_{slash}RESET)*%
X174180000Y-86760000D03*
%TD*%
%TO.N,CCLK*%
%TO.C,R4*%
X161020000Y-86820000D03*
%TO.N,3V3*%
X171180000Y-86820000D03*
%TD*%
%TO.N,3V3*%
%TO.C,R3*%
X172200000Y-90270000D03*
%TO.N,PROGRAM*%
X172200000Y-100430000D03*
%TD*%
D10*
%TO.N,1V2*%
%TO.C,J18*%
X191000000Y-116960000D03*
D11*
X191000000Y-119500000D03*
X191000000Y-122040000D03*
X191000000Y-124580000D03*
X191000000Y-127120000D03*
%TD*%
D14*
%TO.N,Net-(U7-{slash}WP(IO2))*%
%TO.C,R5*%
X145460000Y-74050000D03*
%TO.N,3V3*%
X155620000Y-74050000D03*
%TD*%
D21*
%TO.N,RXP*%
X197750000Y-105250000D03*
%TO.N,RXN*%
X196750000Y-105000000D03*
D22*
%TO.N,GND*%
X142680000Y-108130000D03*
X147564841Y-107358981D03*
D21*
X153141497Y-113858373D03*
D22*
X127470000Y-92580000D03*
X201280000Y-118030000D03*
X151530000Y-104940000D03*
X145100000Y-103300000D03*
X197100000Y-112740000D03*
X207960000Y-135030000D03*
D21*
X149600000Y-116800000D03*
X151720000Y-111700000D03*
D22*
X215400000Y-128900000D03*
X151490000Y-58330000D03*
X198660000Y-112880000D03*
X144295636Y-104220303D03*
X150000000Y-108300000D03*
%TO.N,1V8*%
X123810000Y-131210000D03*
X143475000Y-104141019D03*
X147150000Y-135990000D03*
X143330000Y-135990000D03*
X179340000Y-136260000D03*
X141590000Y-109900000D03*
D21*
X182100000Y-133230000D03*
X149100000Y-115270000D03*
D22*
X144490000Y-115000000D03*
X179310000Y-134680000D03*
%TO.N,PL35D*%
X132040000Y-114000000D03*
X146300000Y-109658751D03*
X139520000Y-110150000D03*
X143540000Y-109470000D03*
X146700000Y-107400000D03*
%TO.N,Net-(U5-VDD)*%
X151000000Y-129100000D03*
%TO.N,Net-(U5-~{RST})*%
X148500000Y-127500000D03*
%TO.N,3V3*%
X141900000Y-103325000D03*
X198800000Y-107506600D03*
X169200000Y-100000000D03*
X168852000Y-90222600D03*
X146690000Y-99330000D03*
X170260000Y-92340000D03*
D21*
X204000000Y-131900000D03*
D22*
X141875000Y-100974999D03*
X136700000Y-116400000D03*
X196300000Y-111200000D03*
X194750000Y-106000000D03*
X151270000Y-98690000D03*
%TO.N,Net-(U1C-PR32B)*%
X143500000Y-97700000D03*
%TO.N,Net-(U1C-PR32C)*%
X144700000Y-96000000D03*
%TO.N,Net-(U1C-PR32D)*%
X144300000Y-97700000D03*
%TO.N,VCCAUX*%
X136940000Y-105680000D03*
X141935432Y-100275000D03*
%TO.N,Net-(U1H-TDI)*%
X148300000Y-100100000D03*
%TO.N,PT49A*%
X207665000Y-86365000D03*
X140300000Y-101700000D03*
X210750000Y-83280000D03*
%TO.N,PT49B*%
X207700000Y-85350000D03*
X140479929Y-102469266D03*
%TO.N,PT42A*%
X140371338Y-103167571D03*
X207800000Y-84250000D03*
%TO.N,PT42B*%
X207700000Y-82050000D03*
X139544358Y-103210334D03*
%TO.N,PT47A*%
X136900000Y-102525000D03*
X207700000Y-79850000D03*
%TO.N,PT47B*%
X207800000Y-78750000D03*
X138725000Y-102525000D03*
%TO.N,PT44A*%
X218600000Y-83200000D03*
X138750000Y-103300000D03*
X214620000Y-73940000D03*
%TO.N,Net-(U1G-DONE)*%
X155600000Y-102100000D03*
X150390000Y-102150000D03*
X147500000Y-102500000D03*
D21*
%TO.N,2V5*%
X172000000Y-132750000D03*
D22*
%TO.N,Net-(J2-CC1)*%
X209800000Y-134200000D03*
%TO.N,Net-(J2-CC2)*%
X215300000Y-131600000D03*
%TO.N,Net-(U1H-TMS)*%
X150100000Y-100550000D03*
%TO.N,Net-(U1H-TDO)*%
X145900000Y-101000000D03*
%TO.N,Net-(U1H-TCK)*%
X150000000Y-101355000D03*
D21*
%TO.N,1V2*%
X193400000Y-131800000D03*
D22*
X153500000Y-95860000D03*
X153455000Y-103065000D03*
X165870000Y-110340000D03*
X153460000Y-99620000D03*
X154430000Y-93100000D03*
%TO.N,PROGRAM*%
X165080000Y-105790000D03*
%TO.N,Net-(U1A-PT13B)*%
X133640000Y-102710000D03*
%TO.N,Net-(U1A-PT13A)*%
X134560000Y-102660000D03*
%TO.N,PT44B*%
X128140000Y-46410000D03*
X127220000Y-43010000D03*
X125150000Y-98740000D03*
X126070000Y-83360000D03*
X168550000Y-45250000D03*
X138000000Y-103154999D03*
X120900000Y-39910000D03*
%TO.N,Net-(U2-XTAL2)*%
X199400000Y-111220000D03*
X198800000Y-109006600D03*
X198928500Y-121500000D03*
%TO.N,CCLK*%
X161400000Y-89700000D03*
X146736721Y-102422951D03*
%TO.N,MISO*%
X161200000Y-92000000D03*
X156230000Y-103640000D03*
%TO.N,MOSI*%
X165930000Y-101800000D03*
X150100000Y-102950000D03*
%TO.N,Net-(U1C-PR20D)*%
X129710000Y-44820000D03*
X125470000Y-77360000D03*
%TO.N,Net-(U1C-PR20C)*%
X141900000Y-97700000D03*
%TO.N,Net-(U1C-PR20B)*%
X142639368Y-99180316D03*
%TO.N,Net-(U1C-PR20A)*%
X143500000Y-99300000D03*
X135860000Y-99790000D03*
X127300000Y-98560000D03*
X126880000Y-84110000D03*
X128830000Y-77010000D03*
X130300000Y-100250000D03*
%TO.N,Net-(U1C-PR17D)*%
X141110000Y-97750000D03*
X141110000Y-95870000D03*
%TO.N,Net-(U1C-PR17C)*%
X141800000Y-99300000D03*
%TO.N,Net-(U1C-PR17B)*%
X140349527Y-97601303D03*
X140350000Y-95010000D03*
%TO.N,Net-(U1C-PR17A)*%
X139900000Y-96000000D03*
%TO.N,Net-(U1C-PR14D)*%
X123460000Y-84070000D03*
X141809150Y-98380187D03*
%TO.N,Net-(U1C-PR14C)*%
X140413810Y-98185000D03*
%TO.N,Net-(U1C-PR14B)*%
X138700000Y-97000000D03*
%TO.N,Net-(U1C-PR14A)*%
X139100000Y-95900000D03*
%TO.N,Net-(U1C-PR11B)*%
X137964841Y-96941019D03*
%TO.N,Net-(U1C-PR11A)*%
X137874999Y-96125000D03*
%TO.N,Net-(U2-XTAL1{slash}CLKIN)*%
X196520500Y-121600000D03*
%TO.N,Net-(U1A-PT11B)*%
X137900000Y-106500000D03*
%TO.N,Net-(U1A-PT11A)*%
X138715166Y-106484834D03*
%TO.N,Net-(U1G-~{INIT})*%
X145920000Y-97770000D03*
%TO.N,VCC*%
X145200000Y-101600000D03*
X142639368Y-102380316D03*
X142700000Y-103400000D03*
D21*
%TO.N,Net-(U2-RBIAS)*%
X198500000Y-103000000D03*
D22*
%TO.N,Net-(U1A-PT4A)*%
X136807091Y-107755843D03*
X132900000Y-113300000D03*
%TO.N,PT71A*%
X192740000Y-109670000D03*
X137990000Y-132880000D03*
X121050000Y-101470000D03*
%TO.N,PT35A*%
X137919092Y-100966240D03*
X190460000Y-107760000D03*
X135570000Y-102700000D03*
%TO.N,PT58A*%
X211120000Y-121400000D03*
X138044487Y-100197148D03*
X197750000Y-113330000D03*
X202100000Y-116220000D03*
%TO.N,PT35B*%
X122320000Y-132610000D03*
X193993400Y-107200000D03*
%TO.N,PT58B*%
X212410000Y-121620000D03*
X197400000Y-111400000D03*
X138781440Y-100154657D03*
X208470000Y-117040000D03*
%TO.N,PT56A*%
X193500000Y-108506600D03*
X139500531Y-100925000D03*
%TO.N,PT69A*%
X139525000Y-100175000D03*
X193993400Y-110400000D03*
%TO.N,PT56B*%
X195290000Y-111630000D03*
X210090000Y-121500000D03*
X140275000Y-100925000D03*
X201950000Y-116720000D03*
%TO.N,PT69B*%
X140275000Y-100125000D03*
X194750000Y-111300000D03*
D21*
%TO.N,PL38A*%
X151200000Y-114700000D03*
D22*
X150250000Y-111740000D03*
%TO.N,PL38B*%
X144300000Y-104900000D03*
X145630000Y-114180000D03*
%TO.N,PL41C*%
X146400000Y-112550000D03*
X145100000Y-107300000D03*
X145590000Y-113320000D03*
D21*
X151200000Y-116700000D03*
D22*
%TO.N,Net-(U1G-VCCIO8)*%
X145900000Y-104100000D03*
%TO.N,PL41D*%
X145925000Y-107325000D03*
D21*
X149000000Y-114270000D03*
D22*
%TO.N,PL44C*%
X156120000Y-109470000D03*
D21*
X154195000Y-113795000D03*
%TO.N,PL41A*%
X152172840Y-114722459D03*
D22*
X149123910Y-109423578D03*
%TO.N,CFG_0*%
X157400000Y-98090000D03*
D21*
%TO.N,PL44A*%
X148900000Y-113220000D03*
D22*
X148200000Y-108845000D03*
%TO.N,PL41B*%
X145610000Y-114800000D03*
X147525000Y-108125000D03*
X143660000Y-110080000D03*
X146660000Y-110020000D03*
D21*
%TO.N,PL62A*%
X153400000Y-111900000D03*
D22*
X147500000Y-106500000D03*
%TO.N,CFG_1*%
X157400000Y-99420000D03*
D21*
%TO.N,PL44B*%
X149000000Y-112100000D03*
D22*
X149103922Y-108893014D03*
%TO.N,PL62B*%
X148300000Y-106600000D03*
D21*
X153374895Y-112763127D03*
D22*
%TO.N,CFG_2*%
X157400000Y-100630000D03*
%TD*%
%TO.N,PT44A*%
D23*
X218600000Y-83200000D02*
X218850000Y-82950000D01*
X218850000Y-82950000D02*
X218850000Y-78170000D01*
X218850000Y-78170000D02*
X214620000Y-73940000D01*
%TO.N,PT49A*%
X207665000Y-86365000D02*
X210750000Y-83280000D01*
%TO.N,PT71A*%
X214540000Y-133780000D02*
X214540000Y-128455051D01*
X202321177Y-121770000D02*
X192740000Y-112188823D01*
X142367181Y-135482819D02*
X208542819Y-135482819D01*
X214540000Y-128455051D02*
X207854949Y-121770000D01*
X137990000Y-132880000D02*
X139170000Y-132880000D01*
X142070000Y-135780000D02*
X142367181Y-135482819D01*
X207854949Y-121770000D02*
X202321177Y-121770000D01*
X192740000Y-112188823D02*
X192740000Y-109670000D01*
X213980000Y-134360000D02*
X213980000Y-134340000D01*
X139170000Y-132880000D02*
X142070000Y-135780000D01*
X209180000Y-136120000D02*
X210940000Y-134360000D01*
X213980000Y-134340000D02*
X214540000Y-133780000D01*
X210940000Y-134360000D02*
X213980000Y-134360000D01*
X208542819Y-135482819D02*
X209180000Y-136120000D01*
%TO.N,PT35A*%
X178257181Y-134762819D02*
X179030000Y-133990000D01*
X206830000Y-133990000D02*
X206940000Y-134100000D01*
X122850000Y-104200000D02*
X122850000Y-135610000D01*
X134960000Y-102090000D02*
X123186473Y-102089999D01*
X121980000Y-103296472D02*
X121980000Y-103330000D01*
X122850000Y-135610000D02*
X122930000Y-135610000D01*
X139728775Y-132025000D02*
X142466593Y-134762819D01*
X137615000Y-132025000D02*
X139728775Y-132025000D01*
X210530000Y-130600000D02*
X210530000Y-125498824D01*
X207030000Y-134100000D02*
X210530000Y-130600000D01*
X122930000Y-135610000D02*
X123310588Y-135990588D01*
X179030000Y-133990000D02*
X206830000Y-133990000D01*
X121980000Y-103330000D02*
X122850000Y-104200000D01*
X190460000Y-110938824D02*
X190460000Y-107760000D01*
X133649412Y-135990588D02*
X137615000Y-132025000D01*
X142466593Y-134762819D02*
X178257181Y-134762819D01*
X202060588Y-122539412D02*
X190460000Y-110938824D01*
X207570588Y-122539412D02*
X202060588Y-122539412D01*
X123186473Y-102089999D02*
X121980000Y-103296472D01*
X210530000Y-125498824D02*
X207570588Y-122539412D01*
X123310588Y-135990588D02*
X133649412Y-135990588D01*
X206940000Y-134100000D02*
X207030000Y-134100000D01*
X135570000Y-102700000D02*
X134960000Y-102090000D01*
%TO.N,PT58A*%
X137390000Y-100130000D02*
X136680000Y-100840000D01*
X136680000Y-100840000D02*
X136680000Y-100998823D01*
X217520000Y-126584694D02*
X212930306Y-121995000D01*
X213094108Y-136950588D02*
X216664696Y-133380000D01*
X121998824Y-136950588D02*
X213094108Y-136950588D01*
X137947148Y-100197148D02*
X137880000Y-100130000D01*
X216664696Y-133380000D02*
X217520000Y-133380000D01*
X217520000Y-133380000D02*
X217520000Y-126584694D01*
X212930306Y-121995000D02*
X211715000Y-121995000D01*
X137880000Y-100130000D02*
X137390000Y-100130000D01*
X136680000Y-100998823D02*
X136308822Y-101370000D01*
X121260000Y-136211764D02*
X121998824Y-136950588D01*
X122888236Y-101370000D02*
X121260000Y-102998236D01*
X138044487Y-100197148D02*
X137947148Y-100197148D01*
X121260000Y-102998236D02*
X121260000Y-136211764D01*
X136308822Y-101370000D02*
X122888236Y-101370000D01*
X211715000Y-121995000D02*
X211120000Y-121400000D01*
%TO.N,PT35B*%
X133769669Y-136230588D02*
X123130588Y-136230588D01*
X185525000Y-134305000D02*
X179493615Y-134305000D01*
X193300000Y-106600000D02*
X192720000Y-107180000D01*
X191290000Y-111429412D02*
X202110588Y-122250000D01*
X178915000Y-134544669D02*
X178456850Y-135002819D01*
X202110588Y-122250000D02*
X207620588Y-122250000D01*
X179473615Y-134285000D02*
X179146385Y-134285000D01*
X179146385Y-134285000D02*
X178915000Y-134516385D01*
X185680000Y-134460000D02*
X185525000Y-134305000D01*
X178915000Y-134516385D02*
X178915000Y-134544669D01*
X193993400Y-107013400D02*
X193580000Y-106600000D01*
X137735258Y-132265000D02*
X133769669Y-136230588D01*
X178456850Y-135002819D02*
X142367182Y-135002819D01*
X139629363Y-132265000D02*
X137735258Y-132265000D01*
X210770000Y-125399412D02*
X210770000Y-130850588D01*
X207280588Y-134340000D02*
X185800000Y-134340000D01*
X142367182Y-135002819D02*
X139629363Y-132265000D01*
X123130588Y-136230588D02*
X122320000Y-135420000D01*
X193993400Y-107200000D02*
X193993400Y-107013400D01*
X191290000Y-107180000D02*
X191290000Y-111429412D01*
X179493615Y-134305000D02*
X179473615Y-134285000D01*
X207620588Y-122250000D02*
X210770000Y-125399412D01*
X210770000Y-130850588D02*
X207280588Y-134340000D01*
X193580000Y-106600000D02*
X193300000Y-106600000D01*
X122320000Y-135420000D02*
X122320000Y-132610000D01*
X185800000Y-134340000D02*
X185680000Y-134460000D01*
X192720000Y-107180000D02*
X191290000Y-107180000D01*
%TO.N,PT58B*%
X136209411Y-101130000D02*
X122788824Y-101130000D01*
X217760000Y-125809412D02*
X213570588Y-121620000D01*
X138781440Y-99851440D02*
X138730000Y-99800000D01*
X213570588Y-121620000D02*
X212410000Y-121620000D01*
X138020000Y-99780000D02*
X138020000Y-99430000D01*
X185420589Y-137190588D02*
X185425001Y-137195000D01*
X122788824Y-101130000D02*
X121020000Y-102898824D01*
X138020000Y-99430000D02*
X137708824Y-99430000D01*
X121899412Y-137190588D02*
X185420589Y-137190588D01*
X138730000Y-99800000D02*
X138040000Y-99800000D01*
X185425001Y-137195000D02*
X216665588Y-137195000D01*
X216665588Y-137195000D02*
X217760000Y-136100588D01*
X217760000Y-136100588D02*
X217760000Y-125809412D01*
X136440000Y-100899411D02*
X136209411Y-101130000D01*
X137708824Y-99430000D02*
X136440000Y-100698823D01*
X138781440Y-100154657D02*
X138781440Y-99851440D01*
X138040000Y-99800000D02*
X138020000Y-99780000D01*
X121020000Y-102898824D02*
X121020000Y-136311176D01*
X136440000Y-100698823D02*
X136440000Y-100899411D01*
X121020000Y-136311176D02*
X121899412Y-137190588D01*
%TO.N,PT56A*%
X134955000Y-102823615D02*
X134955000Y-102496385D01*
X134860588Y-102330000D02*
X135175000Y-102644412D01*
X190220000Y-108078615D02*
X190220000Y-111038236D01*
X190700000Y-110839412D02*
X190700000Y-108078615D01*
X192365000Y-109486385D02*
X192345000Y-109506385D01*
X156175000Y-133174720D02*
X156175000Y-134065280D01*
X136969412Y-101725000D02*
X138700531Y-101725000D01*
X210290000Y-125598236D02*
X210290000Y-130500588D01*
X138700531Y-101725000D02*
X139500531Y-100925000D01*
X207471176Y-122779412D02*
X210290000Y-125598236D01*
X133245000Y-102873615D02*
X133476385Y-103105000D01*
X135965000Y-102536385D02*
X135733615Y-102305000D01*
X159325000Y-133174720D02*
X158695280Y-132545000D01*
X193679411Y-106360000D02*
X193200588Y-106360000D01*
X134788615Y-102330000D02*
X134860588Y-102330000D01*
X122302648Y-103313236D02*
X123285885Y-102329999D01*
X190065000Y-107923615D02*
X190220000Y-108078615D01*
X160675000Y-133174720D02*
X160675000Y-134065280D01*
X135175000Y-102644412D02*
X135175000Y-102863615D01*
X193063400Y-108506600D02*
X192365000Y-109205000D01*
X159325000Y-134065280D02*
X159325000Y-133174720D01*
X158867461Y-134522819D02*
X159325000Y-134065280D01*
X134035000Y-102546385D02*
X133818615Y-102330000D01*
X135733615Y-102305000D02*
X135514412Y-102305000D01*
X191530000Y-111330000D02*
X191530000Y-107420000D01*
X193598400Y-107363615D02*
X193829785Y-107595000D01*
X163195280Y-132545000D02*
X161304720Y-132545000D01*
X190296385Y-107365000D02*
X190065000Y-107596385D01*
X193200588Y-106360000D02*
X192620588Y-106940000D01*
X135059411Y-101850000D02*
X136844411Y-101850000D01*
X137515588Y-131785000D02*
X133550000Y-135750588D01*
X156632539Y-134522819D02*
X142566005Y-134522819D01*
X163825000Y-133174720D02*
X163195280Y-132545000D01*
X135965000Y-102863615D02*
X135965000Y-102536385D01*
X210290000Y-130500588D02*
X206985000Y-133805588D01*
X163367461Y-134522819D02*
X163825000Y-134065280D01*
X193480588Y-106840000D02*
X193637687Y-106997099D01*
X133550000Y-135750588D02*
X123410000Y-135750588D01*
X193500000Y-108506600D02*
X193063400Y-108506600D01*
X134331385Y-102330000D02*
X134165000Y-102496385D01*
X194388400Y-107036385D02*
X194157015Y-106805000D01*
X206985000Y-133805588D02*
X206929411Y-133750000D01*
X178157769Y-134522819D02*
X163367461Y-134522819D01*
X192365000Y-112165000D02*
X191530000Y-111330000D01*
X191190589Y-106940000D02*
X191050000Y-107080589D01*
X194157015Y-107595000D02*
X194388400Y-107363615D01*
X156175000Y-134065280D02*
X156632539Y-134522819D01*
X135406385Y-103095000D02*
X135733615Y-103095000D01*
X190065000Y-107596385D02*
X190065000Y-107923615D01*
X123285885Y-102329999D02*
X133461385Y-102330000D01*
X163825000Y-134065280D02*
X163825000Y-133174720D01*
X190220000Y-111038236D02*
X201961176Y-122779412D01*
X193829785Y-107595000D02*
X194157015Y-107595000D01*
X194157015Y-106805000D02*
X194124412Y-106805000D01*
X190700000Y-108078615D02*
X190855000Y-107923615D01*
X191530000Y-107420000D02*
X192819412Y-107420000D01*
X133461385Y-102330000D02*
X133245000Y-102546385D01*
X134165000Y-102496385D02*
X134165000Y-102823615D01*
X123410000Y-135750588D02*
X123090000Y-135430588D01*
X156804720Y-132545000D02*
X156175000Y-133174720D01*
X190855000Y-107923615D02*
X190855000Y-107596385D01*
X134723615Y-103055000D02*
X134955000Y-102823615D01*
X139828187Y-131785000D02*
X137515588Y-131785000D01*
X134955000Y-102496385D02*
X134788615Y-102330000D01*
X192620588Y-106940000D02*
X191190589Y-106940000D01*
X192819412Y-107420000D02*
X193399412Y-106840000D01*
X194388400Y-107363615D02*
X194388400Y-107036385D01*
X161304720Y-132545000D02*
X160675000Y-133174720D01*
X142566005Y-134522819D02*
X139828187Y-131785000D01*
X201961176Y-122779412D02*
X207471176Y-122779412D01*
X193399412Y-106840000D02*
X193480588Y-106840000D01*
X133476385Y-103105000D02*
X133803615Y-103105000D01*
X160675000Y-134065280D02*
X161132539Y-134522819D01*
X191050000Y-107080589D02*
X191050000Y-111189412D01*
X135175000Y-102863615D02*
X135406385Y-103095000D01*
X192365000Y-109853615D02*
X192365000Y-112165000D01*
X192345000Y-109506385D02*
X192345000Y-109833615D01*
X194124412Y-106805000D02*
X193679411Y-106360000D01*
X123090000Y-104100588D02*
X122302648Y-103313236D01*
X158695280Y-132545000D02*
X156804720Y-132545000D01*
X133803615Y-103105000D02*
X134035000Y-102873615D01*
X135514412Y-102305000D02*
X135059411Y-101850000D01*
X193637687Y-106997099D02*
X193598400Y-107036385D01*
X134396385Y-103055000D02*
X134723615Y-103055000D01*
X136844411Y-101850000D02*
X136969412Y-101725000D01*
X191050000Y-111189412D02*
X190700000Y-110839412D01*
X192365000Y-109205000D02*
X192365000Y-109486385D01*
X178930588Y-133750000D02*
X178157769Y-134522819D01*
X135733615Y-103095000D02*
X135965000Y-102863615D01*
X123090000Y-135430588D02*
X123090000Y-104100588D01*
X190855000Y-107596385D02*
X190623615Y-107365000D01*
X161132539Y-134522819D02*
X158867461Y-134522819D01*
X133245000Y-102546385D02*
X133245000Y-102873615D01*
X134165000Y-102823615D02*
X134396385Y-103055000D01*
X193598400Y-107036385D02*
X193598400Y-107363615D01*
X192345000Y-109833615D02*
X192365000Y-109853615D01*
X190623615Y-107365000D02*
X190296385Y-107365000D01*
X206929411Y-133750000D02*
X178930588Y-133750000D01*
X133818615Y-102330000D02*
X134331385Y-102330000D01*
X134035000Y-102873615D02*
X134035000Y-102546385D01*
%TO.N,PT69A*%
X193993400Y-110400000D02*
X193993400Y-111966600D01*
X134640000Y-100890000D02*
X134650000Y-100880000D01*
X213190000Y-120900000D02*
X218000000Y-125710000D01*
X121804412Y-137435000D02*
X120780000Y-136410588D01*
X120780000Y-102799412D02*
X122689412Y-100890000D01*
X193993400Y-111966600D02*
X193810000Y-112150000D01*
X193810000Y-112150000D02*
X193810000Y-112919411D01*
X218000000Y-125710000D02*
X218000000Y-136200000D01*
X138890000Y-99540000D02*
X139525000Y-100175000D01*
X138650000Y-99540000D02*
X138890000Y-99540000D01*
X134650000Y-100880000D02*
X135919411Y-100880000D01*
X135919411Y-100880000D02*
X137609411Y-99190000D01*
X218000000Y-136200000D02*
X216765000Y-137435000D01*
X201680589Y-120790000D02*
X213190000Y-120790000D01*
X137609411Y-99190000D02*
X138300000Y-99190000D01*
X120780000Y-136410588D02*
X120780000Y-102799412D01*
X193810000Y-112919411D02*
X201680589Y-120790000D01*
X122689412Y-100890000D02*
X134640000Y-100890000D01*
X138300000Y-99190000D02*
X138650000Y-99540000D01*
X216765000Y-137435000D02*
X121804412Y-137435000D01*
X213190000Y-120790000D02*
X213190000Y-120900000D01*
%TO.N,PT56B*%
X138271966Y-100500000D02*
X138199818Y-100572148D01*
X214780000Y-127670000D02*
X210090000Y-122980000D01*
X209604463Y-136710588D02*
X211535051Y-134780000D01*
X139730331Y-100500000D02*
X139680331Y-100550000D01*
X136745000Y-101610000D02*
X122987649Y-101609999D01*
X138596452Y-100500000D02*
X138271966Y-100500000D01*
X122170588Y-136710588D02*
X209604463Y-136710588D01*
X140100000Y-100500000D02*
X139730331Y-100500000D01*
X214780000Y-134040000D02*
X214780000Y-127670000D01*
X122987649Y-101609999D02*
X121500000Y-103097648D01*
X140275000Y-100925000D02*
X140275000Y-100675000D01*
X211535051Y-134780000D02*
X213560000Y-134780000D01*
X138626109Y-100529657D02*
X138596452Y-100500000D01*
X140275000Y-100675000D02*
X140100000Y-100500000D01*
X139369669Y-100550000D02*
X139319669Y-100500000D01*
X210090000Y-122980000D02*
X210090000Y-121500000D01*
X121500000Y-136040000D02*
X122170588Y-136710588D01*
X137836004Y-100518996D02*
X136745000Y-101610000D01*
X138199818Y-100572148D02*
X137889156Y-100572148D01*
X139680331Y-100550000D02*
X139369669Y-100550000D01*
X138966428Y-100500000D02*
X138936771Y-100529657D01*
X138936771Y-100529657D02*
X138626109Y-100529657D01*
X121500000Y-103097648D02*
X121500000Y-136040000D01*
X139319669Y-100500000D02*
X138966428Y-100500000D01*
X213800000Y-135020000D02*
X214780000Y-134040000D01*
X213560000Y-134780000D02*
X213800000Y-135020000D01*
X137889156Y-100572148D02*
X137836004Y-100518996D01*
%TO.N,PT69B*%
X120540000Y-136510000D02*
X120540000Y-102700000D01*
X194750000Y-113520000D02*
X201590000Y-120360000D01*
X130468615Y-100640000D02*
X135820000Y-100640000D01*
X138520000Y-98950000D02*
X138870000Y-99300000D01*
X122600000Y-100640000D02*
X130131385Y-100640000D01*
X213270000Y-120360000D02*
X218740000Y-125830000D01*
X137360000Y-98920000D02*
X137390000Y-98950000D01*
X130136385Y-100645000D02*
X130463615Y-100645000D01*
X137390000Y-98950000D02*
X138520000Y-98950000D01*
X135820000Y-100640000D02*
X137360000Y-99100000D01*
X139450001Y-99300000D02*
X140275000Y-100125000D01*
X120540000Y-102700000D02*
X122600000Y-100640000D01*
X194750000Y-111300000D02*
X194750000Y-113520000D01*
X130131385Y-100640000D02*
X130136385Y-100645000D01*
X130463615Y-100645000D02*
X130468615Y-100640000D01*
X218740000Y-125830000D02*
X218315000Y-126255000D01*
X216890000Y-137675000D02*
X121705000Y-137675000D01*
X201590000Y-120360000D02*
X213270000Y-120360000D01*
X121705000Y-137675000D02*
X120540000Y-136510000D01*
X218315000Y-136250000D02*
X216890000Y-137675000D01*
X138870000Y-99300000D02*
X139450001Y-99300000D01*
X137360000Y-99100000D02*
X137360000Y-98920000D01*
X218315000Y-126255000D02*
X218315000Y-136250000D01*
%TD*%
D24*
X119975000Y-38470000D02*
X219975000Y-38470000D01*
X219975000Y-138240000D01*
X119975000Y-138240000D01*
X119975000Y-38470000D01*
M02*
