%TF.GenerationSoftware,KiCad,Pcbnew,10.0.0*%
%TF.CreationDate,2026-04-07T07:04:32-07:00*%
%TF.ProjectId,FPL,46504c2e-6b69-4636-9164-5f7063625858,rev?*%
%TF.SameCoordinates,Original*%
%TF.FileFunction,Paste,Bot*%
%TF.FilePolarity,Positive*%
%FSLAX46Y46*%
G04 Gerber Fmt 4.6, Leading zero omitted, Abs format (unit mm)*
G04 Created by KiCad (PCBNEW 10.0.0) date 2026-04-07 07:04:32*
%MOMM*%
%LPD*%
G01*
G04 APERTURE LIST*
G04 Aperture macros list*
%AMRotRect*
0 Rectangle, with rotation*
0 The origin of the aperture is its center*
0 $1 length*
0 $2 width*
0 $3 Rotation angle, in degrees counterclockwise*
0 Add horizontal line*
21,1,$1,$2,0,0,$3*%
G04 Aperture macros list end*
%ADD10C,0.000000*%
%ADD11R,0.508000X0.660400*%
%ADD12RotRect,0.290000X0.300000X315.000000*%
%ADD13R,0.660400X0.508000*%
%ADD14R,0.609600X0.254000*%
%ADD15R,0.254000X0.609600*%
%ADD16R,2.590800X2.590800*%
%ADD17R,0.300000X0.290000*%
%TA.AperFunction,Profile*%
%ADD18C,0.050000*%
%TD*%
G04 APERTURE END LIST*
D10*
%TO.C,U2*%
G36*
X195900000Y-108656600D02*
G01*
X194804600Y-108656600D01*
X194804600Y-107561200D01*
X195900000Y-107561200D01*
X195900000Y-108656600D01*
G37*
G36*
X195900000Y-109952000D02*
G01*
X194804600Y-109952000D01*
X194804600Y-108856600D01*
X195900000Y-108856600D01*
X195900000Y-109952000D01*
G37*
G36*
X197195400Y-108656600D02*
G01*
X196100000Y-108656600D01*
X196100000Y-107561200D01*
X197195400Y-107561200D01*
X197195400Y-108656600D01*
G37*
G36*
X197195400Y-109952000D02*
G01*
X196100000Y-109952000D01*
X196100000Y-108856600D01*
X197195400Y-108856600D01*
X197195400Y-109952000D01*
G37*
%TD*%
D11*
%TO.C,R7*%
X215232500Y-129726950D03*
X215232500Y-130844550D03*
%TD*%
D12*
%TO.C,C1*%
X145886044Y-104986044D03*
X146200000Y-105300000D03*
%TD*%
D13*
%TO.C,R87*%
X159728800Y-98170000D03*
X158611200Y-98170000D03*
%TD*%
%TO.C,R6*%
X209018800Y-134270000D03*
X207901200Y-134270000D03*
%TD*%
D14*
%TO.C,U2*%
X198006600Y-107506600D03*
X198006600Y-108006599D03*
X198006600Y-108506600D03*
X198006600Y-109006600D03*
X198006600Y-109506601D03*
X198006600Y-110006600D03*
D15*
X197250000Y-110763200D03*
X196750001Y-110763200D03*
X196250000Y-110763200D03*
X195750000Y-110763200D03*
X195249999Y-110763200D03*
X194750000Y-110763200D03*
D14*
X193993400Y-110006600D03*
X193993400Y-109506601D03*
X193993400Y-109006600D03*
X193993400Y-108506600D03*
X193993400Y-108006599D03*
X193993400Y-107506600D03*
D15*
X194750000Y-106750000D03*
X195249999Y-106750000D03*
X195750000Y-106750000D03*
X196250000Y-106750000D03*
X196750001Y-106750000D03*
X197250000Y-106750000D03*
D16*
X196000000Y-108756600D03*
%TD*%
D13*
%TO.C,R88*%
X158411200Y-100660000D03*
X159528800Y-100660000D03*
%TD*%
%TO.C,R89*%
X159658800Y-99310000D03*
X158541200Y-99310000D03*
%TD*%
D17*
%TO.C,C4*%
X198660000Y-112854000D03*
X198660000Y-112410000D03*
%TD*%
D18*
X119975000Y-38470000D02*
X219975000Y-38470000D01*
X219975000Y-138240000D01*
X119975000Y-138240000D01*
X119975000Y-38470000D01*
M02*
