M48
; DRILL file KiCad 10.0.0 date 2026-04-07T07:04:14
; FORMAT={-:-/ absolute / metric / decimal}
; #@! TF.CreationDate,2026-04-07T07:04:14-07:00
; #@! TF.GenerationSoftware,Kicad,Pcbnew,10.0.0
; #@! TF.FileFunction,Plated,1,4,PTH
FMAT,2
METRIC
; #@! TA.AperFunction,Plated,PTH,ViaDrill
T1C0.200
; #@! TA.AperFunction,Plated,PTH,ViaDrill
T2C0.300
; #@! TA.AperFunction,Plated,PTH,ComponentDrill
T3C0.450
; #@! TA.AperFunction,Plated,PTH,ComponentDrill
T4C0.500
; #@! TA.AperFunction,Plated,PTH,ComponentDrill
T5C0.800
; #@! TA.AperFunction,Plated,PTH,ComponentDrill
T6C0.900
; #@! TA.AperFunction,Plated,PTH,ComponentDrill
T7C1.000
%
G90
G05
T1
X120.9Y-39.91
X121.05Y-101.47
X122.32Y-132.61
X123.46Y-84.07
X123.81Y-131.21
X125.15Y-98.74
X125.47Y-77.36
X126.07Y-83.36
X126.88Y-84.11
X127.22Y-43.01
X127.3Y-98.56
X127.47Y-92.58
X128.14Y-46.41
X128.83Y-77.01
X129.71Y-44.82
X130.3Y-100.25
X132.04Y-114.0
X133.64Y-102.71
X133.95Y-113.59
X134.56Y-102.66
X135.57Y-102.7
X135.6Y-115.69
X135.86Y-99.79
X136.807Y-107.756
X136.9Y-102.525
X136.94Y-105.68
X137.875Y-96.125
X137.9Y-106.5
X137.919Y-100.966
X137.965Y-96.941
X137.99Y-132.88
X138.0Y-103.155
X138.044Y-100.197
X138.7Y-97.0
X138.715Y-106.485
X138.725Y-102.525
X138.75Y-103.3
X138.781Y-100.155
X139.1Y-95.9
X139.501Y-100.925
X139.52Y-110.15
X139.525Y-100.175
X139.544Y-103.21
X139.9Y-96.0
X140.275Y-100.125
X140.275Y-100.925
X140.3Y-101.7
X140.35Y-97.601
X140.35Y-95.01
X140.371Y-103.168
X140.414Y-98.185
X140.48Y-102.469
X141.11Y-95.87
X141.11Y-97.75
X141.59Y-109.9
X141.8Y-99.3
X141.809Y-98.38
X141.875Y-100.975
X141.9Y-97.7
X141.9Y-103.325
X141.935Y-100.275
X142.639Y-99.18
X142.639Y-102.38
X142.68Y-108.13
X142.7Y-103.4
X143.33Y-135.99
X143.475Y-104.141
X143.5Y-97.7
X143.5Y-99.3
X143.54Y-109.47
X143.66Y-110.08
X144.296Y-104.22
X144.3Y-97.7
X144.3Y-104.9
X144.49Y-115.0
X144.7Y-96.0
X145.1Y-103.3
X145.1Y-107.3
X145.2Y-101.6
X145.59Y-113.32
X145.61Y-114.8
X145.63Y-114.18
X145.9Y-101.0
X145.9Y-104.1
X145.92Y-97.77
X145.925Y-107.325
X146.3Y-109.659
X146.4Y-112.55
X146.66Y-110.02
X146.69Y-99.33
X146.7Y-107.4
X146.737Y-102.423
X147.15Y-135.99
X147.5Y-102.5
X147.5Y-106.5
X147.525Y-108.125
X147.565Y-107.359
X148.2Y-108.845
X148.25Y-130.315
X148.3Y-100.1
X148.3Y-106.6
X148.5Y-128.38
X149.104Y-108.893
X149.124Y-109.424
X150.0Y-101.355
X150.0Y-108.3
X150.1Y-100.55
X150.1Y-102.95
X150.185Y-129.065
X150.25Y-111.74
X150.39Y-102.15
X151.27Y-98.69
X151.49Y-58.33
X151.53Y-104.94
X153.455Y-103.065
X153.46Y-99.62
X153.5Y-95.86
X154.43Y-93.1
X155.6Y-102.1
X156.12Y-109.47
X156.23Y-103.64
X156.36Y-99.42
X156.42Y-98.09
X156.42Y-100.63
X161.562Y-90.223
X161.562Y-91.493
X165.08Y-105.79
X165.87Y-110.34
X165.93Y-101.8
X168.55Y-45.25
X168.852Y-90.223
X169.2Y-100.0
X170.26Y-92.34
X179.31Y-134.68
X179.34Y-136.26
X190.46Y-107.76
X192.74Y-109.67
X193.993Y-107.507
X193.993Y-108.507
X193.993Y-110.007
X194.75Y-106.75
X194.75Y-110.763
X195.29Y-111.63
X196.25Y-110.763
X196.52Y-121.088
X197.1Y-112.74
X197.25Y-110.763
X197.75Y-113.33
X198.007Y-107.507
X198.007Y-109.007
X198.66Y-112.88
X198.928Y-121.088
X199.4Y-111.22
X201.28Y-118.03
X201.95Y-116.72
X202.1Y-116.22
X206.15Y-78.75
X206.15Y-79.85
X206.15Y-82.05
X206.15Y-84.25
X206.15Y-85.35
X206.15Y-86.45
X207.96Y-135.03
X208.47Y-117.04
X209.019Y-134.27
X210.09Y-121.5
X210.75Y-83.28
X211.12Y-121.4
X212.41Y-121.62
X214.62Y-73.94
X215.232Y-129.727
X215.232Y-130.845
X218.85Y-85.05
T2
X148.9Y-113.22
X149.0Y-112.1
X149.0Y-114.27
X149.1Y-115.27
X149.6Y-116.8
X151.2Y-114.7
X151.2Y-116.7
X151.72Y-111.7
X152.173Y-114.722
X153.141Y-113.858
X153.375Y-112.763
X153.4Y-111.9
X154.195Y-113.795
X173.41Y-132.75
X183.671Y-133.23
X194.17Y-132.73
X196.75Y-105.0
X197.75Y-105.25
X198.5Y-103.0
X204.34Y-132.73
T5
X124.36Y-108.49
X124.36Y-118.65
X133.2Y-132.75
X143.36Y-132.75
X143.45Y-122.17
X145.46Y-74.05
X153.61Y-122.17
X155.62Y-74.05
X155.8Y-52.88
X155.8Y-63.04
X157.09Y-78.03
X157.64Y-68.38
X159.69Y-72.91
X161.02Y-86.82
X167.25Y-78.03
X167.8Y-68.38
X169.77Y-104.16
X169.85Y-72.91
X171.18Y-86.82
X172.2Y-90.27
X172.2Y-100.43
X174.18Y-76.6
X174.18Y-86.76
X174.63Y-112.48
X174.63Y-122.64
X179.93Y-86.13
X179.93Y-96.29
X179.93Y-104.16
X183.816Y-109.184
X189.64Y-76.46
X189.64Y-79.5
X191.0Y-102.0
X197.42Y-94.5
X199.8Y-76.46
X199.8Y-79.5
X207.58Y-94.5
T6
X201.68Y-101.035
X201.68Y-103.325
X201.68Y-105.325
X201.68Y-107.365
X201.68Y-109.405
X201.68Y-111.445
X202.78Y-104.305
X202.78Y-106.345
X202.78Y-108.385
X202.78Y-110.425
X202.78Y-112.335
X202.78Y-114.835
T7
X121.81Y-47.91
X124.35Y-47.91
X126.89Y-47.91
X128.73Y-122.4
X129.14Y-105.58
X129.14Y-108.12
X129.43Y-47.91
X130.81Y-94.39
X130.81Y-96.93
X131.27Y-122.4
X131.97Y-47.91
X134.51Y-47.91
X137.05Y-47.91
X137.52Y-122.66
X139.59Y-47.91
X140.06Y-122.66
X142.13Y-47.91
X144.67Y-47.91
X145.67Y-89.45
X145.69Y-82.73
X147.21Y-47.91
X148.21Y-89.45
X148.23Y-82.73
X149.75Y-47.91
X150.75Y-89.45
X150.77Y-82.73
X152.29Y-47.91
X153.31Y-82.73
X154.83Y-47.91
X155.85Y-82.73
X157.37Y-47.91
X157.75Y-123.46
X157.75Y-126.0
X157.75Y-128.54
X157.75Y-131.08
X157.75Y-133.62
X157.93Y-103.75
X157.93Y-108.25
X158.39Y-82.73
X159.91Y-47.91
X162.25Y-123.46
X162.25Y-126.0
X162.25Y-128.54
X162.25Y-131.08
X162.25Y-133.62
X164.43Y-103.75
X164.43Y-108.25
X170.21Y-116.81
X170.21Y-119.35
X170.21Y-121.89
X170.21Y-124.43
X170.21Y-126.97
X180.37Y-117.25
X180.37Y-119.79
X180.37Y-122.33
X180.37Y-124.87
X180.37Y-127.41
X191.0Y-116.96
X191.0Y-119.5
X191.0Y-122.04
X191.0Y-124.58
X191.0Y-127.12
T3
G00X211.825Y-127.38
M15
G01X211.825Y-126.73
M16
G05
G00X211.825Y-136.13
M15
G01X211.825Y-135.48
M16
G05
T4
G00X214.69Y-126.48
M15
G01X216.39Y-126.48
M16
G05
G00X214.69Y-136.38
M15
G01X216.39Y-136.38
M16
G05
T7
G00X211.15Y-97.75
M15
G01X212.35Y-97.75
M16
G05
G00X211.15Y-118.0
M15
G01X212.35Y-118.0
M16
G05
M30
