%TF.GenerationSoftware,KiCad,Pcbnew,10.0.0*%
%TF.CreationDate,2026-04-09T07:02:04-07:00*%
%TF.ProjectId,FPL,46504c2e-6b69-4636-9164-5f7063625858,rev?*%
%TF.SameCoordinates,Original*%
%TF.FileFunction,Copper,L4,Bot*%
%TF.FilePolarity,Positive*%
%FSLAX46Y46*%
G04 Gerber Fmt 4.6, Leading zero omitted, Abs format (unit mm)*
G04 Created by KiCad (PCBNEW 10.0.0) date 2026-04-09 07:02:04*
%MOMM*%
%LPD*%
G01*
G04 APERTURE LIST*
G04 Aperture macros list*
%AMRotRect*
0 Rectangle, with rotation*
0 The origin of the aperture is its center*
0 $1 length*
0 $2 width*
0 $3 Rotation angle, in degrees counterclockwise*
0 Add horizontal line*
21,1,$1,$2,0,0,$3*%
G04 Aperture macros list end*
%TA.AperFunction,ComponentPad*%
%ADD10O,2.800000X1.800000*%
%TD*%
%TA.AperFunction,ComponentPad*%
%ADD11R,2.400000X1.400000*%
%TD*%
%TA.AperFunction,ComponentPad*%
%ADD12R,2.800000X1.800000*%
%TD*%
%TA.AperFunction,ComponentPad*%
%ADD13C,1.250000*%
%TD*%
%TA.AperFunction,ComponentPad*%
%ADD14O,3.016000X1.508000*%
%TD*%
%TA.AperFunction,ComponentPad*%
%ADD15C,1.600000*%
%TD*%
%TA.AperFunction,ComponentPad*%
%ADD16R,1.700000X1.700000*%
%TD*%
%TA.AperFunction,ComponentPad*%
%ADD17C,1.700000*%
%TD*%
%TA.AperFunction,ComponentPad*%
%ADD18O,1.050000X1.700000*%
%TD*%
%TA.AperFunction,ComponentPad*%
%ADD19O,2.800000X1.100000*%
%TD*%
%TA.AperFunction,ComponentPad*%
%ADD20R,1.800000X2.800000*%
%TD*%
%TA.AperFunction,ComponentPad*%
%ADD21O,1.800000X2.800000*%
%TD*%
%TA.AperFunction,SMDPad,CuDef*%
%ADD22R,0.508000X0.660400*%
%TD*%
%TA.AperFunction,SMDPad,CuDef*%
%ADD23RotRect,0.290000X0.300000X315.000000*%
%TD*%
%TA.AperFunction,SMDPad,CuDef*%
%ADD24R,0.660400X0.508000*%
%TD*%
%TA.AperFunction,SMDPad,CuDef*%
%ADD25R,0.609600X0.254000*%
%TD*%
%TA.AperFunction,SMDPad,CuDef*%
%ADD26R,0.254000X0.609600*%
%TD*%
%TA.AperFunction,SMDPad,CuDef*%
%ADD27R,2.590800X2.590800*%
%TD*%
%TA.AperFunction,SMDPad,CuDef*%
%ADD28R,0.300000X0.290000*%
%TD*%
%TA.AperFunction,ViaPad*%
%ADD29C,0.600000*%
%TD*%
%TA.AperFunction,ViaPad*%
%ADD30C,0.400000*%
%TD*%
%TA.AperFunction,Conductor*%
%ADD31C,0.130000*%
%TD*%
%TA.AperFunction,Conductor*%
%ADD32C,0.200000*%
%TD*%
%TA.AperFunction,Profile*%
%ADD33C,0.050000*%
%TD*%
G04 APERTURE END LIST*
D10*
%TO.P,J18,5*%
%TO.N,1V2*%
X191000000Y-127120000D03*
%TO.P,J18,4*%
X191000000Y-124580000D03*
%TO.P,J18,3*%
X191000000Y-122040000D03*
%TO.P,J18,2*%
X191000000Y-119500000D03*
D11*
%TO.P,J18,1*%
X191000000Y-116960000D03*
%TD*%
D12*
%TO.P,J7,1*%
%TO.N,Net-(U1A-PT6B)*%
X129140000Y-105580000D03*
D10*
%TO.P,J7,2*%
%TO.N,Net-(U1A-PT6A)*%
X129140000Y-108120000D03*
%TD*%
D13*
%TO.P,J4,1,1_1*%
%TO.N,TXP*%
X202780000Y-104305000D03*
%TO.P,J4,2,2_2*%
%TO.N,TXN*%
X201680000Y-105325000D03*
%TO.P,J4,3,3_3*%
%TO.N,RXP*%
X202780000Y-106345000D03*
%TO.P,J4,4,4_4*%
%TO.N,unconnected-(J4-Pad4)*%
X201680000Y-107365000D03*
%TO.P,J4,5,5_5*%
%TO.N,unconnected-(J4-Pad5)*%
X202780000Y-108385000D03*
%TO.P,J4,6,6_6*%
%TO.N,RXN*%
X201680000Y-109405000D03*
%TO.P,J4,7,7_7*%
%TO.N,unconnected-(J4-Pad7)*%
X202780000Y-110425000D03*
%TO.P,J4,8,8_8*%
%TO.N,unconnected-(J4-Pad8)*%
X201680000Y-111445000D03*
%TO.P,J4,9*%
%TO.N,GND*%
X201680000Y-101035000D03*
%TO.P,J4,10*%
%TO.N,LED2*%
X201680000Y-103325000D03*
%TO.P,J4,11*%
%TO.N,LED1*%
X202780000Y-112335000D03*
%TO.P,J4,12*%
%TO.N,GND*%
X202780000Y-114835000D03*
D14*
%TO.P,J4,S1,SHIELD_S1*%
X211750000Y-118000000D03*
%TO.P,J4,S2,SHIELD_S2*%
X211750000Y-97750000D03*
%TD*%
D15*
%TO.P,R2,1*%
%TO.N,1V8*%
X124360000Y-118650000D03*
%TO.P,R2,2*%
%TO.N,PL35D*%
X124360000Y-108490000D03*
%TD*%
%TO.P,R92,1*%
%TO.N,Net-(U5-VDD)*%
X153610000Y-122170000D03*
%TO.P,R92,2*%
%TO.N,Net-(U5-~{RST})*%
X143450000Y-122170000D03*
%TD*%
%TO.P,R91,1*%
%TO.N,3V3*%
X189640000Y-76460000D03*
%TO.P,R91,2*%
%TO.N,Net-(Q1-G)*%
X199800000Y-76460000D03*
%TD*%
D16*
%TO.P,J6,1*%
%TO.N,Net-(U1C-PR32B)*%
X145670000Y-89450000D03*
D17*
%TO.P,J6,2*%
%TO.N,Net-(U1C-PR32C)*%
X148210000Y-89450000D03*
%TO.P,J6,3*%
%TO.N,Net-(U1C-PR32D)*%
X150749999Y-89450000D03*
%TD*%
D15*
%TO.P,R14,1*%
%TO.N,3V3*%
X167250000Y-78030000D03*
%TO.P,R14,2*%
%TO.N,Net-(U1H-TDI)*%
X157090000Y-78030000D03*
%TD*%
%TO.P,R10,1*%
%TO.N,Net-(U1G-DONE)*%
X179930000Y-86130000D03*
%TO.P,R10,2*%
%TO.N,Net-(D1-Pad2)*%
X179930000Y-96290000D03*
%TD*%
D12*
%TO.P,J21,1*%
%TO.N,2V5*%
X170210000Y-116810000D03*
D10*
%TO.P,J21,2*%
X170210000Y-119350000D03*
%TO.P,J21,3*%
X170210000Y-121890000D03*
%TO.P,J21,4*%
X170210000Y-124430000D03*
%TO.P,J21,5*%
X170210000Y-126970000D03*
%TD*%
D18*
%TO.P,J2,SH1,SHIELD_SH1*%
%TO.N,Net-(J2-SHIELD-PadSH1)*%
X211825000Y-135805000D03*
%TO.P,J2,SH2,SHIELD_SH2*%
X211825000Y-127055000D03*
D19*
%TO.P,J2,SH3,SHIELD_SH3*%
X215540000Y-136380001D03*
%TO.P,J2,SH4,SHIELD_SH4*%
X215540000Y-126479999D03*
%TD*%
D16*
%TO.P,J3,1*%
%TO.N,Net-(U1H-TMS)*%
X158390000Y-82730000D03*
D17*
%TO.P,J3,2*%
%TO.N,Net-(U1H-TDI)*%
X155850000Y-82730000D03*
%TO.P,J3,3*%
%TO.N,Net-(U1H-TDO)*%
X153310001Y-82730000D03*
%TO.P,J3,4*%
%TO.N,Net-(U1H-TCK)*%
X150770000Y-82730000D03*
%TO.P,J3,5*%
%TO.N,1V2*%
X148230000Y-82730000D03*
%TO.P,J3,6*%
%TO.N,GND*%
X145690000Y-82730000D03*
%TD*%
D15*
%TO.P,S1,1,1_1*%
%TO.N,unconnected-(S1-Pad1)*%
X164430000Y-108250000D03*
%TO.P,S1,2,2_2*%
%TO.N,GND*%
X157930000Y-108250000D03*
%TO.P,S1,3,3_3*%
%TO.N,PROGRAM*%
X164430000Y-103750000D03*
%TO.P,S1,4,4_4*%
%TO.N,unconnected-(S1-Pad4)*%
X157930000Y-103750000D03*
%TD*%
D12*
%TO.P,J10,1*%
%TO.N,Net-(U1A-PT13B)*%
X130810000Y-96930000D03*
D10*
%TO.P,J10,2*%
%TO.N,Net-(U1A-PT13A)*%
X130810000Y-94390000D03*
%TD*%
D12*
%TO.P,J22,1*%
%TO.N,GND*%
X157750000Y-123460000D03*
D10*
%TO.P,J22,2*%
X157750000Y-126000000D03*
%TO.P,J22,3*%
X157750000Y-128540000D03*
%TO.P,J22,4*%
X157750000Y-131080000D03*
%TO.P,J22,5*%
X157750000Y-133620000D03*
%TD*%
D12*
%TO.P,J19,1*%
%TO.N,1V8*%
X180370000Y-117250000D03*
D10*
%TO.P,J19,2*%
X180370000Y-119790000D03*
%TO.P,J19,3*%
X180370000Y-122330000D03*
%TO.P,J19,4*%
X180370000Y-124870000D03*
%TO.P,J19,5*%
X180370000Y-127410000D03*
%TD*%
D15*
%TO.P,R90,1*%
%TO.N,Net-(Q1-G)*%
X199800000Y-79500000D03*
%TO.P,R90,2*%
%TO.N,PT44B*%
X189640000Y-79500000D03*
%TD*%
D12*
%TO.P,J20,1*%
%TO.N,3V3*%
X162250000Y-123460000D03*
D10*
%TO.P,J20,2*%
X162250000Y-126000000D03*
%TO.P,J20,3*%
X162250000Y-128540000D03*
%TO.P,J20,4*%
X162250000Y-131080000D03*
%TO.P,J20,5*%
X162250000Y-133620000D03*
%TD*%
D15*
%TO.P,R93,1*%
%TO.N,GND*%
X133200000Y-132750000D03*
%TO.P,R93,2*%
%TO.N,Net-(U5-SUSPEND)*%
X143360000Y-132750000D03*
%TD*%
D20*
%TO.P,J5,1*%
%TO.N,Net-(U1C-PR20D)*%
X159910000Y-47910000D03*
D21*
%TO.P,J5,2*%
%TO.N,Net-(U1C-PR20C)*%
X157370000Y-47910000D03*
%TO.P,J5,3*%
%TO.N,Net-(U1C-PR20B)*%
X154830001Y-47910000D03*
%TO.P,J5,4*%
%TO.N,Net-(U1C-PR20A)*%
X152290000Y-47910000D03*
%TO.P,J5,5*%
%TO.N,Net-(U1C-PR17D)*%
X149750000Y-47910000D03*
%TO.P,J5,6*%
%TO.N,Net-(U1C-PR17C)*%
X147210000Y-47910000D03*
%TO.P,J5,7*%
%TO.N,Net-(U1C-PR17B)*%
X144670000Y-47910000D03*
%TO.P,J5,8*%
%TO.N,Net-(U1C-PR17A)*%
X142129999Y-47910000D03*
%TO.P,J5,9*%
%TO.N,Net-(U1C-PR14D)*%
X139590000Y-47910000D03*
%TO.P,J5,10*%
%TO.N,Net-(U1C-PR14C)*%
X137050000Y-47910000D03*
%TO.P,J5,11*%
%TO.N,Net-(U1C-PR14B)*%
X134510000Y-47910000D03*
%TO.P,J5,12*%
%TO.N,Net-(U1C-PR14A)*%
X131970001Y-47910000D03*
%TO.P,J5,13*%
%TO.N,Net-(U1C-PR11D)*%
X129430000Y-47910000D03*
%TO.P,J5,14*%
%TO.N,Net-(U1C-PR11C)*%
X126890000Y-47910000D03*
%TO.P,J5,15*%
%TO.N,Net-(U1C-PR11B)*%
X124350000Y-47910000D03*
%TO.P,J5,16*%
%TO.N,Net-(U1C-PR11A)*%
X121810001Y-47910000D03*
%TD*%
D20*
%TO.P,J9,1*%
%TO.N,Net-(U1A-PT11B)*%
X137520000Y-122660000D03*
D21*
%TO.P,J9,2*%
%TO.N,Net-(U1A-PT11A)*%
X140060000Y-122660000D03*
%TD*%
D15*
%TO.P,R11,1*%
%TO.N,Net-(U1G-~{INIT})*%
X155800000Y-52880001D03*
%TO.P,R11,2*%
%TO.N,Net-(D2-Pad2)*%
X155800000Y-63040001D03*
%TD*%
%TO.P,R1,1*%
%TO.N,1V8*%
X174630000Y-122640000D03*
%TO.P,R1,2*%
%TO.N,PL35C*%
X174630000Y-112480000D03*
%TD*%
%TO.P,R15,1*%
%TO.N,Net-(U2-NRST)*%
X183815795Y-109184205D03*
%TO.P,R15,2*%
%TO.N,3V3*%
X191000000Y-102000000D03*
%TD*%
%TO.P,R13,1*%
%TO.N,3V3*%
X169850000Y-72910000D03*
%TO.P,R13,2*%
%TO.N,Net-(U1H-TMS)*%
X159690000Y-72910000D03*
%TD*%
%TO.P,R12,1*%
%TO.N,Net-(D2-Pad1)*%
X157640000Y-68380000D03*
%TO.P,R12,2*%
%TO.N,GND*%
X167800000Y-68380000D03*
%TD*%
D20*
%TO.P,J8,1*%
%TO.N,Net-(U1A-PT9B)*%
X128730000Y-122400000D03*
D21*
%TO.P,J8,2*%
%TO.N,Net-(U1A-PT9A)*%
X131270000Y-122400000D03*
%TD*%
D15*
%TO.P,R16,1*%
%TO.N,Net-(U2-RBIAS)*%
X197420000Y-94500000D03*
%TO.P,R16,2*%
%TO.N,GND*%
X207580000Y-94500000D03*
%TD*%
%TO.P,R9,1*%
%TO.N,GND*%
X169770000Y-104160000D03*
%TO.P,R9,2*%
%TO.N,Net-(D1-Pad1)*%
X179930000Y-104160000D03*
%TD*%
%TO.P,R8,1*%
%TO.N,3V3*%
X174180000Y-76600000D03*
%TO.P,R8,2*%
%TO.N,Net-(U7-{slash}HOLD_{slash}RESET)*%
X174180000Y-86760000D03*
%TD*%
%TO.P,R4,1*%
%TO.N,CCLK*%
X161020000Y-86820000D03*
%TO.P,R4,2*%
%TO.N,3V3*%
X171180000Y-86820000D03*
%TD*%
%TO.P,R3,1*%
%TO.N,3V3*%
X172200000Y-90270000D03*
%TO.P,R3,2*%
%TO.N,PROGRAM*%
X172200000Y-100430000D03*
%TD*%
%TO.P,R5,1*%
%TO.N,Net-(U7-{slash}WP(IO2))*%
X145460000Y-74050000D03*
%TO.P,R5,2*%
%TO.N,3V3*%
X155620000Y-74050000D03*
%TD*%
D22*
%TO.P,R7,1*%
%TO.N,GND*%
X215232500Y-129726950D03*
%TO.P,R7,2*%
%TO.N,Net-(J2-CC2)*%
X215232500Y-130844550D03*
%TD*%
D23*
%TO.P,C1,1*%
%TO.N,Net-(U1G-VCCIO8)*%
X145886044Y-104986044D03*
%TO.P,C1,2*%
%TO.N,3V3*%
X146200000Y-105300000D03*
%TD*%
D24*
%TO.P,R87,1*%
%TO.N,3V3*%
X159728800Y-98170000D03*
%TO.P,R87,2*%
%TO.N,CFG_0*%
X158611200Y-98170000D03*
%TD*%
%TO.P,R6,1*%
%TO.N,Net-(J2-CC1)*%
X209018800Y-134270000D03*
%TO.P,R6,2*%
%TO.N,GND*%
X207901200Y-134270000D03*
%TD*%
D25*
%TO.P,U2,1,VDD2A_1*%
%TO.N,3V3*%
X198006600Y-107506600D03*
%TO.P,U2,2,LED2/\u002ANINTSEL_2*%
%TO.N,LED2*%
X198006600Y-108006599D03*
%TO.P,U2,3,LED1/\u002AREGOFF_3*%
%TO.N,LED1*%
X198006600Y-108506600D03*
%TO.P,U2,4,XTAL2_4*%
%TO.N,Net-(U2-XTAL2)*%
X198006600Y-109006600D03*
%TO.P,U2,5,XTAL1/CLKIN_5*%
%TO.N,Net-(U2-XTAL1{slash}CLKIN)*%
X198006600Y-109506601D03*
%TO.P,U2,6,VDDCR_6*%
%TO.N,Net-(U2-VDDCR)*%
X198006600Y-110006600D03*
D26*
%TO.P,U2,7,RXD1/\u002AMODE1_7*%
%TO.N,PT58B*%
X197250000Y-110763200D03*
%TO.P,U2,8,RXD0/\u002AMODE0_8*%
%TO.N,PT58A*%
X196750001Y-110763200D03*
%TO.P,U2,9,VDDIO_9*%
%TO.N,3V3*%
X196250000Y-110763200D03*
%TO.P,U2,10,RXER/\u002APHYAD0_10*%
%TO.N,GND*%
X195750000Y-110763200D03*
%TO.P,U2,11,CRS_DV/\u002AMODE2_11*%
%TO.N,PT56B*%
X195249999Y-110763200D03*
%TO.P,U2,12,MDIO_12*%
%TO.N,PT69B*%
X194750000Y-110763200D03*
D25*
%TO.P,U2,13,MDC_13*%
%TO.N,PT69A*%
X193993400Y-110006600D03*
%TO.P,U2,14,NINT/REFCLKO_14*%
%TO.N,PT71A*%
X193993400Y-109506601D03*
%TO.P,U2,15,NRST_15*%
%TO.N,Net-(U2-NRST)*%
X193993400Y-109006600D03*
%TO.P,U2,16,TXEN_16*%
%TO.N,PT56A*%
X193993400Y-108506600D03*
%TO.P,U2,17,TXD0_17*%
%TO.N,PT35A*%
X193993400Y-108006599D03*
%TO.P,U2,18,TXD1_18*%
%TO.N,PT35B*%
X193993400Y-107506600D03*
D26*
%TO.P,U2,19,VDD1A_19*%
%TO.N,3V3*%
X194750000Y-106750000D03*
%TO.P,U2,20,TXN_20*%
%TO.N,TXN*%
X195249999Y-106750000D03*
%TO.P,U2,21,TXP_21*%
%TO.N,TXP*%
X195750000Y-106750000D03*
%TO.P,U2,22,RXN_22*%
%TO.N,RXN*%
X196250000Y-106750000D03*
%TO.P,U2,23,RXP_23*%
%TO.N,RXP*%
X196750001Y-106750000D03*
%TO.P,U2,24,RBIAS_24*%
%TO.N,Net-(U2-RBIAS)*%
X197250000Y-106750000D03*
D27*
%TO.P,U2,25,EPAD_25*%
%TO.N,unconnected-(U2-EPAD-Pad25)*%
X196000000Y-108756600D03*
%TD*%
D24*
%TO.P,R88,1*%
%TO.N,CFG_2*%
X158411200Y-100660000D03*
%TO.P,R88,2*%
%TO.N,3V3*%
X159528800Y-100660000D03*
%TD*%
%TO.P,R89,1*%
%TO.N,3V3*%
X159658800Y-99310000D03*
%TO.P,R89,2*%
%TO.N,CFG_1*%
X158541200Y-99310000D03*
%TD*%
D28*
%TO.P,C4,1*%
%TO.N,GND*%
X198660000Y-112854000D03*
%TO.P,C4,2*%
%TO.N,Net-(U2-VDDCR)*%
X198660000Y-112410000D03*
%TD*%
D29*
%TO.N,RXP*%
X197750000Y-105250000D03*
%TO.N,RXN*%
X196750000Y-105000000D03*
D30*
%TO.N,GND*%
X142300000Y-109200000D03*
X147470000Y-107360000D03*
D29*
X153000000Y-117800000D03*
D30*
X127470000Y-92580000D03*
X201280000Y-118030000D03*
X151530000Y-104940000D03*
X145110000Y-103340000D03*
X197100000Y-112740000D03*
X207960000Y-135030000D03*
D29*
X149500000Y-118100000D03*
X151720000Y-110500000D03*
D30*
X215400000Y-128900000D03*
X151490000Y-58330000D03*
X198660000Y-112880000D03*
X144280000Y-104150000D03*
X150130000Y-108110000D03*
%TO.N,1V8*%
X123810000Y-131210000D03*
X143475000Y-104141020D03*
X147150000Y-135990000D03*
X143330000Y-135990000D03*
X179340000Y-136260000D03*
X141590000Y-109900000D03*
D29*
X182100000Y-133230000D03*
X146900000Y-115270000D03*
D30*
X144490000Y-115000000D03*
X179310000Y-134680000D03*
%TO.N,PL35D*%
X132040000Y-114000000D03*
X146300000Y-109658751D03*
X139520000Y-110150000D03*
X143660000Y-109590000D03*
X146710000Y-107330000D03*
%TO.N,Net-(U5-VDD)*%
X151000000Y-129100000D03*
%TO.N,Net-(U5-~{RST})*%
X148500000Y-127500000D03*
%TO.N,3V3*%
X141900000Y-103350001D03*
X199070000Y-107520000D03*
X169200000Y-100000000D03*
X168852000Y-90222600D03*
X146690000Y-99330000D03*
X170260000Y-92340000D03*
D29*
X204040000Y-131760000D03*
D30*
X141910000Y-100910000D03*
X136700000Y-116400000D03*
X196350000Y-111640000D03*
X194750000Y-105750000D03*
X151270000Y-98690000D03*
%TO.N,Net-(U1C-PR32B)*%
X143490000Y-97780000D03*
%TO.N,Net-(U1C-PR32C)*%
X144700000Y-96000000D03*
%TO.N,Net-(U1C-PR32D)*%
X145110000Y-97750000D03*
%TO.N,VCCAUX*%
X136940000Y-105680000D03*
X141900000Y-100110000D03*
%TO.N,Net-(U1H-TDI)*%
X148290000Y-100150000D03*
%TO.N,PT49A*%
X207665000Y-86365000D03*
X139510000Y-102520000D03*
X210750000Y-83280000D03*
%TO.N,PT49B*%
X207700000Y-85350000D03*
X140280000Y-102560000D03*
%TO.N,PT42A*%
X140338750Y-103322000D03*
X207800000Y-84250000D03*
%TO.N,PT42B*%
X207700000Y-82050000D03*
X139490000Y-103360000D03*
%TO.N,PT47A*%
X136900000Y-102525000D03*
X207700000Y-79850000D03*
%TO.N,PT47B*%
X207800000Y-78750000D03*
X138720000Y-102560000D03*
%TO.N,PT44A*%
X218600000Y-83200000D03*
X138745588Y-103329320D03*
X214620000Y-73940000D03*
%TO.N,Net-(U1G-DONE)*%
X155600000Y-102100000D03*
X150390000Y-102150000D03*
X148280000Y-102550000D03*
D29*
%TO.N,2V5*%
X172000000Y-132750000D03*
D30*
%TO.N,Net-(J2-CC1)*%
X209800000Y-134200000D03*
%TO.N,Net-(J2-CC2)*%
X215300000Y-131600000D03*
%TO.N,Net-(U1H-TMS)*%
X150100000Y-100550000D03*
%TO.N,Net-(U1H-TDO)*%
X145880000Y-100940000D03*
%TO.N,Net-(U1H-TCK)*%
X150000000Y-101355000D03*
D29*
%TO.N,1V2*%
X193400000Y-131800000D03*
D30*
X153500000Y-95860000D03*
X153455000Y-103065000D03*
X165870000Y-110340000D03*
X153460000Y-99620000D03*
X154430000Y-93100000D03*
%TO.N,PROGRAM*%
X165080000Y-105790000D03*
%TO.N,Net-(U1A-PT13B)*%
X133640000Y-102710000D03*
%TO.N,Net-(U1A-PT13A)*%
X134560000Y-102660000D03*
%TO.N,PT44B*%
X128140000Y-46410000D03*
X127220000Y-43010000D03*
X125150000Y-98740000D03*
X126070000Y-83360000D03*
X168550000Y-45250000D03*
X137920000Y-103360000D03*
X120900000Y-39910000D03*
%TO.N,Net-(U2-XTAL2)*%
X199400000Y-111220000D03*
X199110000Y-109140000D03*
X198928500Y-121500000D03*
%TO.N,CCLK*%
X161400000Y-89700000D03*
X146710000Y-102550000D03*
%TO.N,MISO*%
X161200000Y-92000000D03*
X156230000Y-103640000D03*
%TO.N,MOSI*%
X165930000Y-101800000D03*
X150100000Y-102950000D03*
%TO.N,Net-(U1C-PR20D)*%
X129710000Y-44820000D03*
X125470000Y-77360000D03*
%TO.N,Net-(U1C-PR20C)*%
X141900000Y-97700000D03*
%TO.N,Net-(U1C-PR20B)*%
X142700000Y-99360000D03*
%TO.N,Net-(U1C-PR20A)*%
X143500000Y-99300000D03*
X135860000Y-99790000D03*
X127300000Y-98560000D03*
X126880000Y-84110000D03*
X128830000Y-77010000D03*
X130300000Y-100250000D03*
%TO.N,Net-(U1C-PR17D)*%
X141110000Y-97750000D03*
X141110000Y-95870000D03*
%TO.N,Net-(U1C-PR17C)*%
X141880000Y-99360000D03*
%TO.N,Net-(U1C-PR17B)*%
X140300000Y-97740000D03*
X140350000Y-95010000D03*
%TO.N,Net-(U1C-PR17A)*%
X139900000Y-96000000D03*
%TO.N,Net-(U1C-PR14D)*%
X123460000Y-84070000D03*
X141925000Y-98555394D03*
%TO.N,Net-(U1C-PR14C)*%
X140300000Y-98530000D03*
%TO.N,Net-(U1C-PR14B)*%
X138710000Y-96930000D03*
%TO.N,Net-(U1C-PR14A)*%
X139100000Y-95900000D03*
%TO.N,Net-(U1C-PR11B)*%
X137880000Y-96940000D03*
%TO.N,Net-(U1C-PR11A)*%
X137874999Y-96125000D03*
%TO.N,Net-(U2-XTAL1{slash}CLKIN)*%
X196520500Y-121600000D03*
%TO.N,Net-(U1A-PT11B)*%
X137900000Y-106520000D03*
%TO.N,Net-(U1A-PT11A)*%
X138680000Y-106570000D03*
%TO.N,Net-(U1G-~{INIT})*%
X145920000Y-97770000D03*
%TO.N,VCC*%
X145110000Y-101760000D03*
X142700000Y-102550000D03*
X142685000Y-103385000D03*
D29*
%TO.N,Net-(U2-RBIAS)*%
X198500000Y-103000000D03*
D30*
%TO.N,Net-(U1A-PT4A)*%
X136807091Y-107755843D03*
X132900000Y-113300000D03*
%TO.N,PT71A*%
X192740000Y-109670000D03*
X137990000Y-132880000D03*
X121050000Y-101470000D03*
%TO.N,PT35A*%
X137904882Y-100980450D03*
X190460000Y-107760000D03*
X135570000Y-102700000D03*
%TO.N,PT58A*%
X211120000Y-121400000D03*
X137876397Y-100137431D03*
X197750000Y-113330000D03*
X202100000Y-116220000D03*
%TO.N,PT35B*%
X122320000Y-132610000D03*
X193520000Y-107090000D03*
%TO.N,PT58B*%
X212410000Y-121620000D03*
X197540000Y-111630000D03*
X138660000Y-100120000D03*
X208470000Y-117040000D03*
%TO.N,PT56A*%
X191880000Y-106370000D03*
X191870000Y-107760000D03*
X193250000Y-108506600D03*
X139500531Y-100925000D03*
%TO.N,PT69A*%
X139520000Y-100130000D03*
X193993400Y-110580000D03*
%TO.N,PT56B*%
X195220000Y-111750000D03*
X210090000Y-121500000D03*
X140275000Y-100925000D03*
X201220000Y-116720000D03*
%TO.N,PT69B*%
X140310000Y-100125000D03*
X194460000Y-112180000D03*
%TO.N,PL38B*%
X144330000Y-104980000D03*
X145680000Y-113940000D03*
%TO.N,PL41C*%
X146000000Y-112000000D03*
X145100000Y-107370000D03*
X145580000Y-113140000D03*
D29*
X146900000Y-116000000D03*
D30*
%TO.N,Net-(U1G-VCCIO8)*%
X145900000Y-104170000D03*
%TO.N,PL41D*%
X145860000Y-107350000D03*
D29*
X146500000Y-114270000D03*
D30*
%TO.N,PL44C*%
X156120000Y-109470000D03*
D29*
X156120000Y-111870001D03*
%TO.N,PL41A*%
X151200000Y-117625000D03*
D30*
X149765000Y-109735000D03*
%TO.N,CFG_0*%
X157680000Y-98090000D03*
D29*
%TO.N,PL44A*%
X147000000Y-113220000D03*
D30*
X148340000Y-109170000D03*
%TO.N,PL41B*%
X145750000Y-114690000D03*
X147475000Y-108175000D03*
X143940000Y-110430000D03*
X146020000Y-110820000D03*
D29*
%TO.N,PL62A*%
X154500000Y-110400000D03*
D30*
X147510000Y-106560000D03*
%TO.N,CFG_1*%
X157560000Y-99420000D03*
D29*
%TO.N,PL44B*%
X148574999Y-110600000D03*
D30*
X149210000Y-109250000D03*
%TO.N,PL62B*%
X148300000Y-106530000D03*
D29*
X155500000Y-110500000D03*
D30*
%TO.N,CFG_2*%
X157560000Y-100630000D03*
%TD*%
%TO.N,PL41B*%
D31*
X143940000Y-110430000D02*
X143660000Y-110710000D01*
X143660000Y-110710000D02*
X143660000Y-112850000D01*
X143660000Y-112850000D02*
X145500000Y-114690000D01*
X145500000Y-114690000D02*
X145750000Y-114690000D01*
%TO.N,PL38B*%
X145680000Y-113940000D02*
X145390000Y-113940000D01*
X145390000Y-113940000D02*
X144440000Y-112990000D01*
X144440000Y-112990000D02*
X144440000Y-105510000D01*
X144440000Y-105510000D02*
X144170000Y-105510000D01*
X144170000Y-105510000D02*
X144330000Y-105350000D01*
X144330000Y-105350000D02*
X144330000Y-104980000D01*
%TO.N,PL41C*%
X145580000Y-113140000D02*
X145410000Y-113140000D01*
X145410000Y-113140000D02*
X145300000Y-113030000D01*
X145300000Y-113030000D02*
X145300000Y-107500000D01*
X145300000Y-107500000D02*
X145170000Y-107370000D01*
X145170000Y-107370000D02*
X145100000Y-107370000D01*
%TO.N,PT56B*%
X195220000Y-111750000D02*
X195220000Y-111619998D01*
X195220000Y-111619998D02*
X195249999Y-111589999D01*
X195249999Y-111589999D02*
X195249999Y-110763200D01*
%TO.N,PT69B*%
D32*
X194750000Y-111890000D02*
X194460000Y-112180000D01*
X194750000Y-110763200D02*
X194750000Y-111890000D01*
%TO.N,PT56B*%
D31*
X201950000Y-116720000D02*
X206730000Y-121500000D01*
X201220000Y-116720000D02*
X201950000Y-116720000D01*
X206730000Y-121500000D02*
X210090000Y-121500000D01*
%TO.N,Net-(U2-XTAL2)*%
X198928500Y-121500000D02*
X199340001Y-121088499D01*
X199461501Y-121088499D02*
X201655000Y-118895000D01*
X199340001Y-121088499D02*
X199461501Y-121088499D01*
X201655000Y-118895000D02*
X201655000Y-117874669D01*
X201655000Y-117874669D02*
X201435331Y-117655000D01*
X201435331Y-117655000D02*
X201164412Y-117655000D01*
X201164412Y-117655000D02*
X200590000Y-117080588D01*
X200590000Y-117080588D02*
X200590000Y-113460000D01*
X200590000Y-113460000D02*
X199230000Y-112100000D01*
X199230000Y-111390000D02*
X199400000Y-111220000D01*
X199230000Y-112100000D02*
X199230000Y-111390000D01*
%TO.N,PL35D*%
X143660000Y-109590000D02*
X143420000Y-109590000D01*
X143420000Y-109590000D02*
X142420000Y-110590000D01*
X142420000Y-110590000D02*
X139960000Y-110590000D01*
X139960000Y-110590000D02*
X139520000Y-110150000D01*
%TO.N,PL41B*%
X146020000Y-110820000D02*
X146020000Y-110660000D01*
X146020000Y-110660000D02*
X147475000Y-109205000D01*
X147475000Y-109205000D02*
X147475000Y-108175000D01*
%TO.N,TXP*%
D32*
X202780000Y-104305000D02*
X202780000Y-103116852D01*
X195750000Y-104750000D02*
X195750000Y-106750000D01*
X198100000Y-102400000D02*
X195750000Y-104750000D01*
X202063148Y-102400000D02*
X198100000Y-102400000D01*
X202780000Y-103116852D02*
X202063148Y-102400000D01*
%TO.N,TXN*%
X202228833Y-102000000D02*
X197750000Y-102000000D01*
X203750000Y-103521167D02*
X202228833Y-102000000D01*
X201680000Y-105325000D02*
X203068148Y-105325000D01*
X203068148Y-105325000D02*
X203750000Y-104643148D01*
X197750000Y-102000000D02*
X195249999Y-104500001D01*
X195249999Y-104500001D02*
X195249999Y-106750000D01*
X203750000Y-104643148D02*
X203750000Y-103521167D01*
%TO.N,RXP*%
X196700000Y-106300000D02*
X196700000Y-106699999D01*
X197750000Y-105250000D02*
X196700000Y-106300000D01*
X196700000Y-106699999D02*
X196750001Y-106750000D01*
%TO.N,RXN*%
X196250000Y-105750000D02*
X196750000Y-105250000D01*
X196250000Y-106750000D02*
X196250000Y-105750000D01*
X196750000Y-105250000D02*
X196750000Y-105000000D01*
%TO.N,GND*%
D31*
X152030000Y-113050000D02*
X152030000Y-112579999D01*
X144845000Y-104975000D02*
X144855331Y-104975000D01*
X207901200Y-134270000D02*
X207901200Y-134971200D01*
X153500000Y-117800000D02*
X153800000Y-117500000D01*
X127470000Y-92580000D02*
X120540000Y-99510000D01*
X152221752Y-113050000D02*
X152030000Y-113050000D01*
D32*
X157750000Y-126000000D02*
X157750000Y-123460000D01*
D31*
X124230000Y-136835000D02*
X147230000Y-136835000D01*
X152720000Y-113941752D02*
X152245000Y-113466752D01*
D32*
X215400000Y-129559450D02*
X215232500Y-129726950D01*
D31*
X144320000Y-104244667D02*
X144700001Y-104624668D01*
X144700001Y-104624668D02*
X144700001Y-104830001D01*
D32*
X196790000Y-112740000D02*
X197100000Y-112740000D01*
D31*
X147760000Y-104650000D02*
X151240000Y-104650000D01*
X143500000Y-105750001D02*
X143100000Y-106150001D01*
X144700001Y-104830001D02*
X144845000Y-104975000D01*
X146440000Y-106550000D02*
X145860000Y-106550000D01*
X144209697Y-104220303D02*
X143850000Y-104220303D01*
D32*
X153600000Y-118400000D02*
X157750000Y-122550000D01*
D31*
X124230000Y-135420000D02*
X124230000Y-136835000D01*
X144280000Y-104150000D02*
X144209697Y-104220303D01*
X145075000Y-105194669D02*
X145075000Y-105205000D01*
X152045001Y-58885001D02*
X151490000Y-58330000D01*
D32*
X215400000Y-128900000D02*
X215400000Y-129559450D01*
D31*
X120540000Y-99510000D02*
X120540000Y-131730000D01*
X145270000Y-106550000D02*
X145860000Y-106550000D01*
X153800000Y-114652944D02*
X153088808Y-113941752D01*
X144280000Y-104150000D02*
X144320000Y-104190000D01*
D32*
X152000000Y-118400000D02*
X153600000Y-118400000D01*
D31*
X143715000Y-105074412D02*
X143500000Y-105289412D01*
X198660000Y-112854000D02*
X198660000Y-112880000D01*
X146725000Y-106835000D02*
X146440000Y-106550000D01*
X142300000Y-108510000D02*
X142300000Y-109200000D01*
X124230000Y-135420000D02*
X126900000Y-132750000D01*
X156380000Y-136835000D02*
X157750000Y-135465000D01*
X151450000Y-110500000D02*
X151720000Y-110500000D01*
X120540000Y-131730000D02*
X124230000Y-135420000D01*
D32*
X157750000Y-131080000D02*
X157750000Y-128540000D01*
X157750000Y-122550000D02*
X157750000Y-123460000D01*
X152400000Y-118400000D02*
X152000000Y-118400000D01*
D31*
X143850000Y-104220303D02*
X143850000Y-104296350D01*
X198660000Y-115490000D02*
X201240000Y-118070000D01*
D32*
X157750000Y-133620000D02*
X157750000Y-131080000D01*
D31*
X150130000Y-108110000D02*
X150000000Y-108240000D01*
X153800000Y-117500000D02*
X153800000Y-114652944D01*
D32*
X157750000Y-128540000D02*
X157750000Y-126000000D01*
D31*
X147470000Y-107264140D02*
X147040860Y-106835000D01*
X150450000Y-118400000D02*
X152000000Y-118400000D01*
X151240000Y-104650000D02*
X151530000Y-104940000D01*
X198660000Y-112880000D02*
X198660000Y-115490000D01*
X145690000Y-82730000D02*
X152045001Y-76374999D01*
X150000000Y-108240000D02*
X150000000Y-109050000D01*
X145860000Y-106550000D02*
X147760000Y-104650000D01*
X157750000Y-123460000D02*
X157750000Y-122530000D01*
X152030000Y-112579999D02*
X151720000Y-112269999D01*
X143850000Y-104296350D02*
X143715000Y-104431350D01*
X147040860Y-106835000D02*
X146725000Y-106835000D01*
X150150000Y-118100000D02*
X150450000Y-118400000D01*
X144855331Y-104975000D02*
X145075000Y-105194669D01*
X147230000Y-136835000D02*
X156380000Y-136835000D01*
X126900000Y-132750000D02*
X133200000Y-132750000D01*
X145075000Y-105205000D02*
X145270000Y-105400000D01*
X148250000Y-135815000D02*
X147230000Y-136835000D01*
X152245000Y-113073248D02*
X152221752Y-113050000D01*
X143715000Y-104431350D02*
X143715000Y-105074412D01*
X152245000Y-113466752D02*
X152245000Y-113073248D01*
X143100000Y-106150001D02*
X143100000Y-107710000D01*
X152045001Y-76374999D02*
X152045001Y-58885001D01*
X143500000Y-105289412D02*
X143500000Y-105750001D01*
X144320000Y-104190000D02*
X144320000Y-104244667D01*
D32*
X153000000Y-117800000D02*
X152400000Y-118400000D01*
X195750000Y-110763200D02*
X195750000Y-111700000D01*
D31*
X153088808Y-113941752D02*
X152720000Y-113941752D01*
X150000000Y-109050000D02*
X151450000Y-110500000D01*
X151720000Y-112269999D02*
X151720000Y-110500000D01*
X153000000Y-117800000D02*
X153500000Y-117800000D01*
X150150000Y-118100000D02*
X149500000Y-118100000D01*
X145270000Y-105400000D02*
X145270000Y-106550000D01*
X157750000Y-135465000D02*
X157750000Y-133620000D01*
X147470000Y-107360000D02*
X147470000Y-107264140D01*
X143100000Y-107710000D02*
X142300000Y-108510000D01*
D32*
X195750000Y-111700000D02*
X196790000Y-112740000D01*
D31*
X207901200Y-134971200D02*
X207960000Y-135030000D01*
%TO.N,LED2*%
D32*
X199750000Y-105255000D02*
X199750000Y-108000000D01*
X201680000Y-103325000D02*
X199750000Y-105255000D01*
X199493401Y-108006599D02*
X198006600Y-108006599D01*
X199500000Y-108000000D02*
X199493401Y-108006599D01*
X199750000Y-108000000D02*
X199500000Y-108000000D01*
%TO.N,LED1*%
X200100000Y-108400000D02*
X198600000Y-108400000D01*
X202745000Y-112370000D02*
X201296852Y-112370000D01*
X200300000Y-111373148D02*
X200300000Y-108700000D01*
X201296852Y-112370000D02*
X200300000Y-111373148D01*
X200300000Y-108700000D02*
X200224600Y-108624600D01*
X202780000Y-112335000D02*
X202745000Y-112370000D01*
X200224600Y-108524600D02*
X200100000Y-108400000D01*
X198493400Y-108506600D02*
X198006600Y-108506600D01*
X200224600Y-108624600D02*
X200224600Y-108524600D01*
X198600000Y-108400000D02*
X198493400Y-108506600D01*
%TO.N,1V8*%
X180370000Y-122330000D02*
X180370000Y-119790000D01*
X180370000Y-119790000D02*
X180370000Y-117250000D01*
D31*
X143330000Y-135990000D02*
X147150000Y-135990000D01*
D32*
X180370000Y-127410000D02*
X180370000Y-124870000D01*
X180230000Y-133230000D02*
X180000000Y-133000000D01*
X180370000Y-124870000D02*
X180370000Y-122330000D01*
D31*
X146900000Y-115270000D02*
X144760000Y-115270000D01*
X179340000Y-136260000D02*
X179340000Y-134710000D01*
X143475000Y-104141020D02*
X143475000Y-104975000D01*
X143475000Y-104975000D02*
X141590000Y-106860000D01*
D32*
X182100000Y-133230000D02*
X180230000Y-133230000D01*
D31*
X141590000Y-106860000D02*
X141590000Y-109900000D01*
X123810000Y-131210000D02*
X124360000Y-130660000D01*
D32*
X180370000Y-132630000D02*
X180370000Y-127410000D01*
D31*
X124360000Y-130660000D02*
X124360000Y-118650000D01*
X179340000Y-134710000D02*
X179310000Y-134680000D01*
D32*
X180000000Y-133000000D02*
X180370000Y-132630000D01*
D31*
X144760000Y-115270000D02*
X144490000Y-115000000D01*
%TO.N,PL35D*%
X146710000Y-107330000D02*
X146700000Y-107340000D01*
X126530000Y-108490000D02*
X124360000Y-108490000D01*
X146700000Y-107340000D02*
X146700000Y-107503414D01*
X146376707Y-107826707D02*
X146376707Y-109582044D01*
X146376707Y-109582044D02*
X146300000Y-109658751D01*
X132040000Y-114000000D02*
X126530000Y-108490000D01*
X146700000Y-107503414D02*
X146376707Y-107826707D01*
%TO.N,Net-(U5-VDD)*%
X151000000Y-129100000D02*
X151000000Y-128250000D01*
X153610000Y-125640000D02*
X153610000Y-122170000D01*
X151000000Y-128250000D02*
X153610000Y-125640000D01*
%TO.N,Net-(U5-~{RST})*%
X148500000Y-127500000D02*
X148500000Y-127220000D01*
X148500000Y-127220000D02*
X143450000Y-122170000D01*
%TO.N,3V3*%
X159658800Y-99310000D02*
X159658800Y-99391200D01*
X146580000Y-104160000D02*
X145500000Y-103080000D01*
X145100000Y-99900000D02*
X146120000Y-99900000D01*
X137103615Y-106075000D02*
X137100000Y-106075000D01*
X137100000Y-106075000D02*
X137100000Y-107490137D01*
X159528800Y-99521200D02*
X159528800Y-100660000D01*
X166452600Y-90222600D02*
X167252600Y-90222600D01*
D32*
X196350000Y-111640000D02*
X196300000Y-111590000D01*
X174130000Y-133620000D02*
X162250000Y-133620000D01*
D31*
X171180000Y-89250000D02*
X172200000Y-90270000D01*
X137209669Y-107990000D02*
X137131549Y-107990000D01*
X137270000Y-105350000D02*
X136710000Y-104790000D01*
X136710000Y-104790000D02*
X137100000Y-105180000D01*
X141974999Y-100974999D02*
X141910000Y-100910000D01*
D32*
X198006600Y-107506600D02*
X199056600Y-107506600D01*
D31*
X137655331Y-108125000D02*
X137344669Y-108125000D01*
X145500000Y-101830331D02*
X145575000Y-101755331D01*
X170260000Y-92210000D02*
X172200000Y-90270000D01*
X137119863Y-107510000D02*
X137209669Y-107510000D01*
X137100000Y-108021549D02*
X137100000Y-115380000D01*
X169200000Y-101139669D02*
X169200000Y-100000000D01*
D32*
X162250000Y-126000000D02*
X162250000Y-123460000D01*
D31*
X170260000Y-92340000D02*
X170260000Y-92210000D01*
X137344669Y-108125000D02*
X137209669Y-107990000D01*
X165557600Y-91117600D02*
X166452600Y-90222600D01*
X144300000Y-100974999D02*
X141974999Y-100974999D01*
X137344669Y-107375000D02*
X137655331Y-107375000D01*
X137100000Y-105180000D02*
X137100000Y-105285000D01*
D32*
X162250000Y-128540000D02*
X162250000Y-126000000D01*
D31*
X159728800Y-99240000D02*
X159658800Y-99310000D01*
X137335000Y-105516385D02*
X137335000Y-105843615D01*
D32*
X194750000Y-105750000D02*
X194750000Y-106750000D01*
D31*
X137103615Y-105285000D02*
X137335000Y-105516385D01*
X167220000Y-90190000D02*
X167252600Y-90222600D01*
D32*
X196300000Y-110813200D02*
X196250000Y-110763200D01*
D31*
X159728800Y-98170000D02*
X159728800Y-99240000D01*
X158842400Y-91117600D02*
X165557600Y-91117600D01*
D32*
X199056600Y-107506600D02*
X199070000Y-107520000D01*
D31*
X145500000Y-101130330D02*
X145344669Y-100974999D01*
X146120000Y-99900000D02*
X146690000Y-99330000D01*
X137131549Y-107990000D02*
X137100000Y-108021549D01*
D32*
X204000000Y-133070401D02*
X203740401Y-133330000D01*
D31*
X169200000Y-100000000D02*
X169200000Y-99960000D01*
D32*
X196300000Y-111590000D02*
X196300000Y-110813200D01*
D31*
X137655331Y-107375000D02*
X137875000Y-107594669D01*
X159658800Y-99391200D02*
X159528800Y-99521200D01*
D32*
X175080000Y-133830000D02*
X174500000Y-133250000D01*
D31*
X136700000Y-115780000D02*
X136700000Y-116400000D01*
X141900000Y-103350001D02*
X139900001Y-105350000D01*
X167252600Y-90222600D02*
X168852000Y-90222600D01*
X137100000Y-105285000D02*
X137103615Y-105285000D01*
X162250000Y-108089669D02*
X169200000Y-101139669D01*
X137100000Y-115380000D02*
X136700000Y-115780000D01*
X145500000Y-103080000D02*
X145500000Y-101830331D01*
D32*
X174500000Y-133250000D02*
X174130000Y-133620000D01*
D31*
X151270000Y-98690000D02*
X158842400Y-91117600D01*
D32*
X162250000Y-131080000D02*
X162250000Y-128540000D01*
D31*
X159728800Y-97681200D02*
X167220000Y-90190000D01*
X145500000Y-101369669D02*
X145500000Y-101130330D01*
X137100000Y-107490137D02*
X137119863Y-107510000D01*
X146580000Y-104920000D02*
X146200000Y-105300000D01*
X145575000Y-101444669D02*
X145500000Y-101369669D01*
X137875000Y-107905331D02*
X137655331Y-108125000D01*
X145100000Y-99900000D02*
X144300000Y-100700000D01*
X145575000Y-101755331D02*
X145575000Y-101444669D01*
X137335000Y-105843615D02*
X137103615Y-106075000D01*
D32*
X186500000Y-133250000D02*
X185920000Y-133830000D01*
D31*
X162250000Y-123460000D02*
X162250000Y-108089669D01*
X171180000Y-86820000D02*
X171180000Y-89250000D01*
X145344669Y-100974999D02*
X144300000Y-100974999D01*
D32*
X186580000Y-133330000D02*
X186500000Y-133250000D01*
X162250000Y-133620000D02*
X162250000Y-131080000D01*
X204040000Y-131760000D02*
X204000000Y-131800000D01*
D31*
X146580000Y-104160000D02*
X146580000Y-104920000D01*
D32*
X194750000Y-105750000D02*
X191000000Y-102000000D01*
X203740401Y-133330000D02*
X186580000Y-133330000D01*
D31*
X144300000Y-100700000D02*
X144300000Y-100974999D01*
D32*
X204000000Y-131800000D02*
X204000000Y-133070401D01*
X185920000Y-133830000D02*
X175080000Y-133830000D01*
D31*
X137209669Y-107510000D02*
X137344669Y-107375000D01*
X159728800Y-98170000D02*
X159728800Y-97681200D01*
X139900001Y-105350000D02*
X137270000Y-105350000D01*
X137875000Y-107594669D02*
X137875000Y-107905331D01*
%TO.N,Net-(U1C-PR32B)*%
X145670000Y-90220000D02*
X145670000Y-89450000D01*
X143525000Y-92365000D02*
X145670000Y-90220000D01*
X143490000Y-97780000D02*
X143500000Y-97770000D01*
X143500000Y-97770000D02*
X143500000Y-97000000D01*
X143525000Y-96975000D02*
X143525000Y-92365000D01*
X143500000Y-97000000D02*
X143525000Y-96975000D01*
%TO.N,Net-(U1C-PR32C)*%
X144700000Y-92960000D02*
X148210000Y-89450000D01*
X144700000Y-96000000D02*
X144700000Y-92960000D01*
%TO.N,Net-(U1C-PR32D)*%
X145200000Y-94999999D02*
X150749999Y-89450000D01*
X145200000Y-96850000D02*
X145200000Y-94999999D01*
X145110000Y-97750000D02*
X145110000Y-96940000D01*
X145110000Y-96940000D02*
X145200000Y-96850000D01*
%TO.N,VCCAUX*%
X141075000Y-103835589D02*
X140280589Y-104630000D01*
X140280589Y-104630000D02*
X136889412Y-104630000D01*
X136470000Y-105210000D02*
X136940000Y-105680000D01*
X136470000Y-104690588D02*
X136470000Y-105210000D01*
X141344669Y-100175000D02*
X141075000Y-100444669D01*
X136889412Y-104630000D02*
X136809412Y-104550000D01*
X136610588Y-104550000D02*
X136470000Y-104690588D01*
X141835000Y-100175000D02*
X141344669Y-100175000D01*
X136809412Y-104550000D02*
X136610588Y-104550000D01*
X141075000Y-100444669D02*
X141075000Y-103835589D01*
X141900000Y-100110000D02*
X141835000Y-100175000D01*
%TO.N,Net-(U1G-DONE)*%
D32*
X167730172Y-99420000D02*
X165170000Y-101980172D01*
X178090000Y-101090000D02*
X177580000Y-101600000D01*
X148680000Y-102150000D02*
X150390000Y-102150000D01*
X179930000Y-94560000D02*
X178090000Y-96400000D01*
X179930000Y-86130000D02*
X179930000Y-94560000D01*
X165170000Y-102040000D02*
X165110000Y-102100000D01*
X148280000Y-102550000D02*
X148680000Y-102150000D01*
X178090000Y-96400000D02*
X178090000Y-101090000D01*
X175400000Y-99420000D02*
X167730172Y-99420000D01*
X165110000Y-102100000D02*
X155600000Y-102100000D01*
X165170000Y-101980172D02*
X165170000Y-102040000D01*
X177580000Y-101600000D02*
X175400000Y-99420000D01*
%TO.N,2V5*%
X170440000Y-132750000D02*
X170210000Y-132520000D01*
X170210000Y-119350000D02*
X170210000Y-116810000D01*
X170210000Y-132520000D02*
X170210000Y-126970000D01*
X172000000Y-132750000D02*
X170440000Y-132750000D01*
X170210000Y-121890000D02*
X170210000Y-119350000D01*
X170210000Y-126970000D02*
X170210000Y-124430000D01*
X170210000Y-124430000D02*
X170210000Y-121890000D01*
%TO.N,Net-(J2-CC1)*%
X209088800Y-134200000D02*
X209018800Y-134270000D01*
X209800000Y-134200000D02*
X209088800Y-134200000D01*
%TO.N,Net-(J2-CC2)*%
X215232500Y-130844550D02*
X215232500Y-131532500D01*
X215232500Y-131532500D02*
X215300000Y-131600000D01*
%TO.N,Net-(J2-SHIELD-PadSH1)*%
X219335001Y-136380001D02*
X215540000Y-136380001D01*
X215540000Y-136380001D02*
X212400001Y-136380001D01*
X219375000Y-126770000D02*
X219375000Y-136420000D01*
X219375000Y-136420000D02*
X219335001Y-136380001D01*
X212400001Y-126479999D02*
X211825000Y-127055000D01*
X215540000Y-126479999D02*
X219084999Y-126479999D01*
X219084999Y-126479999D02*
X219375000Y-126770000D01*
X215540000Y-126479999D02*
X212400001Y-126479999D01*
X212400001Y-136380001D02*
X211825000Y-135805000D01*
%TO.N,1V2*%
D31*
X165870000Y-110340000D02*
X181230000Y-110340000D01*
D32*
X191000000Y-132000000D02*
X191000000Y-127120000D01*
X191000000Y-127120000D02*
X191000000Y-124580000D01*
D31*
X154430000Y-93100000D02*
X154430000Y-94930000D01*
X153460000Y-102480000D02*
X153220000Y-102720000D01*
D32*
X190730000Y-132730000D02*
X190500000Y-132500000D01*
X191000000Y-119500000D02*
X191000000Y-116960000D01*
D31*
X153220000Y-102720000D02*
X153220000Y-102830000D01*
X154430000Y-94930000D02*
X153500000Y-95860000D01*
D32*
X191000000Y-124580000D02*
X191000000Y-122040000D01*
X192470000Y-132730000D02*
X190730000Y-132730000D01*
D31*
X153220000Y-102830000D02*
X153455000Y-103065000D01*
X153460000Y-99620000D02*
X153460000Y-102480000D01*
D32*
X190500000Y-132500000D02*
X191000000Y-132000000D01*
D31*
X187850000Y-116960000D02*
X191000000Y-116960000D01*
D32*
X193400000Y-131800000D02*
X192470000Y-132730000D01*
X191000000Y-122040000D02*
X191000000Y-119500000D01*
D31*
X181230000Y-110340000D02*
X187850000Y-116960000D01*
%TO.N,PROGRAM*%
X172200000Y-100430000D02*
X170440000Y-100430000D01*
X170440000Y-100430000D02*
X165080000Y-105790000D01*
%TO.N,Net-(U1A-PT13B)*%
X133640000Y-102710000D02*
X130810000Y-99880000D01*
X130810000Y-99880000D02*
X130810000Y-96930000D01*
%TO.N,Net-(U1A-PT13A)*%
X134560000Y-98130000D02*
X130820000Y-94390000D01*
X130820000Y-94390000D02*
X130810000Y-94390000D01*
X134560000Y-102660000D02*
X134560000Y-98130000D01*
%TO.N,PT44B*%
X168550000Y-58410000D02*
X168550000Y-45250000D01*
X125095000Y-54265280D02*
X125095000Y-80715588D01*
X128140000Y-46410000D02*
X128140000Y-51220280D01*
X126070000Y-81690588D02*
X126070000Y-83360000D01*
X189640000Y-79500000D02*
X168550000Y-58410000D01*
X125150000Y-101700000D02*
X125150000Y-98740000D01*
X125095000Y-80715588D02*
X126070000Y-81690588D01*
X124000000Y-43010000D02*
X127220000Y-43010000D01*
X137920000Y-103360000D02*
X137898253Y-103360000D01*
X137693252Y-103154999D02*
X126604999Y-103154999D01*
X128140000Y-51220280D02*
X125095000Y-54265280D01*
X126604999Y-103154999D02*
X125150000Y-101700000D01*
X120900000Y-39910000D02*
X124000000Y-43010000D01*
X137898253Y-103360000D02*
X137693252Y-103154999D01*
%TO.N,Net-(U2-XTAL2)*%
D32*
X198006600Y-109006600D02*
X198976600Y-109006600D01*
X198976600Y-109006600D02*
X199110000Y-109140000D01*
%TO.N,CCLK*%
D31*
X160082600Y-90222600D02*
X156680000Y-86820000D01*
X161400000Y-89700000D02*
X160877400Y-90222600D01*
X147100000Y-102059672D02*
X147100000Y-96340000D01*
X146710000Y-102550000D02*
X146710000Y-102449672D01*
X147100000Y-96340000D02*
X156620000Y-86820000D01*
X160877400Y-90222600D02*
X160082600Y-90222600D01*
X156680000Y-86820000D02*
X161020000Y-86820000D01*
X146710000Y-102449672D02*
X147100000Y-102059672D01*
X156620000Y-86820000D02*
X156680000Y-86820000D01*
%TO.N,MISO*%
X154979412Y-102389412D02*
X156230000Y-103640000D01*
X159430000Y-96960000D02*
X156150000Y-96960000D01*
X156150000Y-96960000D02*
X154979412Y-98130588D01*
X154979412Y-98130588D02*
X154979412Y-102389412D01*
X162640000Y-92000000D02*
X162820000Y-92180000D01*
X162820000Y-93570000D02*
X159430000Y-96960000D01*
X161200000Y-92000000D02*
X162640000Y-92000000D01*
X162820000Y-92180000D02*
X162820000Y-93570000D01*
%TO.N,MOSI*%
X153970000Y-103550000D02*
X154130000Y-103390000D01*
X154130000Y-103390000D02*
X155260000Y-103390000D01*
X152990000Y-103590000D02*
X153030000Y-103550000D01*
X164980000Y-105000000D02*
X165930000Y-104050000D01*
X153030000Y-103550000D02*
X153970000Y-103550000D01*
X152180000Y-103570000D02*
X152200000Y-103590000D01*
X151120000Y-103010000D02*
X151680000Y-103570000D01*
X156870000Y-105000000D02*
X164980000Y-105000000D01*
X150930000Y-103010000D02*
X151120000Y-103010000D01*
X152200000Y-103590000D02*
X152990000Y-103590000D01*
X150100000Y-102950000D02*
X150870000Y-102950000D01*
X155260000Y-103390000D02*
X156870000Y-105000000D01*
X165930000Y-104050000D02*
X165930000Y-101800000D01*
X150870000Y-102950000D02*
X150930000Y-103010000D01*
X151680000Y-103570000D02*
X152180000Y-103570000D01*
%TO.N,Net-(U1C-PR20D)*%
X130570000Y-72260000D02*
X130570000Y-45680000D01*
X125470000Y-77360000D02*
X130570000Y-72260000D01*
X130570000Y-45680000D02*
X129710000Y-44820000D01*
%TO.N,Net-(U1C-PR20C)*%
X143595000Y-48465279D02*
X143595000Y-46964720D01*
X143595000Y-46964720D02*
X144224720Y-46335000D01*
X155795000Y-46335000D02*
X157370000Y-47910000D01*
X141635000Y-97435000D02*
X141635000Y-55835000D01*
X144224720Y-46335000D02*
X155795000Y-46335000D01*
X141635000Y-55835000D02*
X140500000Y-54700000D01*
X141900000Y-97700000D02*
X141635000Y-97435000D01*
X140500000Y-54700000D02*
X140500000Y-51560279D01*
X140500000Y-51560279D02*
X143595000Y-48465279D01*
%TO.N,Net-(U1C-PR20B)*%
X143285000Y-96085000D02*
X142675000Y-95475000D01*
X142639368Y-99299368D02*
X142639368Y-98610631D01*
X148290001Y-54450000D02*
X154830001Y-47910000D01*
X143260000Y-96900589D02*
X143285000Y-96875588D01*
X142675000Y-54965000D02*
X142160000Y-54450000D01*
X142540000Y-98120000D02*
X143115331Y-97544669D01*
X142675000Y-95475000D02*
X142675000Y-54965000D01*
X143125000Y-97544669D02*
X143260000Y-97409669D01*
X142639368Y-98610631D02*
X142540000Y-98511263D01*
X143285000Y-96875588D02*
X143285000Y-96085000D01*
X143260000Y-97409669D02*
X143260000Y-96900589D01*
X142700000Y-99360000D02*
X142639368Y-99299368D01*
X142160000Y-54450000D02*
X148290001Y-54450000D01*
X143115331Y-97544669D02*
X143125000Y-97544669D01*
X142540000Y-98511263D02*
X142540000Y-98120000D01*
%TO.N,Net-(U1C-PR20A)*%
X127300000Y-98560000D02*
X129150000Y-100410000D01*
X141110000Y-99260000D02*
X141585000Y-99735000D01*
X126880000Y-78960000D02*
X126880000Y-84110000D01*
X136390000Y-99260000D02*
X141110000Y-99260000D01*
X128830000Y-77010000D02*
X126880000Y-78960000D01*
X129150000Y-100410000D02*
X130140000Y-100410000D01*
X135860000Y-99790000D02*
X136390000Y-99260000D01*
X141585000Y-99735000D02*
X143065000Y-99735000D01*
X130140000Y-100410000D02*
X130300000Y-100250000D01*
X143065000Y-99735000D02*
X143500000Y-99300000D01*
%TO.N,Net-(U1C-PR17D)*%
X141110000Y-95870000D02*
X141110000Y-97750000D01*
%TO.N,Net-(U1C-PR17C)*%
X141880000Y-99220000D02*
X142254957Y-98845043D01*
X142300000Y-97520000D02*
X143045000Y-96775000D01*
X141320000Y-53920000D02*
X141200000Y-53920000D01*
X143045000Y-96775000D02*
X143045000Y-96184412D01*
X141880000Y-99360000D02*
X141880000Y-99220000D01*
X141200000Y-53920000D02*
X147210000Y-47910000D01*
X141875000Y-94975000D02*
X141875000Y-54475000D01*
X142435000Y-95574412D02*
X142435000Y-95535000D01*
X142435000Y-95535000D02*
X141875000Y-94975000D01*
X142264368Y-98845043D02*
X142300000Y-98809411D01*
X142300000Y-98809411D02*
X142300000Y-97520000D01*
X141875000Y-54475000D02*
X141320000Y-53920000D01*
X143045000Y-96184412D02*
X142435000Y-95574412D01*
X142254957Y-98845043D02*
X142264368Y-98845043D01*
%TO.N,Net-(U1C-PR17B)*%
X140720000Y-97330000D02*
X140720000Y-96925000D01*
X140483535Y-97566465D02*
X140720000Y-97330000D01*
X140325000Y-96705331D02*
X140325000Y-95035000D01*
X140300000Y-97740000D02*
X140300000Y-97650830D01*
X140300000Y-97650830D02*
X140384365Y-97566465D01*
X140325000Y-95035000D02*
X140350000Y-95010000D01*
X140720000Y-96925000D02*
X140544669Y-96925000D01*
X140544669Y-96925000D02*
X140325000Y-96705331D01*
X140384365Y-97566465D02*
X140483535Y-97566465D01*
%TO.N,Net-(U1C-PR17A)*%
X139900000Y-96000000D02*
X139900000Y-50139999D01*
X139900000Y-50139999D02*
X142129999Y-47910000D01*
%TO.N,Net-(U1C-PR14D)*%
X141875394Y-98555394D02*
X141700187Y-98380187D01*
X141700187Y-98380187D02*
X141269813Y-98380187D01*
X140970000Y-99020000D02*
X138410000Y-99020000D01*
X141050000Y-98940000D02*
X140970000Y-99020000D01*
X138410000Y-99020000D02*
X123460000Y-84070000D01*
X141269813Y-98380187D02*
X141050000Y-98600000D01*
X141050000Y-98600000D02*
X141050000Y-98940000D01*
X141925000Y-98555394D02*
X141875394Y-98555394D01*
%TO.N,Net-(U1C-PR14C)*%
X139570000Y-97800000D02*
X139570000Y-97740000D01*
X140300000Y-98530000D02*
X139570000Y-97800000D01*
X132850000Y-81720000D02*
X132710000Y-81580000D01*
X132850000Y-89510588D02*
X132850000Y-81720000D01*
X132710000Y-81580000D02*
X133950000Y-80340000D01*
X138439412Y-95100000D02*
X132850000Y-89510588D01*
X133950000Y-80340000D02*
X133950000Y-50940000D01*
X136980000Y-47910000D02*
X137050000Y-47910000D01*
X139570000Y-97740000D02*
X139475000Y-97645000D01*
X139475000Y-95100000D02*
X138439412Y-95100000D01*
X133950000Y-50940000D02*
X136980000Y-47910000D01*
X139475000Y-97645000D02*
X139475000Y-95100000D01*
%TO.N,Net-(U1C-PR14B)*%
X121710000Y-41180000D02*
X124130000Y-43600000D01*
X121570001Y-49485000D02*
X121364721Y-49485000D01*
X121470000Y-74850000D02*
X121570001Y-74749999D01*
X121364721Y-46335000D02*
X121710000Y-46335000D01*
X137910000Y-97730000D02*
X121470000Y-81290000D01*
X124130000Y-43600000D02*
X130200000Y-43600000D01*
X138720000Y-97730000D02*
X137910000Y-97730000D01*
X120735001Y-48855280D02*
X120735001Y-46964720D01*
X139026064Y-97423936D02*
X138720000Y-97730000D01*
X139026064Y-97326064D02*
X139026064Y-97423936D01*
X121710000Y-46335000D02*
X121710000Y-41180000D01*
X121364721Y-49485000D02*
X120735001Y-48855280D01*
X121570001Y-74749999D02*
X121570001Y-49485000D01*
X130200000Y-43600000D02*
X134510000Y-47910000D01*
X120735001Y-46964720D02*
X121364721Y-46335000D01*
X138710000Y-97010000D02*
X139026064Y-97326064D01*
X138710000Y-96930000D02*
X138710000Y-97010000D01*
X121470000Y-81290000D02*
X121470000Y-74850000D01*
%TO.N,Net-(U1C-PR14A)*%
X131970001Y-88970001D02*
X131970001Y-47910000D01*
X138900000Y-95900000D02*
X131970001Y-88970001D01*
X139100000Y-95900000D02*
X138900000Y-95900000D01*
%TO.N,Net-(U1C-PR11B)*%
X131560331Y-89280000D02*
X130720000Y-89280000D01*
X137964841Y-96855159D02*
X137964841Y-96500000D01*
X137964841Y-96500000D02*
X138030330Y-96500000D01*
X137964841Y-95684510D02*
X131560331Y-89280000D01*
X138030330Y-96500000D02*
X138249999Y-96280331D01*
X138249999Y-96280331D02*
X138249999Y-95969669D01*
X130720000Y-89280000D02*
X125320000Y-83880000D01*
X137880000Y-96940000D02*
X137964841Y-96855159D01*
X125320000Y-83880000D02*
X125320000Y-81280000D01*
X137964841Y-95750000D02*
X137964841Y-95684510D01*
X124350000Y-80310000D02*
X124350000Y-47910000D01*
X138030330Y-95750000D02*
X137964841Y-95750000D01*
X138249999Y-95969669D02*
X138030330Y-95750000D01*
X125320000Y-81280000D02*
X124350000Y-80310000D01*
%TO.N,Net-(U1C-PR11A)*%
X137449999Y-96550000D02*
X137110000Y-96550000D01*
X137110000Y-96550000D02*
X121810001Y-81250001D01*
X121810001Y-81250001D02*
X121810001Y-47910000D01*
X137874999Y-96125000D02*
X137449999Y-96550000D01*
%TO.N,Net-(U2-XTAL1{slash}CLKIN)*%
X198265000Y-113043615D02*
X198265000Y-112716385D01*
X197577200Y-110308600D02*
X197526800Y-110308600D01*
X198420000Y-113198615D02*
X198395385Y-113174000D01*
X197724799Y-109506601D02*
X198006600Y-109506601D01*
X198395385Y-113174000D02*
X198335000Y-113174000D01*
X196520500Y-121600000D02*
X197032001Y-121088499D01*
X198420000Y-112090000D02*
X198420000Y-111151400D01*
X198420000Y-111151400D02*
X197577200Y-110308600D01*
X198335000Y-112646385D02*
X198335000Y-112090000D01*
X197471501Y-121088499D02*
X198730000Y-119830000D01*
X197032001Y-121088499D02*
X197471501Y-121088499D01*
X198420000Y-115589411D02*
X198420000Y-113198615D01*
X198730000Y-119830000D02*
X198730000Y-115899412D01*
X198730000Y-115899412D02*
X198420000Y-115589411D01*
X198335000Y-113174000D02*
X198335000Y-113113615D01*
X198265000Y-112716385D02*
X198335000Y-112646385D01*
X197526800Y-109704600D02*
X197724799Y-109506601D01*
X197526800Y-110308600D02*
X197526800Y-109704600D01*
X198335000Y-113113615D02*
X198265000Y-113043615D01*
X198335000Y-112090000D02*
X198420000Y-112090000D01*
%TO.N,Net-(U1A-PT11B)*%
X138300000Y-106900000D02*
X138300000Y-121880000D01*
X138300000Y-121880000D02*
X137520000Y-122660000D01*
X137990000Y-106590000D02*
X138300000Y-106900000D01*
X137970000Y-106590000D02*
X137990000Y-106590000D01*
X137900000Y-106520000D02*
X137970000Y-106590000D01*
%TO.N,Net-(U1A-PT11A)*%
X140060000Y-115720000D02*
X140060000Y-122660000D01*
X139100000Y-106869668D02*
X139100000Y-114760000D01*
X138800332Y-106570000D02*
X139100000Y-106869668D01*
X138680000Y-106570000D02*
X138800332Y-106570000D01*
X139100000Y-114760000D02*
X140060000Y-115720000D01*
%TO.N,Net-(U1G-~{INIT})*%
X154269999Y-52880001D02*
X155800000Y-52880001D01*
X145920000Y-96469412D02*
X152285001Y-90104411D01*
X152285001Y-90104411D02*
X152285001Y-54864999D01*
X145920000Y-97770000D02*
X145920000Y-96469412D01*
X152285001Y-54864999D02*
X154269999Y-52880001D01*
%TO.N,VCC*%
X142700000Y-102550000D02*
X142639368Y-102489368D01*
X142900000Y-101710000D02*
X143260001Y-101349999D01*
X142685000Y-103385000D02*
X142300000Y-103000000D01*
X144949999Y-101349999D02*
X145110000Y-101510000D01*
X145110000Y-101510000D02*
X145110000Y-101760000D01*
X143260001Y-101349999D02*
X144949999Y-101349999D01*
X142639368Y-102489368D02*
X142639368Y-101810632D01*
X142300000Y-103000000D02*
X142300000Y-102719684D01*
X142469684Y-102550000D02*
X142700000Y-102550000D01*
X142639368Y-101810632D02*
X142740000Y-101710000D01*
X142740000Y-101710000D02*
X142900000Y-101710000D01*
X142300000Y-102719684D02*
X142469684Y-102550000D01*
%TO.N,Net-(U2-NRST)*%
D32*
X183993400Y-109006600D02*
X193993400Y-109006600D01*
X183815795Y-109184205D02*
X183993400Y-109006600D01*
%TO.N,Net-(U2-RBIAS)*%
X198500000Y-106750000D02*
X198750000Y-106500000D01*
X197250000Y-106750000D02*
X198500000Y-106750000D01*
X198750000Y-103250000D02*
X198500000Y-103000000D01*
X198750000Y-106500000D02*
X198750000Y-103250000D01*
%TO.N,Net-(U1A-PT4A)*%
D31*
X133950000Y-110690000D02*
X136807091Y-107832909D01*
X132900000Y-113300000D02*
X133950000Y-112250000D01*
X133950000Y-112250000D02*
X133950000Y-110690000D01*
X136807091Y-107832909D02*
X136807091Y-107755843D01*
%TO.N,PT71A*%
X121050000Y-101470000D02*
X120780000Y-101740000D01*
X192903399Y-109506601D02*
X192740000Y-109670000D01*
X193993400Y-109506601D02*
X192903399Y-109506601D01*
X120780000Y-131630588D02*
X123739706Y-134590294D01*
X136885000Y-131775000D02*
X137990000Y-132880000D01*
X128685000Y-131775000D02*
X136885000Y-131775000D01*
X127970000Y-132490000D02*
X128685000Y-131775000D01*
X124710294Y-134590294D02*
X126810588Y-132490000D01*
X123739706Y-134590294D02*
X124710294Y-134590294D01*
X126810588Y-132490000D02*
X127970000Y-132490000D01*
X120780000Y-101740000D02*
X120780000Y-131630588D01*
%TO.N,PT35A*%
X137535332Y-101350000D02*
X136720000Y-101350000D01*
X192756599Y-108006599D02*
X193993400Y-108006599D01*
X135570000Y-102500000D02*
X135570000Y-102700000D01*
X192533198Y-108230000D02*
X192756599Y-108006599D01*
X190930000Y-108230000D02*
X192533198Y-108230000D01*
X136720000Y-101350000D02*
X135570000Y-102500000D01*
X137904882Y-100980450D02*
X137535332Y-101350000D01*
X190460000Y-107760000D02*
X190930000Y-108230000D01*
%TO.N,PT58A*%
X208320000Y-118060000D02*
X203940000Y-118060000D01*
X197750000Y-112580000D02*
X196880000Y-111710000D01*
X211120000Y-121400000D02*
X211120000Y-120860000D01*
X196880000Y-111670000D02*
X196750001Y-111540001D01*
X196880000Y-111710000D02*
X196880000Y-111670000D01*
X197750000Y-113330000D02*
X197750000Y-112580000D01*
X211120000Y-120860000D02*
X208320000Y-118060000D01*
X203940000Y-118060000D02*
X202100000Y-116220000D01*
X196750001Y-111540001D02*
X196750001Y-110763200D01*
%TO.N,PT35B*%
X193936600Y-107506600D02*
X193520000Y-107090000D01*
X193993400Y-107506600D02*
X193936600Y-107506600D01*
%TO.N,PT58B*%
D32*
X197250000Y-111250000D02*
X197250000Y-110763200D01*
X197540000Y-111540000D02*
X197250000Y-111250000D01*
D31*
X212410000Y-120980000D02*
X212410000Y-121620000D01*
X208470000Y-117040000D02*
X212410000Y-120980000D01*
D32*
X197540000Y-111630000D02*
X197540000Y-111540000D01*
%TO.N,PT56A*%
X193993400Y-108506600D02*
X193250000Y-108506600D01*
%TO.N,PT69A*%
X193993400Y-110006600D02*
X193993400Y-110580000D01*
%TO.N,PL41C*%
D31*
X150245000Y-114123249D02*
X150245000Y-115795000D01*
X146645000Y-113745000D02*
X149866751Y-113745000D01*
X146488760Y-113059349D02*
X146488760Y-113588760D01*
X146400000Y-112970588D02*
X146488760Y-113059349D01*
X149866751Y-113745000D02*
X150245000Y-114123249D01*
X146488760Y-113588760D02*
X146645000Y-113745000D01*
X146000000Y-112000000D02*
X146400000Y-112400000D01*
X150040000Y-116000000D02*
X146900000Y-116000000D01*
X146400000Y-112400000D02*
X146400000Y-112970588D01*
X150245000Y-115795000D02*
X150040000Y-116000000D01*
%TO.N,Net-(U1G-VCCIO8)*%
X145900000Y-104170000D02*
X145900000Y-104922088D01*
X145900000Y-104922088D02*
X145886044Y-104936044D01*
X145886044Y-104936044D02*
X145886044Y-104986044D01*
%TO.N,PL41D*%
X145600000Y-112510000D02*
X146248760Y-113158760D01*
X145600000Y-110127366D02*
X145600000Y-112510000D01*
X145925000Y-109475136D02*
X145905000Y-109495136D01*
X145905000Y-109495136D02*
X145905000Y-109822366D01*
X146248760Y-113158760D02*
X146248760Y-114018760D01*
X146248760Y-114018760D02*
X146500000Y-114270000D01*
X145925000Y-107415000D02*
X145925000Y-109475136D01*
X145905000Y-109822366D02*
X145600000Y-110127366D01*
X145860000Y-107350000D02*
X145925000Y-107415000D01*
%TO.N,PL44C*%
X156120000Y-111870001D02*
X156120000Y-109470000D01*
%TO.N,PL41A*%
X151790000Y-113149411D02*
X151800000Y-113159411D01*
X151790000Y-112679411D02*
X151790000Y-113149411D01*
X152237827Y-116587173D02*
X151200000Y-117625000D01*
X151240000Y-111240000D02*
X151480000Y-111480000D01*
X152237827Y-114787446D02*
X152237827Y-116587173D01*
X151800000Y-114349619D02*
X152237827Y-114787446D01*
X151800000Y-113159411D02*
X151800000Y-114349619D01*
X151240000Y-111210000D02*
X151240000Y-111240000D01*
X151480000Y-112369410D02*
X151790000Y-112679411D01*
X149765000Y-109735000D02*
X151240000Y-111210000D01*
X151480000Y-111480000D02*
X151480000Y-112369410D01*
%TO.N,CFG_0*%
X158531200Y-98090000D02*
X158611200Y-98170000D01*
X157680000Y-98090000D02*
X158531200Y-98090000D01*
%TO.N,PL44A*%
X148340000Y-109170000D02*
X148200000Y-109310000D01*
X148100000Y-112500000D02*
X148300000Y-112700000D01*
X148100000Y-109540000D02*
X148100000Y-112500000D01*
X148221750Y-113220000D02*
X147000000Y-113220000D01*
X148300000Y-113141750D02*
X148221750Y-113220000D01*
X148200000Y-109440000D02*
X148100000Y-109540000D01*
X148200000Y-109310000D02*
X148200000Y-109440000D01*
X148300000Y-112700000D02*
X148300000Y-113141750D01*
%TO.N,PL62A*%
X147900000Y-106100000D02*
X147900000Y-105600000D01*
X152720000Y-108620000D02*
X154500000Y-110400000D01*
X148610000Y-104890000D02*
X150720000Y-104890000D01*
X147510000Y-106490000D02*
X147900000Y-106100000D01*
X147510000Y-106560000D02*
X147510000Y-106490000D01*
X152720000Y-106890000D02*
X152720000Y-108620000D01*
X150720000Y-104890000D02*
X152720000Y-106890000D01*
X147900000Y-105600000D02*
X148610000Y-104890000D01*
%TO.N,CFG_1*%
X158431200Y-99420000D02*
X158541200Y-99310000D01*
X157560000Y-99420000D02*
X158431200Y-99420000D01*
%TO.N,PL44B*%
X149210000Y-109250000D02*
X149189780Y-109250000D01*
X148968358Y-109028578D02*
X148960295Y-109028578D01*
X148728910Y-109268026D02*
X148700000Y-109296936D01*
X148700000Y-109530000D02*
X148574999Y-109655001D01*
X149189780Y-109250000D02*
X148968358Y-109028578D01*
X148960295Y-109028578D02*
X148728910Y-109259963D01*
X148700000Y-109296936D02*
X148700000Y-109530000D01*
X148728910Y-109259963D02*
X148728910Y-109268026D01*
X148574999Y-109655001D02*
X148574999Y-110600000D01*
%TO.N,PL62B*%
X152195000Y-109114669D02*
X152195000Y-112405587D01*
X149074669Y-106575331D02*
X149655662Y-106575331D01*
D32*
X154017368Y-112982632D02*
X153155390Y-112982632D01*
D31*
X148300000Y-106530000D02*
X148370000Y-106600000D01*
X152270000Y-112532632D02*
X152720000Y-112982632D01*
D32*
X155500000Y-111500000D02*
X154017368Y-112982632D01*
D31*
X152720000Y-112982632D02*
X153155390Y-112982632D01*
D32*
X155500000Y-110500000D02*
X155500000Y-111500000D01*
D31*
X152270000Y-112480587D02*
X152270000Y-112532632D01*
X149050000Y-106600000D02*
X149074669Y-106575331D01*
X152195000Y-112405587D02*
X152270000Y-112480587D01*
X149655662Y-106575331D02*
X152195000Y-109114669D01*
X148370000Y-106600000D02*
X149050000Y-106600000D01*
%TO.N,CFG_2*%
X158381200Y-100630000D02*
X158411200Y-100660000D01*
X157560000Y-100630000D02*
X158381200Y-100630000D01*
%TO.N,Net-(U2-VDDCR)*%
X198660000Y-112410000D02*
X198660000Y-110510000D01*
X198660000Y-110510000D02*
X198156600Y-110006600D01*
X198156600Y-110006600D02*
X198006600Y-110006600D01*
%TD*%
D33*
X119975000Y-38470000D02*
X219975000Y-38470000D01*
X219975000Y-138240000D01*
X119975000Y-138240000D01*
X119975000Y-38470000D01*
M02*
