M48
; DRILL file KiCad 10.0.0 date 2026-04-08T22:28:54
; FORMAT={-:-/ absolute / metric / decimal}
; #@! TF.CreationDate,2026-04-08T22:28:54-07:00
; #@! TF.GenerationSoftware,Kicad,Pcbnew,10.0.0
; #@! TF.FileFunction,Plated,1,4,PTH
FMAT,2
METRIC
; #@! TA.AperFunction,Plated,PTH,ViaDrill
T1C0.300
; #@! TA.AperFunction,Plated,PTH,ComponentDrill
T2C0.450
; #@! TA.AperFunction,Plated,PTH,ComponentDrill
T3C0.500
; #@! TA.AperFunction,Plated,PTH,ComponentDrill
T4C0.800
; #@! TA.AperFunction,Plated,PTH,ComponentDrill
T5C0.900
; #@! TA.AperFunction,Plated,PTH,ComponentDrill
T6C1.000
%
G90
G05
T1
X120.9Y-39.91
X121.05Y-101.47
X122.32Y-132.61
X123.46Y-84.07
X123.81Y-131.21
X125.15Y-98.74
X125.47Y-77.36
X126.07Y-83.36
X126.88Y-84.11
X127.22Y-43.01
X127.3Y-98.56
X127.47Y-92.58
X128.14Y-46.41
X128.83Y-77.01
X129.71Y-44.82
X130.3Y-100.25
X132.04Y-114.0
X132.9Y-113.3
X133.64Y-102.71
X134.56Y-102.66
X135.57Y-102.7
X135.86Y-99.79
X136.7Y-116.4
X136.807Y-107.756
X136.9Y-102.525
X136.94Y-105.68
X137.875Y-96.125
X137.876Y-100.137
X137.88Y-96.94
X137.9Y-106.52
X137.905Y-100.98
X137.92Y-103.36
X137.99Y-132.88
X138.66Y-100.12
X138.68Y-106.57
X138.71Y-96.93
X138.72Y-102.56
X138.746Y-103.329
X139.1Y-95.9
X139.49Y-103.36
X139.501Y-100.925
X139.51Y-102.52
X139.52Y-100.13
X139.52Y-110.15
X139.9Y-96.0
X140.275Y-100.925
X140.28Y-102.56
X140.3Y-97.74
X140.3Y-98.53
X140.31Y-100.125
X140.339Y-103.322
X140.35Y-95.01
X141.11Y-95.87
X141.11Y-97.75
X141.59Y-109.9
X141.88Y-99.36
X141.9Y-97.7
X141.9Y-100.11
X141.9Y-103.35
X141.91Y-100.91
X141.925Y-98.555
X142.3Y-109.2
X142.685Y-103.385
X142.7Y-99.36
X142.7Y-102.55
X143.33Y-135.99
X143.475Y-104.141
X143.49Y-97.78
X143.5Y-99.3
X143.54Y-109.47
X143.66Y-110.08
X144.28Y-104.15
X144.33Y-104.98
X144.49Y-115.0
X144.7Y-96.0
X145.1Y-107.37
X145.11Y-97.75
X145.11Y-101.76
X145.11Y-103.34
X145.59Y-113.32
X145.61Y-114.8
X145.63Y-114.18
X145.86Y-107.35
X145.88Y-100.94
X145.9Y-104.17
X145.92Y-97.77
X146.0Y-112.0
X146.3Y-109.659
X146.5Y-114.27
X146.66Y-110.02
X146.69Y-99.33
X146.71Y-102.55
X146.71Y-107.33
X146.9Y-115.27
X146.9Y-116.0
X147.0Y-113.22
X147.15Y-135.99
X147.47Y-107.36
X147.475Y-108.175
X147.51Y-106.56
X148.28Y-102.55
X148.29Y-100.15
X148.3Y-106.53
X148.34Y-109.17
X148.5Y-127.5
X148.575Y-110.6
X149.21Y-109.25
X149.5Y-118.1
X149.765Y-109.735
X150.0Y-101.355
X150.1Y-100.55
X150.1Y-102.95
X150.13Y-108.11
X150.39Y-102.15
X151.0Y-129.1
X151.2Y-117.625
X151.27Y-98.69
X151.49Y-58.33
X151.53Y-104.94
X151.72Y-110.5
X153.0Y-117.8
X153.455Y-103.065
X153.46Y-99.62
X153.5Y-95.86
X154.43Y-93.1
X154.5Y-110.4
X155.5Y-110.5
X155.6Y-102.1
X156.12Y-109.47
X156.12Y-111.87
X156.23Y-103.64
X157.56Y-99.42
X157.56Y-100.63
X157.68Y-98.09
X161.2Y-92.0
X161.4Y-89.7
X165.08Y-105.79
X165.87Y-110.34
X165.93Y-101.8
X168.55Y-45.25
X168.852Y-90.223
X169.2Y-100.0
X170.26Y-92.34
X172.0Y-132.75
X179.31Y-134.68
X179.34Y-136.26
X182.1Y-133.23
X190.46Y-107.76
X191.87Y-107.76
X191.88Y-106.37
X192.74Y-109.67
X193.25Y-108.507
X193.4Y-131.8
X193.52Y-107.09
X193.993Y-110.58
X194.75Y-105.75
X194.75Y-111.77
X195.29Y-111.63
X196.35Y-111.64
X196.52Y-121.6
X196.75Y-105.0
X197.1Y-112.74
X197.54Y-111.63
X197.75Y-105.25
X197.75Y-113.33
X198.5Y-103.0
X198.66Y-112.88
X198.928Y-121.5
X199.07Y-107.52
X199.11Y-109.14
X199.4Y-111.22
X201.28Y-118.03
X201.95Y-116.72
X202.1Y-116.22
X204.04Y-131.76
X207.665Y-86.365
X207.7Y-79.85
X207.7Y-82.05
X207.7Y-85.35
X207.8Y-78.75
X207.8Y-84.25
X207.96Y-135.03
X208.47Y-117.04
X209.8Y-134.2
X210.09Y-121.5
X210.75Y-83.28
X211.12Y-121.4
X212.41Y-121.62
X214.62Y-73.94
X215.3Y-131.6
X215.4Y-128.9
X218.6Y-83.2
T4
X124.36Y-108.49
X124.36Y-118.65
X133.2Y-132.75
X143.36Y-132.75
X143.45Y-122.17
X145.46Y-74.05
X153.61Y-122.17
X155.62Y-74.05
X155.8Y-52.88
X155.8Y-63.04
X157.09Y-78.03
X157.64Y-68.38
X159.69Y-72.91
X161.02Y-86.82
X167.25Y-78.03
X167.8Y-68.38
X169.77Y-104.16
X169.85Y-72.91
X171.18Y-86.82
X172.2Y-90.27
X172.2Y-100.43
X174.18Y-76.6
X174.18Y-86.76
X174.63Y-112.48
X174.63Y-122.64
X179.93Y-86.13
X179.93Y-96.29
X179.93Y-104.16
X183.816Y-109.184
X189.64Y-76.46
X189.64Y-79.5
X191.0Y-102.0
X197.42Y-94.5
X199.8Y-76.46
X199.8Y-79.5
X207.58Y-94.5
T5
X201.68Y-101.035
X201.68Y-103.325
X201.68Y-105.325
X201.68Y-107.365
X201.68Y-109.405
X201.68Y-111.445
X202.78Y-104.305
X202.78Y-106.345
X202.78Y-108.385
X202.78Y-110.425
X202.78Y-112.335
X202.78Y-114.835
T6
X121.81Y-47.91
X124.35Y-47.91
X126.89Y-47.91
X128.73Y-122.4
X129.14Y-105.58
X129.14Y-108.12
X129.43Y-47.91
X130.81Y-94.39
X130.81Y-96.93
X131.27Y-122.4
X131.97Y-47.91
X134.51Y-47.91
X137.05Y-47.91
X137.52Y-122.66
X139.59Y-47.91
X140.06Y-122.66
X142.13Y-47.91
X144.67Y-47.91
X145.67Y-89.45
X145.69Y-82.73
X147.21Y-47.91
X148.21Y-89.45
X148.23Y-82.73
X149.75Y-47.91
X150.75Y-89.45
X150.77Y-82.73
X152.29Y-47.91
X153.31Y-82.73
X154.83Y-47.91
X155.85Y-82.73
X157.37Y-47.91
X157.75Y-123.46
X157.75Y-126.0
X157.75Y-128.54
X157.75Y-131.08
X157.75Y-133.62
X157.93Y-103.75
X157.93Y-108.25
X158.39Y-82.73
X159.91Y-47.91
X162.25Y-123.46
X162.25Y-126.0
X162.25Y-128.54
X162.25Y-131.08
X162.25Y-133.62
X164.43Y-103.75
X164.43Y-108.25
X170.21Y-116.81
X170.21Y-119.35
X170.21Y-121.89
X170.21Y-124.43
X170.21Y-126.97
X180.37Y-117.25
X180.37Y-119.79
X180.37Y-122.33
X180.37Y-124.87
X180.37Y-127.41
X191.0Y-116.96
X191.0Y-119.5
X191.0Y-122.04
X191.0Y-124.58
X191.0Y-127.12
T2
G00X211.825Y-127.38
M15
G01X211.825Y-126.73
M16
G05
G00X211.825Y-136.13
M15
G01X211.825Y-135.48
M16
G05
T3
G00X214.69Y-126.48
M15
G01X216.39Y-126.48
M16
G05
G00X214.69Y-136.38
M15
G01X216.39Y-136.38
M16
G05
T6
G00X211.15Y-97.75
M15
G01X212.35Y-97.75
M16
G05
G00X211.15Y-118.0
M15
G01X212.35Y-118.0
M16
G05
M30
