%TF.GenerationSoftware,KiCad,Pcbnew,10.0.0*%
%TF.CreationDate,2026-04-08T22:28:57-07:00*%
%TF.ProjectId,FPL,46504c2e-6b69-4636-9164-5f7063625858,rev?*%
%TF.SameCoordinates,Original*%
%TF.FileFunction,Soldermask,Bot*%
%TF.FilePolarity,Negative*%
%FSLAX46Y46*%
G04 Gerber Fmt 4.6, Leading zero omitted, Abs format (unit mm)*
G04 Created by KiCad (PCBNEW 10.0.0) date 2026-04-08 22:28:57*
%MOMM*%
%LPD*%
G01*
G04 APERTURE LIST*
G04 Aperture macros list*
%AMRoundRect*
0 Rectangle with rounded corners*
0 $1 Rounding radius*
0 $2 $3 $4 $5 $6 $7 $8 $9 X,Y pos of 4 corners*
0 Add a 4 corners polygon primitive as box body*
4,1,4,$2,$3,$4,$5,$6,$7,$8,$9,$2,$3,0*
0 Add four circle primitives for the rounded corners*
1,1,$1+$1,$2,$3*
1,1,$1+$1,$4,$5*
1,1,$1+$1,$6,$7*
1,1,$1+$1,$8,$9*
0 Add four rect primitives between the rounded corners*
20,1,$1+$1,$2,$3,$4,$5,0*
20,1,$1+$1,$4,$5,$6,$7,0*
20,1,$1+$1,$6,$7,$8,$9,0*
20,1,$1+$1,$8,$9,$2,$3,0*%
G04 Aperture macros list end*
%ADD10R,2.800000X1.800000*%
%ADD11O,2.800000X1.800000*%
%ADD12C,1.454000*%
%ADD13O,3.220000X1.712000*%
%ADD14C,1.600000*%
%ADD15R,1.700000X1.700000*%
%ADD16C,1.700000*%
%ADD17O,1.254000X1.904000*%
%ADD18O,3.004000X1.304000*%
%ADD19C,1.804000*%
%ADD20R,1.800000X2.800000*%
%ADD21O,1.800000X2.800000*%
%ADD22R,0.508000X0.660400*%
%ADD23RoundRect,0.102000X-0.208597X-0.003536X-0.003536X-0.208597X0.208597X0.003536X0.003536X0.208597X0*%
%ADD24R,0.660400X0.508000*%
%ADD25R,0.609600X0.254000*%
%ADD26R,0.254000X0.609600*%
%ADD27R,2.590800X2.590800*%
%ADD28RoundRect,0.102000X0.150000X-0.145000X0.150000X0.145000X-0.150000X0.145000X-0.150000X-0.145000X0*%
%TA.AperFunction,Profile*%
%ADD29C,0.050000*%
%TD*%
G04 APERTURE END LIST*
D10*
%TO.C,J7*%
X129140000Y-105580000D03*
D11*
X129140000Y-108120000D03*
%TD*%
D12*
%TO.C,J4*%
X202780000Y-104305000D03*
X201680000Y-105325000D03*
X202780000Y-106345000D03*
X201680000Y-107365000D03*
X202780000Y-108385000D03*
X201680000Y-109405000D03*
X202780000Y-110425000D03*
X201680000Y-111445000D03*
X201680000Y-101035000D03*
X201680000Y-103325000D03*
X202780000Y-112335000D03*
X202780000Y-114835000D03*
D13*
X211750000Y-118000000D03*
X211750000Y-97750000D03*
%TD*%
D14*
%TO.C,R2*%
X124360000Y-118650000D03*
X124360000Y-108490000D03*
%TD*%
%TO.C,R92*%
X153610000Y-122170000D03*
X143450000Y-122170000D03*
%TD*%
%TO.C,R91*%
X189640000Y-76460000D03*
X199800000Y-76460000D03*
%TD*%
D15*
%TO.C,J6*%
X145670000Y-89450000D03*
D16*
X148210000Y-89450000D03*
X150749999Y-89450000D03*
%TD*%
D14*
%TO.C,R14*%
X167250000Y-78030000D03*
X157090000Y-78030000D03*
%TD*%
%TO.C,R10*%
X179930000Y-86130000D03*
X179930000Y-96290000D03*
%TD*%
D10*
%TO.C,J21*%
X170210000Y-116810000D03*
D11*
X170210000Y-119350000D03*
X170210000Y-121890000D03*
X170210000Y-124430000D03*
X170210000Y-126970000D03*
%TD*%
D17*
%TO.C,J2*%
X211825000Y-135805000D03*
X211825000Y-127055000D03*
D18*
X215540000Y-136380001D03*
X215540000Y-126479999D03*
%TD*%
D15*
%TO.C,J3*%
X158390000Y-82730000D03*
D16*
X155850000Y-82730000D03*
X153310001Y-82730000D03*
X150770000Y-82730000D03*
X148230000Y-82730000D03*
X145690000Y-82730000D03*
%TD*%
D19*
%TO.C,S1*%
X164430000Y-108250000D03*
X157930000Y-108250000D03*
X164430000Y-103750000D03*
X157930000Y-103750000D03*
%TD*%
D10*
%TO.C,J10*%
X130810000Y-96930000D03*
D11*
X130810000Y-94390000D03*
%TD*%
D10*
%TO.C,J22*%
X157750000Y-123460000D03*
D11*
X157750000Y-126000000D03*
X157750000Y-128540000D03*
X157750000Y-131080000D03*
X157750000Y-133620000D03*
%TD*%
D10*
%TO.C,J19*%
X180370000Y-117250000D03*
D11*
X180370000Y-119790000D03*
X180370000Y-122330000D03*
X180370000Y-124870000D03*
X180370000Y-127410000D03*
%TD*%
D14*
%TO.C,R90*%
X199800000Y-79500000D03*
X189640000Y-79500000D03*
%TD*%
D10*
%TO.C,J20*%
X162250000Y-123460000D03*
D11*
X162250000Y-126000000D03*
X162250000Y-128540000D03*
X162250000Y-131080000D03*
X162250000Y-133620000D03*
%TD*%
D14*
%TO.C,R93*%
X133200000Y-132750000D03*
X143360000Y-132750000D03*
%TD*%
D20*
%TO.C,J5*%
X159910000Y-47910000D03*
D21*
X157370000Y-47910000D03*
X154830001Y-47910000D03*
X152290000Y-47910000D03*
X149750000Y-47910000D03*
X147210000Y-47910000D03*
X144670000Y-47910000D03*
X142129999Y-47910000D03*
X139590000Y-47910000D03*
X137050000Y-47910000D03*
X134510000Y-47910000D03*
X131970001Y-47910000D03*
X129430000Y-47910000D03*
X126890000Y-47910000D03*
X124350000Y-47910000D03*
X121810001Y-47910000D03*
%TD*%
D20*
%TO.C,J9*%
X137520000Y-122660000D03*
D21*
X140060000Y-122660000D03*
%TD*%
D14*
%TO.C,R11*%
X155800000Y-52880001D03*
X155800000Y-63040001D03*
%TD*%
%TO.C,R1*%
X174630000Y-122640000D03*
X174630000Y-112480000D03*
%TD*%
%TO.C,R15*%
X183815795Y-109184205D03*
X191000000Y-102000000D03*
%TD*%
%TO.C,R13*%
X169850000Y-72910000D03*
X159690000Y-72910000D03*
%TD*%
%TO.C,R12*%
X157640000Y-68380000D03*
X167800000Y-68380000D03*
%TD*%
D20*
%TO.C,J8*%
X128730000Y-122400000D03*
D21*
X131270000Y-122400000D03*
%TD*%
D14*
%TO.C,R16*%
X197420000Y-94500000D03*
X207580000Y-94500000D03*
%TD*%
%TO.C,R9*%
X169770000Y-104160000D03*
X179930000Y-104160000D03*
%TD*%
%TO.C,R8*%
X174180000Y-76600000D03*
X174180000Y-86760000D03*
%TD*%
%TO.C,R4*%
X161020000Y-86820000D03*
X171180000Y-86820000D03*
%TD*%
%TO.C,R3*%
X172200000Y-90270000D03*
X172200000Y-100430000D03*
%TD*%
D10*
%TO.C,J18*%
X191000000Y-116960000D03*
D11*
X191000000Y-119500000D03*
X191000000Y-122040000D03*
X191000000Y-124580000D03*
X191000000Y-127120000D03*
%TD*%
D14*
%TO.C,R5*%
X145460000Y-74050000D03*
X155620000Y-74050000D03*
%TD*%
D22*
%TO.C,R7*%
X215232500Y-129726950D03*
X215232500Y-130844550D03*
%TD*%
D23*
%TO.C,C1*%
X145886044Y-104986044D03*
X146200000Y-105300000D03*
%TD*%
D24*
%TO.C,R87*%
X159728800Y-98170000D03*
X158611200Y-98170000D03*
%TD*%
%TO.C,R6*%
X209018800Y-134270000D03*
X207901200Y-134270000D03*
%TD*%
D25*
%TO.C,U2*%
X198006600Y-107506600D03*
X198006600Y-108006599D03*
X198006600Y-108506600D03*
X198006600Y-109006600D03*
X198006600Y-109506601D03*
X198006600Y-110006600D03*
D26*
X197250000Y-110763200D03*
X196750001Y-110763200D03*
X196250000Y-110763200D03*
X195750000Y-110763200D03*
X195249999Y-110763200D03*
X194750000Y-110763200D03*
D25*
X193993400Y-110006600D03*
X193993400Y-109506601D03*
X193993400Y-109006600D03*
X193993400Y-108506600D03*
X193993400Y-108006599D03*
X193993400Y-107506600D03*
D26*
X194750000Y-106750000D03*
X195249999Y-106750000D03*
X195750000Y-106750000D03*
X196250000Y-106750000D03*
X196750001Y-106750000D03*
X197250000Y-106750000D03*
D27*
X196000000Y-108756600D03*
%TD*%
D24*
%TO.C,R88*%
X158411200Y-100660000D03*
X159528800Y-100660000D03*
%TD*%
%TO.C,R89*%
X159658800Y-99310000D03*
X158541200Y-99310000D03*
%TD*%
D28*
%TO.C,C4*%
X198660000Y-112854000D03*
X198660000Y-112410000D03*
%TD*%
D29*
X119975000Y-38470000D02*
X219975000Y-38470000D01*
X219975000Y-138240000D01*
X119975000Y-138240000D01*
X119975000Y-38470000D01*
M02*
