%TF.GenerationSoftware,KiCad,Pcbnew,10.0.0*%
%TF.CreationDate,2026-04-08T22:28:57-07:00*%
%TF.ProjectId,FPL,46504c2e-6b69-4636-9164-5f7063625858,rev?*%
%TF.SameCoordinates,Original*%
%TF.FileFunction,Other,User*%
%FSLAX46Y46*%
G04 Gerber Fmt 4.6, Leading zero omitted, Abs format (unit mm)*
G04 Created by KiCad (PCBNEW 10.0.0) date 2026-04-08 22:28:57*
%MOMM*%
%LPD*%
G01*
G04 APERTURE LIST*
%ADD10C,0.050000*%
%ADD11C,0.100000*%
%ADD12C,0.127000*%
%ADD13C,0.152400*%
%TA.AperFunction,Profile*%
%ADD14C,0.050000*%
%TD*%
G04 APERTURE END LIST*
%TO.C,J7*%
D10*
X127108000Y-104056000D02*
X131172000Y-104056000D01*
X131172000Y-109644000D01*
X127108000Y-109644000D01*
X127108000Y-104056000D01*
%TO.C,J4*%
X199800000Y-96745000D02*
X219980000Y-96745000D01*
X199800000Y-119005000D02*
X199800000Y-96745000D01*
X219980000Y-96745000D02*
X219980000Y-119005000D01*
X219980000Y-119005000D02*
X199800000Y-119005000D01*
%TO.C,R2*%
X125860000Y-119700000D02*
X122860000Y-119700000D01*
X122860000Y-107440000D01*
X125860000Y-107440000D01*
X125860000Y-119700000D01*
%TO.C,R92*%
X154660000Y-123670000D02*
X142400000Y-123670000D01*
X142400000Y-120670000D01*
X154660000Y-120670000D01*
X154660000Y-123670000D01*
%TO.C,R91*%
X188590000Y-74960000D02*
X200850000Y-74960000D01*
X200850000Y-77960000D01*
X188590000Y-77960000D01*
X188590000Y-74960000D01*
D11*
%TO.C,D2*%
X156450000Y-68820000D02*
X154450000Y-68820000D01*
X154450000Y-64420000D01*
X156450000Y-64420000D01*
X156450000Y-68820000D01*
G36*
X156450000Y-68820000D02*
G01*
X154450000Y-68820000D01*
X154450000Y-64420000D01*
X156450000Y-64420000D01*
X156450000Y-68820000D01*
G37*
%TO.C,U5*%
D10*
X145645000Y-127710000D02*
X145645000Y-132920000D01*
X150855000Y-127710000D02*
X145645000Y-127710000D01*
X150855000Y-127710000D02*
X150855000Y-132920000D01*
X150855000Y-132920000D02*
X145645000Y-132920000D01*
%TO.C,J6*%
X152519999Y-91220000D02*
X143900000Y-91220000D01*
X143900000Y-87680000D01*
X152519999Y-87680000D01*
X152519999Y-91220000D01*
D11*
%TO.C,D1*%
X180610000Y-102390000D02*
X178610000Y-102390000D01*
X178610000Y-97990000D01*
X180610000Y-97990000D01*
X180610000Y-102390000D01*
G36*
X180610000Y-102390000D02*
G01*
X178610000Y-102390000D01*
X178610000Y-97990000D01*
X180610000Y-97990000D01*
X180610000Y-102390000D01*
G37*
%TO.C,C6*%
D10*
X141889000Y-110770999D02*
X141889000Y-111569001D01*
X143127000Y-110770999D02*
X141889000Y-110770999D01*
X143127000Y-110770999D02*
X143127000Y-111569001D01*
X143127000Y-111569001D02*
X141889000Y-111569001D01*
%TO.C,R14*%
X168300000Y-79530000D02*
X156040000Y-79530000D01*
X156040000Y-76530000D01*
X168300000Y-76530000D01*
X168300000Y-79530000D01*
%TO.C,J1*%
X204900000Y-75900000D02*
X204900000Y-91000000D01*
X204900000Y-91000000D02*
X219800000Y-91000000D01*
X219800000Y-75900000D02*
X204900000Y-75900000D01*
X219800000Y-91000000D02*
X219800000Y-75900000D01*
%TO.C,R10*%
X181430000Y-97340000D02*
X178430000Y-97340000D01*
X178430000Y-85080000D01*
X181430000Y-85080000D01*
X181430000Y-97340000D01*
%TO.C,J21*%
X168305000Y-115159000D02*
X172115000Y-115159000D01*
X172115000Y-128875000D01*
X168305000Y-128875000D01*
X168305000Y-115159000D01*
%TO.C,J2*%
X211050001Y-125680000D02*
X219850000Y-125680000D01*
X211050001Y-137180000D02*
X211050001Y-125680000D01*
X219850000Y-125680000D02*
X219850000Y-137180000D01*
X219850000Y-137180000D02*
X211050001Y-137180000D01*
%TO.C,J3*%
X160160000Y-84500000D02*
X143920000Y-84500000D01*
X143920000Y-80960000D01*
X160160000Y-80960000D01*
X160160000Y-84500000D01*
%TO.C,S1*%
D12*
X156680000Y-102500000D02*
X165680000Y-102500000D01*
X156680000Y-110000001D02*
X156680000Y-102500000D01*
X165680000Y-102500000D02*
X165680000Y-110000001D01*
X165680000Y-110000001D02*
X156680000Y-110000001D01*
%TO.C,CR2*%
D13*
X165955500Y-130921200D02*
X168101800Y-130921201D01*
X165955500Y-134578800D02*
X165955500Y-130921200D01*
X168101800Y-129143200D02*
X172318200Y-129143200D01*
X168101800Y-130921201D02*
X168101800Y-129143200D01*
X168101800Y-134578799D02*
X165955500Y-134578800D01*
X168101800Y-136356800D02*
X168101800Y-134578799D01*
X172318200Y-129143200D02*
X172318200Y-129764200D01*
X172318200Y-129764200D02*
X174464500Y-129764200D01*
X172318200Y-135735800D02*
X172318200Y-136356800D01*
X172318200Y-136356800D02*
X168101800Y-136356800D01*
X174464500Y-129764200D02*
X174464500Y-135735800D01*
X174464500Y-135735800D02*
X172318200Y-135735800D01*
D10*
%TO.C,J10*%
X132842000Y-98454000D02*
X128778000Y-98454000D01*
X128778000Y-92866000D01*
X132842000Y-92866000D01*
X132842000Y-98454000D01*
%TO.C,J22*%
X155845000Y-121809000D02*
X159655000Y-121809000D01*
X159655000Y-135525000D01*
X155845000Y-135525000D01*
X155845000Y-121809000D01*
%TO.C,J19*%
X178465000Y-115599000D02*
X182275000Y-115599000D01*
X182275000Y-129315000D01*
X178465000Y-129315000D01*
X178465000Y-115599000D01*
%TO.C,CR3*%
D13*
X175962300Y-131401200D02*
X178311800Y-131401201D01*
X175962300Y-135058800D02*
X175962300Y-131401200D01*
X178311800Y-129623200D02*
X182528200Y-129623200D01*
X178311800Y-131401201D02*
X178311800Y-129623200D01*
X178311800Y-135058799D02*
X175962300Y-135058800D01*
X178311800Y-136836800D02*
X178311800Y-135058799D01*
X182528200Y-129623200D02*
X182528200Y-130244200D01*
X182528200Y-130244200D02*
X184877699Y-130244200D01*
X182528200Y-136215800D02*
X182528200Y-136836800D01*
X182528200Y-136836800D02*
X178311800Y-136836800D01*
X184877699Y-130244200D02*
X184877699Y-136215800D01*
X184877699Y-136215800D02*
X182528200Y-136215800D01*
D10*
%TO.C,R90*%
X200850000Y-81000000D02*
X188590000Y-81000000D01*
X188590000Y-78000000D01*
X200850000Y-78000000D01*
X200850000Y-81000000D01*
%TO.C,C3*%
X198249500Y-119713499D02*
X198249500Y-121413499D01*
X198249500Y-121413499D02*
X199607500Y-121413499D01*
X199607500Y-119713499D02*
X198249500Y-119713499D01*
X199607500Y-121413499D02*
X199607500Y-119713499D01*
%TO.C,J20*%
X160345000Y-121809000D02*
X164155000Y-121809000D01*
X164155000Y-135525000D01*
X160345000Y-135525000D01*
X160345000Y-121809000D01*
%TO.C,U7*%
D13*
X160546200Y-89701900D02*
X162260700Y-89701900D01*
X160546200Y-94553300D02*
X160546200Y-89701900D01*
X160546200Y-94553300D02*
X162260700Y-94553300D01*
X162260700Y-89181200D02*
X168153500Y-89181200D01*
X162260700Y-89701900D02*
X162260700Y-89181200D01*
X162260700Y-95074000D02*
X162260700Y-94553300D01*
X168153500Y-89181200D02*
X168153500Y-89701900D01*
X168153500Y-94553300D02*
X168153500Y-95074000D01*
X168153500Y-95074000D02*
X162260700Y-95074000D01*
X169868000Y-89701900D02*
X168153500Y-89701900D01*
X169868000Y-89701900D02*
X169868000Y-94553300D01*
X169868000Y-94553300D02*
X168153500Y-94553300D01*
%TO.C,R93*%
D10*
X132150000Y-131250000D02*
X144410000Y-131250000D01*
X144410000Y-134250000D01*
X132150000Y-134250000D01*
X132150000Y-131250000D01*
%TO.C,J5*%
X161561000Y-49815000D02*
X119905000Y-49815000D01*
X119905000Y-46005000D01*
X161561000Y-46005000D01*
X161561000Y-49815000D01*
%TO.C,Y2*%
X194271500Y-123128500D02*
X201171500Y-123128500D01*
X194271500Y-127128500D02*
X194271500Y-123128500D01*
X201171500Y-123128500D02*
X201171500Y-127128500D01*
X201171500Y-127128500D02*
X194271500Y-127128500D01*
%TO.C,U3*%
D13*
X186715500Y-130901200D02*
X188861800Y-130901201D01*
X186715500Y-134558800D02*
X186715500Y-130901200D01*
X188861800Y-129123200D02*
X193078200Y-129123200D01*
X188861800Y-130901201D02*
X188861800Y-129123200D01*
X188861800Y-134558799D02*
X186715500Y-134558800D01*
X188861800Y-136336800D02*
X188861800Y-134558799D01*
X193078200Y-129123200D02*
X193078200Y-129744200D01*
X193078200Y-129744200D02*
X195224500Y-129744200D01*
X193078200Y-135715800D02*
X193078200Y-136336800D01*
X193078200Y-136336800D02*
X188861800Y-136336800D01*
X195224500Y-129744200D02*
X195224500Y-135715800D01*
X195224500Y-135715800D02*
X193078200Y-135715800D01*
D10*
%TO.C,J9*%
X141584000Y-124692000D02*
X135996000Y-124692000D01*
X135996000Y-120628000D01*
X141584000Y-120628000D01*
X141584000Y-124692000D01*
%TO.C,R11*%
X157300000Y-64090001D02*
X154300000Y-64090001D01*
X154300000Y-51830001D01*
X157300000Y-51830001D01*
X157300000Y-64090001D01*
%TO.C,R1*%
X176130000Y-123690000D02*
X173130000Y-123690000D01*
X173130000Y-111430000D01*
X176130000Y-111430000D01*
X176130000Y-123690000D01*
%TO.C,C5*%
X151629000Y-104311000D02*
X152867000Y-104311000D01*
X151629000Y-105109000D02*
X151629000Y-104311000D01*
X151629000Y-105109000D02*
X152867000Y-105109000D01*
X152867000Y-105109000D02*
X152867000Y-104311000D01*
%TO.C,R15*%
X192803122Y-102318198D02*
X184133993Y-110987327D01*
X182012673Y-108866007D01*
X190681802Y-100196878D01*
X192803122Y-102318198D01*
%TO.C,R13*%
X170900000Y-74410000D02*
X158640000Y-74410000D01*
X158640000Y-71410000D01*
X170900000Y-71410000D01*
X170900000Y-74410000D01*
%TO.C,R12*%
X168850000Y-69880000D02*
X156590000Y-69880000D01*
X156590000Y-66880000D01*
X168850000Y-66880000D01*
X168850000Y-69880000D01*
%TO.C,CR1*%
D13*
X196885500Y-130901200D02*
X199031800Y-130901201D01*
X196885500Y-134558800D02*
X196885500Y-130901200D01*
X199031800Y-129123200D02*
X203248200Y-129123200D01*
X199031800Y-130901201D02*
X199031800Y-129123200D01*
X199031800Y-134558799D02*
X196885500Y-134558800D01*
X199031800Y-136336800D02*
X199031800Y-134558799D01*
X203248200Y-129123200D02*
X203248200Y-129744200D01*
X203248200Y-129744200D02*
X205394500Y-129744200D01*
X203248200Y-135715800D02*
X203248200Y-136336800D01*
X203248200Y-136336800D02*
X199031800Y-136336800D01*
X205394500Y-129744200D02*
X205394500Y-135715800D01*
X205394500Y-135715800D02*
X203248200Y-135715800D01*
D10*
%TO.C,J8*%
X132794000Y-124432000D02*
X127206000Y-124432000D01*
X127206000Y-120368000D01*
X132794000Y-120368000D01*
X132794000Y-124432000D01*
%TO.C,R16*%
X196370000Y-93000000D02*
X208630000Y-93000000D01*
X208630000Y-96000000D01*
X196370000Y-96000000D01*
X196370000Y-93000000D01*
%TO.C,Q1*%
D13*
X199784200Y-81732001D02*
X199784200Y-84648001D01*
X200711300Y-81437401D02*
X200711300Y-81732001D01*
X200711300Y-81437401D02*
X202616300Y-81437401D01*
X200711300Y-81732001D02*
X199784200Y-81732001D01*
X200711300Y-84648001D02*
X199784200Y-84648001D01*
X200711300Y-84942601D02*
X200711300Y-84648001D01*
X202616300Y-81437401D02*
X202616300Y-82682001D01*
X202616300Y-82682001D02*
X203543400Y-82682001D01*
X202616300Y-83698001D02*
X203543400Y-83698001D01*
X202616300Y-84942601D02*
X200711300Y-84942601D01*
X202616300Y-84942601D02*
X202616300Y-83698001D01*
X203543400Y-82682001D02*
X203543400Y-83698001D01*
%TO.C,R9*%
D10*
X168720000Y-102660000D02*
X180980000Y-102660000D01*
X180980000Y-105660000D01*
X168720000Y-105660000D01*
X168720000Y-102660000D01*
%TO.C,Y1*%
X133150000Y-112690000D02*
X136400000Y-112690000D01*
X133150000Y-116590000D02*
X133150000Y-112690000D01*
X136400000Y-112690000D02*
X136400000Y-116590000D01*
X136400000Y-116590000D02*
X133150000Y-116590000D01*
%TO.C,U1*%
X135500000Y-110550000D02*
X135500000Y-94550000D01*
X151500000Y-94550000D02*
X135500000Y-94550000D01*
X151500000Y-110550000D02*
X135500000Y-110550000D01*
X151500000Y-110550000D02*
X151500000Y-94550000D01*
%TO.C,R8*%
X175680000Y-87810000D02*
X172680000Y-87810000D01*
X172680000Y-75550000D01*
X175680000Y-75550000D01*
X175680000Y-87810000D01*
%TO.C,R4*%
X159970000Y-85320000D02*
X172230000Y-85320000D01*
X172230000Y-88320000D01*
X159970000Y-88320000D01*
X159970000Y-85320000D01*
%TO.C,R3*%
X173700000Y-101480000D02*
X170700000Y-101480000D01*
X170700000Y-89220000D01*
X173700000Y-89220000D01*
X173700000Y-101480000D01*
%TO.C,C2*%
X195841500Y-119713499D02*
X195841500Y-121413499D01*
X195841500Y-121413499D02*
X197199500Y-121413499D01*
X197199500Y-119713499D02*
X195841500Y-119713499D01*
X197199500Y-121413499D02*
X197199500Y-119713499D01*
%TO.C,J18*%
X189095000Y-115309000D02*
X192905000Y-115309000D01*
X192905000Y-129025000D01*
X189095000Y-129025000D01*
X189095000Y-115309000D01*
%TO.C,U4*%
D13*
X147465500Y-111018800D02*
X155974500Y-111018800D01*
X147465500Y-117521200D02*
X147465500Y-111018800D01*
X155974500Y-111018800D02*
X155974500Y-117521200D01*
X155974500Y-117521200D02*
X147465500Y-117521200D01*
D11*
%TO.C,S2*%
X163430000Y-97490000D02*
X164880000Y-97490000D01*
X164880000Y-101230000D01*
X163430000Y-101230000D01*
X163430000Y-102150000D01*
X157030000Y-102150000D01*
X157030000Y-101230000D01*
X155580000Y-101230000D01*
X155580000Y-97490000D01*
X157030000Y-97490000D01*
X157030000Y-96570000D01*
X163430000Y-96570000D01*
X163430000Y-97490000D01*
G36*
X163430000Y-97490000D02*
G01*
X164880000Y-97490000D01*
X164880000Y-101230000D01*
X163430000Y-101230000D01*
X163430000Y-102150000D01*
X157030000Y-102150000D01*
X157030000Y-101230000D01*
X155580000Y-101230000D01*
X155580000Y-97490000D01*
X157030000Y-97490000D01*
X157030000Y-96570000D01*
X163430000Y-96570000D01*
X163430000Y-97490000D01*
G37*
%TO.C,R5*%
D10*
X144410000Y-72550000D02*
X156670000Y-72550000D01*
X156670000Y-75550000D01*
X144410000Y-75550000D01*
X144410000Y-72550000D01*
%TD*%
D14*
X119975000Y-38470000D02*
X219975000Y-38470000D01*
X219975000Y-138240000D01*
X119975000Y-138240000D01*
X119975000Y-38470000D01*
M02*
