%TF.GenerationSoftware,KiCad,Pcbnew,10.0.0*%
%TF.CreationDate,2026-04-08T22:28:57-07:00*%
%TF.ProjectId,FPL,46504c2e-6b69-4636-9164-5f7063625858,rev?*%
%TF.SameCoordinates,Original*%
%TF.FileFunction,Copper,L3,Inr*%
%TF.FilePolarity,Positive*%
%FSLAX46Y46*%
G04 Gerber Fmt 4.6, Leading zero omitted, Abs format (unit mm)*
G04 Created by KiCad (PCBNEW 10.0.0) date 2026-04-08 22:28:57*
%MOMM*%
%LPD*%
G01*
G04 APERTURE LIST*
%TA.AperFunction,ComponentPad*%
%ADD10R,1.700000X1.700000*%
%TD*%
%TA.AperFunction,ComponentPad*%
%ADD11C,1.700000*%
%TD*%
%TA.AperFunction,ViaPad*%
%ADD12C,0.400000*%
%TD*%
%TA.AperFunction,ViaPad*%
%ADD13C,0.600000*%
%TD*%
%TA.AperFunction,Conductor*%
%ADD14C,0.130000*%
%TD*%
%TA.AperFunction,Conductor*%
%ADD15C,0.200000*%
%TD*%
%TA.AperFunction,Profile*%
%ADD16C,0.050000*%
%TD*%
G04 APERTURE END LIST*
D10*
%TO.N,Net-(U1H-TMS)*%
%TO.C,J3*%
X158390000Y-82730000D03*
D11*
%TO.N,Net-(U1H-TDI)*%
X155850000Y-82730000D03*
%TO.N,Net-(U1H-TDO)*%
X153310001Y-82730000D03*
%TO.N,Net-(U1H-TCK)*%
X150770000Y-82730000D03*
%TD*%
D12*
%TO.N,PT56A*%
X191880000Y-106370000D03*
X191870000Y-107760000D03*
%TO.N,PT42A*%
X140338750Y-103322000D03*
%TO.N,Net-(U1A-PT11A)*%
X138680000Y-106570000D03*
D13*
%TO.N,RXP*%
X197750000Y-105250000D03*
%TO.N,RXN*%
X196750000Y-105000000D03*
D12*
%TO.N,GND*%
X142300000Y-109200000D03*
X147470000Y-107360000D03*
D13*
X153000000Y-117800000D03*
D12*
X127470000Y-92580000D03*
X201280000Y-118030000D03*
X151530000Y-104940000D03*
X145110000Y-103340000D03*
X197100000Y-112740000D03*
X207960000Y-135030000D03*
D13*
X149500000Y-118100000D03*
X151720000Y-110500000D03*
D12*
X215400000Y-128900000D03*
X151490000Y-58330000D03*
X198660000Y-112880000D03*
X144280000Y-104150000D03*
X150130000Y-108110000D03*
%TO.N,1V8*%
X123810000Y-131210000D03*
X143475000Y-104141020D03*
X147150000Y-135990000D03*
X143330000Y-135990000D03*
X179340000Y-136260000D03*
X141590000Y-109900000D03*
D13*
X182100000Y-133230000D03*
X146900000Y-115270000D03*
D12*
X144490000Y-115000000D03*
X179310000Y-134680000D03*
%TO.N,PL35D*%
X132040000Y-114000000D03*
X146300000Y-109658751D03*
X139520000Y-110150000D03*
X143540000Y-109470000D03*
X146710000Y-107330000D03*
%TO.N,Net-(U5-VDD)*%
X151000000Y-129100000D03*
%TO.N,Net-(U5-~{RST})*%
X148500000Y-127500000D03*
%TO.N,3V3*%
X141900000Y-103350001D03*
X199070000Y-107520000D03*
X169200000Y-100000000D03*
X168852000Y-90222600D03*
X146690000Y-99330000D03*
X170260000Y-92340000D03*
D13*
X204040000Y-131760000D03*
D12*
X141910000Y-100910000D03*
X136700000Y-116400000D03*
X196350000Y-111640000D03*
X194750000Y-105750000D03*
X151270000Y-98690000D03*
%TO.N,Net-(U1C-PR32B)*%
X143490000Y-97780000D03*
%TO.N,Net-(U1C-PR32C)*%
X144700000Y-96000000D03*
%TO.N,Net-(U1C-PR32D)*%
X145110000Y-97750000D03*
%TO.N,VCCAUX*%
X136940000Y-105680000D03*
X141900000Y-100110000D03*
%TO.N,Net-(U1H-TDI)*%
X148290000Y-100150000D03*
%TO.N,PT49A*%
X207665000Y-86365000D03*
X139510000Y-102520000D03*
X210750000Y-83280000D03*
%TO.N,PT49B*%
X207700000Y-85350000D03*
X140280000Y-102560000D03*
%TO.N,PT42A*%
X207800000Y-84250000D03*
%TO.N,PT42B*%
X207700000Y-82050000D03*
X139490000Y-103360000D03*
%TO.N,PT47A*%
X136900000Y-102525000D03*
X207700000Y-79850000D03*
%TO.N,PT47B*%
X207800000Y-78750000D03*
X138720000Y-102560000D03*
%TO.N,PT44A*%
X218600000Y-83200000D03*
X138745588Y-103329320D03*
X214620000Y-73940000D03*
%TO.N,Net-(U1G-DONE)*%
X155600000Y-102100000D03*
X150390000Y-102150000D03*
X148280000Y-102550000D03*
D13*
%TO.N,2V5*%
X172000000Y-132750000D03*
D12*
%TO.N,Net-(J2-CC1)*%
X209800000Y-134200000D03*
%TO.N,Net-(J2-CC2)*%
X215300000Y-131600000D03*
%TO.N,Net-(U1H-TMS)*%
X150100000Y-100550000D03*
%TO.N,Net-(U1H-TDO)*%
X145880000Y-100940000D03*
%TO.N,Net-(U1H-TCK)*%
X150000000Y-101355000D03*
D13*
%TO.N,1V2*%
X193400000Y-131800000D03*
D12*
X153500000Y-95860000D03*
X153455000Y-103065000D03*
X165870000Y-110340000D03*
X153460000Y-99620000D03*
X154430000Y-93100000D03*
%TO.N,PROGRAM*%
X165080000Y-105790000D03*
%TO.N,Net-(U1A-PT13B)*%
X133640000Y-102710000D03*
%TO.N,Net-(U1A-PT13A)*%
X134560000Y-102660000D03*
%TO.N,PT44B*%
X128140000Y-46410000D03*
X127220000Y-43010000D03*
X125150000Y-98740000D03*
X126070000Y-83360000D03*
X168550000Y-45250000D03*
X137920000Y-103360000D03*
X120900000Y-39910000D03*
%TO.N,Net-(U2-XTAL2)*%
X199400000Y-111220000D03*
X199110000Y-109140000D03*
X198928500Y-121500000D03*
%TO.N,CCLK*%
X161400000Y-89700000D03*
X146710000Y-102550000D03*
%TO.N,MISO*%
X161200000Y-92000000D03*
X156230000Y-103640000D03*
%TO.N,MOSI*%
X165930000Y-101800000D03*
X150100000Y-102950000D03*
%TO.N,Net-(U1C-PR20D)*%
X129710000Y-44820000D03*
X125470000Y-77360000D03*
%TO.N,Net-(U1C-PR20C)*%
X141900000Y-97700000D03*
%TO.N,Net-(U1C-PR20B)*%
X142700000Y-99360000D03*
%TO.N,Net-(U1C-PR20A)*%
X143500000Y-99300000D03*
X135860000Y-99790000D03*
X127300000Y-98560000D03*
X126880000Y-84110000D03*
X128830000Y-77010000D03*
X130300000Y-100250000D03*
%TO.N,Net-(U1C-PR17D)*%
X141110000Y-97750000D03*
X141110000Y-95870000D03*
%TO.N,Net-(U1C-PR17C)*%
X141880000Y-99360000D03*
%TO.N,Net-(U1C-PR17B)*%
X140300000Y-97740000D03*
X140350000Y-95010000D03*
%TO.N,Net-(U1C-PR17A)*%
X139900000Y-96000000D03*
%TO.N,Net-(U1C-PR14D)*%
X123460000Y-84070000D03*
X141925000Y-98555394D03*
%TO.N,Net-(U1C-PR14C)*%
X140300000Y-98530000D03*
%TO.N,Net-(U1C-PR14B)*%
X138710000Y-96930000D03*
%TO.N,Net-(U1C-PR14A)*%
X139100000Y-95900000D03*
%TO.N,Net-(U1C-PR11B)*%
X137880000Y-96940000D03*
%TO.N,Net-(U1C-PR11A)*%
X137874999Y-96125000D03*
%TO.N,Net-(U2-XTAL1{slash}CLKIN)*%
X196520500Y-121600000D03*
%TO.N,Net-(U1A-PT11B)*%
X137900000Y-106520000D03*
%TO.N,Net-(U1G-~{INIT})*%
X145920000Y-97770000D03*
%TO.N,VCC*%
X145110000Y-101760000D03*
X142700000Y-102550000D03*
X142685000Y-103385000D03*
D13*
%TO.N,Net-(U2-RBIAS)*%
X198500000Y-103000000D03*
D12*
%TO.N,Net-(U1A-PT4A)*%
X136807091Y-107755843D03*
X132900000Y-113300000D03*
%TO.N,PT71A*%
X192740000Y-109670000D03*
X137990000Y-132880000D03*
X121050000Y-101470000D03*
%TO.N,PT35A*%
X137904882Y-100980450D03*
X190460000Y-107760000D03*
X135570000Y-102700000D03*
%TO.N,PT58A*%
X211120000Y-121400000D03*
X137876397Y-100137431D03*
X197750000Y-113330000D03*
X202100000Y-116220000D03*
%TO.N,PT35B*%
X122320000Y-132610000D03*
X193520000Y-107090000D03*
%TO.N,PT58B*%
X212410000Y-121620000D03*
X197540000Y-111630000D03*
X138660000Y-100120000D03*
X208470000Y-117040000D03*
%TO.N,PT56A*%
X193250000Y-108506600D03*
X139500531Y-100925000D03*
%TO.N,PT69A*%
X139520000Y-100130000D03*
X193993400Y-110580000D03*
%TO.N,PT56B*%
X195290000Y-111630000D03*
X210090000Y-121500000D03*
X140275000Y-100925000D03*
X201950000Y-116720000D03*
%TO.N,PT69B*%
X140310000Y-100125000D03*
X194750000Y-111770000D03*
%TO.N,PL38B*%
X144330000Y-104980000D03*
X145630000Y-114180000D03*
%TO.N,PL41C*%
X146000000Y-112000000D03*
X145100000Y-107370000D03*
X145590000Y-113320000D03*
D13*
X146900000Y-116000000D03*
D12*
%TO.N,Net-(U1G-VCCIO8)*%
X145900000Y-104170000D03*
%TO.N,PL41D*%
X145860000Y-107350000D03*
D13*
X146500000Y-114270000D03*
D12*
%TO.N,PL44C*%
X156120000Y-109470000D03*
D13*
X156120000Y-111870001D03*
%TO.N,PL41A*%
X151200000Y-117625000D03*
D12*
%TO.N,CFG_0*%
X157680000Y-98090000D03*
D13*
%TO.N,PL44A*%
X147000000Y-113220000D03*
D12*
X148340000Y-109170000D03*
%TO.N,PL41B*%
X145610000Y-114800000D03*
X147475000Y-108175000D03*
X143660000Y-110080000D03*
X146660000Y-110020000D03*
D13*
%TO.N,PL62A*%
X154500000Y-110400000D03*
D12*
X147510000Y-106560000D03*
%TO.N,CFG_1*%
X157560000Y-99420000D03*
D13*
%TO.N,PL44B*%
X148574999Y-110600000D03*
D12*
X149210000Y-109250000D03*
%TO.N,PL62B*%
X148300000Y-106530000D03*
D13*
X155500000Y-110500000D03*
D12*
%TO.N,CFG_2*%
X157560000Y-100630000D03*
%TO.N,PL41A*%
X149765000Y-109735000D03*
%TD*%
%TO.N,PT44A*%
D14*
X138275000Y-106344669D02*
X138275000Y-107607940D01*
X122384999Y-100064999D02*
X121790000Y-99469999D01*
X213170000Y-51167648D02*
X213170000Y-51220000D01*
X138055331Y-106125000D02*
X138275000Y-106344669D01*
X213170000Y-51220000D02*
X213222352Y-51220000D01*
X138000000Y-105850000D02*
X138000000Y-106125000D01*
X138300000Y-105550000D02*
X138000000Y-105850000D01*
X138439412Y-104900000D02*
X138300000Y-105039412D01*
X124657060Y-51140000D02*
X213142352Y-51140000D01*
X139100000Y-103650000D02*
X139100000Y-104860000D01*
X139060000Y-104900000D02*
X138439412Y-104900000D01*
X121790000Y-99469999D02*
X121790000Y-54007060D01*
X213222352Y-51220000D02*
X215150000Y-53147648D01*
X138300000Y-105039412D02*
X138300000Y-105550000D01*
X138783044Y-103333044D02*
X139100000Y-103650000D01*
X139100000Y-104860000D02*
X139060000Y-104900000D01*
X138749313Y-103333044D02*
X138783044Y-103333044D01*
X138000000Y-106125000D02*
X138055331Y-106125000D01*
X138745588Y-103329320D02*
X138749313Y-103333044D01*
X138275000Y-107607940D02*
X134742939Y-111140000D01*
X134742939Y-111140000D02*
X124307648Y-111140000D01*
X124307648Y-111140000D02*
X121790000Y-108622351D01*
X121790000Y-108622351D02*
X121790000Y-103168234D01*
X213142352Y-51140000D02*
X213170000Y-51167648D01*
X121790000Y-103168234D02*
X122385000Y-102573233D01*
X122385000Y-102573233D02*
X122384999Y-100064999D01*
X121790000Y-54007060D02*
X124657060Y-51140000D01*
X215150000Y-53147648D02*
X214620000Y-53677648D01*
X214620000Y-53677648D02*
X214620000Y-73940000D01*
%TO.N,PT49A*%
X140325000Y-103825000D02*
X140311419Y-103825000D01*
X140311419Y-103825000D02*
X139865000Y-103378581D01*
X139865000Y-103378581D02*
X139865000Y-102875000D01*
X139865000Y-102875000D02*
X139510000Y-102520000D01*
%TO.N,PT42B*%
X121310000Y-99680000D02*
X121310000Y-53808236D01*
X121310000Y-53808236D02*
X124468236Y-50650000D01*
X121904999Y-100274999D02*
X121310000Y-99680000D01*
X121905000Y-102374411D02*
X121904999Y-100274999D01*
X121310000Y-102969412D02*
X121905000Y-102374411D01*
X121310000Y-108821176D02*
X121310000Y-102969412D01*
X124108824Y-111620000D02*
X121310000Y-108821176D01*
X134941764Y-111620000D02*
X124108824Y-111620000D01*
X139900000Y-104110000D02*
X139900000Y-106661764D01*
X139650000Y-103860000D02*
X139900000Y-104110000D01*
X139900000Y-106661764D02*
X134941764Y-111620000D01*
X139650000Y-103520000D02*
X139650000Y-103860000D01*
X139490000Y-103360000D02*
X139650000Y-103520000D01*
X124468236Y-50650000D02*
X125750000Y-50650000D01*
X125750000Y-50650000D02*
X125760000Y-50660000D01*
X125760000Y-50660000D02*
X213341176Y-50660000D01*
X213341176Y-50660000D02*
X215630000Y-52948824D01*
X215630000Y-52948824D02*
X215630000Y-81160000D01*
X215630000Y-81160000D02*
X214730000Y-82060000D01*
X214730000Y-82060000D02*
X208960000Y-82060000D01*
X208960000Y-82060000D02*
X208950000Y-82050000D01*
X208950000Y-82050000D02*
X207700000Y-82050000D01*
%TO.N,PT49A*%
X121070000Y-99790589D02*
X121070000Y-53708824D01*
X121665000Y-102275000D02*
X121665000Y-100385588D01*
X213440588Y-50420000D02*
X215870000Y-52849413D01*
X215870000Y-81330588D02*
X213665294Y-83535294D01*
X121070000Y-108920587D02*
X121070000Y-102870000D01*
X121070000Y-102870000D02*
X121665000Y-102275000D01*
X135041175Y-111860000D02*
X124009412Y-111860000D01*
X215870000Y-52849413D02*
X215870000Y-81330588D01*
X124009412Y-111860000D02*
X121070000Y-108920587D01*
X121070000Y-53708824D02*
X124368825Y-50410000D01*
X140460000Y-106441176D02*
X135041175Y-111860000D01*
X124368825Y-50410000D02*
X150060000Y-50410000D01*
X213410000Y-83280000D02*
X210750000Y-83280000D01*
X140325000Y-106306176D02*
X140460000Y-106441176D01*
X140325000Y-103825000D02*
X140325000Y-106306176D01*
X121665000Y-100385588D02*
X121070000Y-99790589D01*
X150070000Y-50420000D02*
X213440588Y-50420000D01*
X150060000Y-50410000D02*
X150070000Y-50420000D01*
X213665294Y-83535294D02*
X213410000Y-83280000D01*
%TO.N,PT42A*%
X123910000Y-112100000D02*
X120830000Y-109020000D01*
X135140588Y-112100000D02*
X123910000Y-112100000D01*
X140700000Y-106540588D02*
X135140588Y-112100000D01*
X120830000Y-102760000D02*
X121425000Y-102165000D01*
X140700000Y-103496233D02*
X140700000Y-106540588D01*
X140338750Y-103322000D02*
X140525767Y-103322000D01*
X140525767Y-103322000D02*
X140700000Y-103496233D01*
X121425000Y-100485000D02*
X120830000Y-99890000D01*
X120830000Y-109020000D02*
X120830000Y-102760000D01*
X124269412Y-50170000D02*
X213530000Y-50170000D01*
X121425000Y-102165000D02*
X121425000Y-100485000D01*
X120830000Y-99890000D02*
X120830000Y-53609412D01*
X120830000Y-53609412D02*
X124269412Y-50170000D01*
X213530000Y-50170000D02*
X216110000Y-52750000D01*
X216110000Y-52750000D02*
X216110000Y-81430000D01*
X216110000Y-81430000D02*
X213120000Y-84420000D01*
X213120000Y-84420000D02*
X212950000Y-84250000D01*
X212950000Y-84250000D02*
X207800000Y-84250000D01*
%TO.N,PT49B*%
X135240000Y-112340000D02*
X123800000Y-112340000D01*
X120590000Y-109130000D02*
X120590000Y-53510000D01*
X141250000Y-106330000D02*
X135240000Y-112340000D01*
X141230000Y-106310000D02*
X141250000Y-106330000D01*
X141230000Y-104960000D02*
X141230000Y-106310000D01*
X141125000Y-104855000D02*
X141230000Y-104960000D01*
X123800000Y-112340000D02*
X120590000Y-109130000D01*
X141125000Y-102575000D02*
X141125000Y-104855000D01*
X141019266Y-102469266D02*
X141125000Y-102575000D01*
X140280000Y-102560000D02*
X140370734Y-102469266D01*
X140370734Y-102469266D02*
X141019266Y-102469266D01*
X216350000Y-81900000D02*
X213940000Y-84310000D01*
X120590000Y-53510000D02*
X124170000Y-49930000D01*
X124170000Y-49930000D02*
X212700000Y-49930000D01*
X212700000Y-49930000D02*
X213290000Y-49340000D01*
X213290000Y-49340000D02*
X216350000Y-52400000D01*
X216350000Y-52400000D02*
X216350000Y-81900000D01*
X213940000Y-84310000D02*
X213940000Y-84590000D01*
X213940000Y-84590000D02*
X213180000Y-85350000D01*
X213180000Y-85350000D02*
X207700000Y-85350000D01*
%TO.N,PT47B*%
X122625000Y-102672644D02*
X122624999Y-99965588D01*
X122030000Y-103267645D02*
X122625000Y-102672644D01*
X122030000Y-108522940D02*
X122030000Y-103267645D01*
X136400000Y-109143528D02*
X134643528Y-110900000D01*
X136784669Y-106055000D02*
X136780000Y-106050331D01*
X137095331Y-106055000D02*
X136784669Y-106055000D01*
X136780000Y-106050331D02*
X136400000Y-106050331D01*
X124407060Y-110900000D02*
X122030000Y-108522940D01*
X137600000Y-105550331D02*
X137095331Y-106055000D01*
X134643528Y-110900000D02*
X124407060Y-110900000D01*
X137600000Y-105400000D02*
X137600000Y-105550331D01*
X136400000Y-106050331D02*
X136400000Y-109143528D01*
X138200000Y-104800000D02*
X137600000Y-105400000D01*
X138200000Y-104230000D02*
X138200000Y-104800000D01*
X138490000Y-103940000D02*
X138200000Y-104230000D01*
X122030000Y-99370588D02*
X122030000Y-54330000D01*
X122030000Y-54330000D02*
X124880000Y-51480000D01*
X138375000Y-103177025D02*
X138295000Y-103257025D01*
X138685000Y-102525000D02*
X138375000Y-102525000D01*
X138720000Y-102560000D02*
X138685000Y-102525000D01*
X213170000Y-77730000D02*
X209210000Y-77730000D01*
X138375000Y-102525000D02*
X138120001Y-102779999D01*
X138120001Y-102779999D02*
X138155331Y-102779999D01*
X138155331Y-102779999D02*
X138375000Y-102999668D01*
X138375000Y-102999668D02*
X138375000Y-103177025D01*
X138295000Y-103257025D02*
X138295000Y-103409063D01*
X138490000Y-103604063D02*
X138490000Y-103940000D01*
X213170000Y-54940000D02*
X213170000Y-77730000D01*
X138295000Y-103409063D02*
X138490000Y-103604063D01*
X122624999Y-99965588D02*
X122030000Y-99370588D01*
X124880000Y-51480000D02*
X124880000Y-51380000D01*
X124880000Y-51380000D02*
X211790000Y-51380000D01*
X208190000Y-78750000D02*
X207800000Y-78750000D01*
X211790000Y-51380000D02*
X214260000Y-53850000D01*
X214260000Y-53850000D02*
X213170000Y-54940000D01*
X209210000Y-77730000D02*
X208190000Y-78750000D01*
%TO.N,Net-(U1H-TDO)*%
X145655331Y-100175000D02*
X145585000Y-100175000D01*
X153310001Y-91609999D02*
X153310001Y-82730000D01*
X145880000Y-100940000D02*
X145900000Y-100920000D01*
X145900000Y-100920000D02*
X145900000Y-100419669D01*
X145590000Y-100170000D02*
X145590000Y-99330000D01*
X145900000Y-100419669D02*
X145655331Y-100175000D01*
X145590000Y-99330000D02*
X153310001Y-91609999D01*
X145585000Y-100175000D02*
X145590000Y-100170000D01*
%TO.N,Net-(U1H-TDI)*%
X158010000Y-93910000D02*
X158010000Y-84890000D01*
X148290000Y-100150000D02*
X148340000Y-100100000D01*
X148340000Y-100100000D02*
X149150000Y-100100000D01*
X149150000Y-100100000D02*
X149250000Y-100000000D01*
X149250000Y-100000000D02*
X151920000Y-100000000D01*
X151920000Y-100000000D02*
X158010000Y-93910000D01*
X158010000Y-84890000D02*
X155850000Y-82730000D01*
%TO.N,PT47A*%
X137360000Y-105300588D02*
X137030000Y-104970588D01*
X125079412Y-51620000D02*
X122270000Y-54429412D01*
X137030000Y-102655000D02*
X136900000Y-102525000D01*
X137103615Y-105285000D02*
X137314767Y-105496152D01*
X212930000Y-77490000D02*
X212930000Y-54840588D01*
X136545000Y-105810331D02*
X136545000Y-105516385D01*
X136545000Y-105516385D02*
X136776385Y-105285000D01*
X122864999Y-99866176D02*
X122865000Y-102772055D01*
X136160000Y-105950920D02*
X136300589Y-105810331D01*
X134544116Y-110660000D02*
X136160000Y-109044116D01*
X122270000Y-108423528D02*
X124506472Y-110660000D01*
X122270000Y-103367056D02*
X122270000Y-108423528D01*
X136776385Y-105285000D02*
X137103615Y-105285000D01*
X212930000Y-54840588D02*
X213920588Y-53850000D01*
X137360000Y-105450919D02*
X137360000Y-105300588D01*
X136160000Y-109044116D02*
X136160000Y-105950920D01*
X137314767Y-105496152D02*
X137360000Y-105450919D01*
X204800000Y-77400000D02*
X205831384Y-77400000D01*
X122865000Y-102772055D02*
X122270000Y-103367056D01*
X122270000Y-99271176D02*
X122864999Y-99866176D01*
X205831384Y-77400000D02*
X206231384Y-77800000D01*
X137030000Y-104970588D02*
X137030000Y-102655000D01*
X136300589Y-105810331D02*
X136545000Y-105810331D01*
X206231384Y-77800000D02*
X208800589Y-77800000D01*
X208800589Y-77800000D02*
X209110589Y-77490000D01*
X124506472Y-110660000D02*
X134544116Y-110660000D01*
X204600000Y-77200000D02*
X204800000Y-77400000D01*
X209110589Y-77490000D02*
X212930000Y-77490000D01*
X213920588Y-53850000D02*
X211690588Y-51620000D01*
X211690588Y-51620000D02*
X125079412Y-51620000D01*
X122270000Y-54429412D02*
X122270000Y-99271176D01*
X215390000Y-79550000D02*
X208480000Y-79550000D01*
X208289411Y-78990000D02*
X209309412Y-77970000D01*
X214860000Y-73621385D02*
X214860000Y-53777060D01*
X215015000Y-74103615D02*
X215015000Y-73776385D01*
X209309412Y-77970000D02*
X213269411Y-77970000D01*
X213410000Y-77829411D02*
X213410000Y-55039412D01*
X208200000Y-79300000D02*
X208289411Y-79210589D01*
X215015000Y-73776385D02*
X214860000Y-73621385D01*
X208480000Y-79550000D02*
X208180000Y-79850000D01*
D15*
X204600000Y-77200000D02*
X202600000Y-77200000D01*
X202600000Y-77200000D02*
X201900000Y-77900000D01*
D14*
X214783615Y-74335000D02*
X215015000Y-74103615D01*
X214225000Y-74103615D02*
X214456385Y-74335000D01*
X214380000Y-54069412D02*
X214380000Y-73621385D01*
X215390000Y-53247060D02*
X215390000Y-79550000D01*
X214380000Y-73621385D02*
X214225000Y-73776385D01*
X213410000Y-55039412D02*
X214380000Y-54069412D01*
X208180000Y-79850000D02*
X207700000Y-79850000D01*
X214225000Y-73776385D02*
X214225000Y-74103615D01*
X202800000Y-79300000D02*
X208200000Y-79300000D01*
X208289411Y-79210589D02*
X208289411Y-78990000D01*
D15*
X201900000Y-77900000D02*
X201900000Y-78400000D01*
D14*
X214456385Y-74335000D02*
X214783615Y-74335000D01*
X213269411Y-77970000D02*
X213410000Y-77829411D01*
X138275589Y-102285000D02*
X138406385Y-102285000D01*
X214860000Y-53777060D02*
X215390000Y-53247060D01*
X201900000Y-78400000D02*
X202800000Y-79300000D01*
%TO.N,Net-(U1H-TMS)*%
X154310000Y-100570000D02*
X155020000Y-99860000D01*
X155020000Y-97380000D02*
X158390000Y-94010000D01*
X154290000Y-100550000D02*
X154310000Y-100570000D01*
X155020000Y-99860000D02*
X155020000Y-97380000D01*
X150100000Y-100550000D02*
X154290000Y-100550000D01*
X158390000Y-94010000D02*
X158390000Y-82730000D01*
%TO.N,Net-(U1H-TCK)*%
X150000000Y-101355000D02*
X149995000Y-101350000D01*
X154335001Y-82305431D02*
X153734570Y-81705000D01*
X147680000Y-101140000D02*
X147680000Y-99020000D01*
X153734570Y-81705000D02*
X151795000Y-81705000D01*
X147680000Y-99020000D02*
X154335001Y-92364999D01*
X154335001Y-92364999D02*
X154335001Y-82305431D01*
X151795000Y-81705000D02*
X150770000Y-82730000D01*
X147890000Y-101350000D02*
X147680000Y-101140000D01*
X149995000Y-101350000D02*
X147890000Y-101350000D01*
%TD*%
D16*
X119975000Y-38470000D02*
X219975000Y-38470000D01*
X219975000Y-138240000D01*
X119975000Y-138240000D01*
X119975000Y-38470000D01*
M02*
