<svg width="727" height="147" viewBox="0 0 727 147" fill="none" xmlns="http://www.w3.org/2000/svg">
<path d="M124.555 88.465C123.482 88.465 122.6 88.81 121.91 89.5C121.22 90.19 120.875 91.0717 120.875 92.145C120.875 93.1417 121.22 94.0233 121.91 94.79C122.677 95.48 123.558 95.825 124.555 95.825H190.335C193.862 95.825 197.158 96.515 200.225 97.895C203.368 99.1983 206.09 101 208.39 103.3C210.767 105.6 212.607 108.322 213.91 111.465C215.29 114.532 215.98 117.828 215.98 121.355C215.98 124.882 215.29 128.217 213.91 131.36C212.607 134.427 210.767 137.148 208.39 139.525C206.09 141.825 203.368 143.665 200.225 145.045C197.158 146.348 193.862 147 190.335 147H98.91V125.035H190.335C191.408 125.035 192.29 124.69 192.98 124C193.67 123.31 194.015 122.467 194.015 121.47C194.015 120.397 193.67 119.515 192.98 118.825C192.29 118.135 191.408 117.752 190.335 117.675H124.44C120.913 117.675 117.578 117.023 114.435 115.72C111.368 114.34 108.685 112.5 106.385 110.2C104.085 107.9 102.245 105.217 100.865 102.15C99.5617 99.0067 98.91 95.6717 98.91 92.145C98.91 88.6183 99.5617 85.3217 100.865 82.255C102.245 79.1117 104.085 76.39 106.385 74.09C108.762 71.7133 111.483 69.8733 114.55 68.57C117.693 67.19 121.028 66.5 124.555 66.5H215.98V88.465H124.555ZM220.685 88.465V66.5H337.755V88.465H290.26V147H268.295V88.465H220.685ZM355.78 66.5H414.315L443.525 147H420.18L414.89 132.395H362.91L370.96 110.43H406.84L398.905 88.465H371.075L349.8 147H326.455L355.78 66.5ZM473.036 88.465C471.963 88.465 471.081 88.81 470.391 89.5C469.701 90.19 469.356 91.0717 469.356 92.145C469.356 93.1417 469.701 94.0233 470.391 94.79C471.158 95.48 472.04 95.825 473.036 95.825H538.816C542.343 95.825 545.64 96.515 548.706 97.895C551.85 99.1983 554.571 101 556.871 103.3C559.248 105.6 561.088 108.322 562.391 111.465C563.771 114.532 564.461 117.828 564.461 121.355C564.461 124.882 563.771 128.217 562.391 131.36C561.088 134.427 559.248 137.148 556.871 139.525C554.571 141.825 551.85 143.665 548.706 145.045C545.64 146.348 542.343 147 538.816 147H447.391V125.035H538.816C539.89 125.035 540.771 124.69 541.461 124C542.151 123.31 542.496 122.467 542.496 121.47C542.496 120.397 542.151 119.515 541.461 118.825C540.771 118.135 539.89 117.752 538.816 117.675H472.921C469.395 117.675 466.06 117.023 462.916 115.72C459.85 114.34 457.166 112.5 454.866 110.2C452.566 107.9 450.726 105.217 449.346 102.15C448.043 99.0067 447.391 95.6717 447.391 92.145C447.391 88.6183 448.043 85.3217 449.346 82.255C450.726 79.1117 452.566 76.39 454.866 74.09C457.243 71.7133 459.965 69.8733 463.031 68.57C466.175 67.19 469.51 66.5 473.036 66.5H564.461V88.465H473.036ZM596.192 66.5V147H574.227V66.5H596.192ZM631.498 88.465C630.425 88.465 629.543 88.81 628.853 89.5C628.163 90.19 627.818 91.0717 627.818 92.145C627.818 93.1417 628.163 94.0233 628.853 94.79C629.62 95.48 630.502 95.825 631.498 95.825H697.278C700.805 95.825 704.102 96.515 707.168 97.895C710.312 99.1983 713.033 101 715.333 103.3C717.71 105.6 719.55 108.322 720.853 111.465C722.233 114.532 722.923 117.828 722.923 121.355C722.923 124.882 722.233 128.217 720.853 131.36C719.55 134.427 717.71 137.148 715.333 139.525C713.033 141.825 710.312 143.665 707.168 145.045C704.102 146.348 700.805 147 697.278 147H605.853V125.035H697.278C698.352 125.035 699.233 124.69 699.923 124C700.613 123.31 700.958 122.467 700.958 121.47C700.958 120.397 700.613 119.515 699.923 118.825C699.233 118.135 698.352 117.752 697.278 117.675H631.383C627.857 117.675 624.522 117.023 621.378 115.72C618.312 114.34 615.628 112.5 613.328 110.2C611.028 107.9 609.188 105.217 607.808 102.15C606.505 99.0067 605.853 95.6717 605.853 92.145C605.853 88.6183 606.505 85.3217 607.808 82.255C609.188 79.1117 611.028 76.39 613.328 74.09C615.705 71.7133 618.427 69.8733 621.493 68.57C624.637 67.19 627.972 66.5 631.498 66.5H722.923V88.465H631.498Z" fill="#443C38"/>
<path d="M78.7764 0C78.9752 4.97946 79.4629 8.61879 80.5596 11.8428C84.2252 22.6189 92.598 31.1401 103.309 34.9932C109.288 37.1444 116.75 37.2086 131.673 37.3389L534.189 40.8516C535.355 40.8617 536.475 40.8695 537.552 40.8779C536.475 40.8863 535.355 40.8951 534.189 40.9053L131.673 44.418C116.75 44.5482 109.288 44.6134 103.309 46.7646C92.598 50.6178 84.2251 59.1387 80.5596 69.915C79.463 73.1389 78.9752 76.7776 78.7764 81.7568C78.5721 76.1523 78.0721 72.1809 76.8682 68.6729C73.1339 57.7926 64.7087 49.0402 53.9785 44.8945C47.9891 42.5805 40.5329 42.3127 25.6211 41.7764L8.83105 41.1719C5.54716 41.0538 2.62478 40.9499 0 40.8779C2.62477 40.8059 5.54717 40.7031 8.83105 40.585L25.6211 39.9814C40.5329 39.4451 47.9891 39.1763 53.9785 36.8623C64.7086 32.7167 73.1339 23.9651 76.8682 13.085C78.0722 9.57671 78.5721 5.60494 78.7764 0Z" fill="#D95D39"/>
<path d="M567.176 40.32H573.272L574.928 34.2H579.512L575 51H570.416L572.048 44.88H565.952L567.176 40.32ZM558.2 51L562.712 34.2H567.296L562.784 51H558.2ZM586.803 34.2H591.363L592.971 51H588.099L587.811 47.952H584.595L587.379 43.536L587.163 41.304L583.203 47.616L581.043 51H576.171L586.803 34.2ZM594.822 42.6C595.126 41.448 595.63 40.36 596.334 39.336C597.054 38.312 597.894 37.424 598.854 36.672C599.83 35.904 600.886 35.304 602.022 34.872C603.174 34.424 604.326 34.2 605.478 34.2H613.878L612.63 38.784H604.23C603.702 38.784 603.182 38.888 602.67 39.096C602.158 39.288 601.678 39.56 601.23 39.912C600.798 40.248 600.422 40.648 600.102 41.112C599.782 41.576 599.55 42.072 599.406 42.6C599.262 43.128 599.222 43.624 599.286 44.088C599.366 44.552 599.534 44.96 599.79 45.312C600.046 45.648 600.374 45.92 600.774 46.128C601.19 46.32 601.662 46.416 602.19 46.416H610.59L609.366 51H600.966C599.814 51 598.782 50.784 597.87 50.352C596.974 49.904 596.246 49.304 595.686 48.552C595.126 47.784 594.766 46.888 594.606 45.864C594.446 44.84 594.518 43.752 594.822 42.6ZM619.038 44.88L620.262 40.32L626.742 34.2H632.598L623.694 42.6L628.086 51H622.23L619.038 44.88ZM615.798 34.2H620.382L615.87 51H611.286L615.798 34.2ZM643.994 42.6C644.298 41.448 644.802 40.36 645.506 39.336C646.226 38.312 647.066 37.424 648.026 36.672C649.002 35.904 650.058 35.304 651.194 34.872C652.346 34.424 653.498 34.2 654.65 34.2H663.05L661.802 38.784H653.402C652.874 38.784 652.354 38.888 651.842 39.096C651.33 39.288 650.85 39.56 650.402 39.912C649.97 40.248 649.594 40.648 649.274 41.112C648.954 41.576 648.722 42.072 648.578 42.6C648.434 43.128 648.394 43.624 648.458 44.088C648.538 44.552 648.706 44.96 648.962 45.312C649.218 45.648 649.546 45.92 649.946 46.128C650.362 46.32 650.834 46.416 651.362 46.416H659.762L658.538 51H650.138C648.986 51 647.954 50.784 647.042 50.352C646.146 49.904 645.418 49.304 644.858 48.552C644.298 47.784 643.938 46.888 643.778 45.864C643.618 44.84 643.69 43.752 643.994 42.6ZM678.482 46.416L677.258 51H660.458L664.97 34.2H669.554L666.266 46.416H678.482ZM679.894 45.648L682.966 34.2H687.55L684.478 45.648C684.43 45.872 684.454 46.056 684.55 46.2C684.646 46.344 684.806 46.416 685.03 46.416H691.126C691.366 46.416 691.574 46.344 691.75 46.2C691.926 46.056 692.046 45.872 692.11 45.648L695.182 34.2H699.766L696.694 45.648C696.502 46.384 696.174 47.08 695.71 47.736C695.262 48.376 694.726 48.944 694.102 49.44C693.494 49.92 692.822 50.304 692.086 50.592C691.366 50.864 690.638 51 689.902 51H683.806C683.07 51 682.414 50.864 681.838 50.592C681.262 50.304 680.798 49.92 680.446 49.44C680.094 48.944 679.862 48.376 679.75 47.736C679.654 47.08 679.702 46.384 679.894 45.648ZM697.513 51L702.025 34.2H713.473C714.209 34.2 714.865 34.344 715.441 34.632C716.017 34.904 716.481 35.288 716.833 35.784C717.185 36.264 717.409 36.832 717.505 37.488C717.617 38.128 717.577 38.816 717.385 39.552C717.081 40.672 716.489 41.688 715.609 42.6C716.009 43.512 716.057 44.528 715.753 45.648C715.561 46.384 715.233 47.08 714.769 47.736C714.321 48.376 713.785 48.944 713.161 49.44C712.553 49.92 711.881 50.304 711.145 50.592C710.425 50.864 709.697 51 708.961 51H697.513ZM710.185 46.416C710.409 46.416 710.617 46.344 710.809 46.2C710.937 46.088 711.041 45.96 711.121 45.816C711.201 45.656 711.225 45.504 711.193 45.36C711.145 45.072 710.953 44.912 710.617 44.88H705.265L706.489 40.32H711.817C712.041 40.32 712.241 40.248 712.417 40.104C712.609 39.944 712.737 39.76 712.801 39.552C712.865 39.328 712.841 39.144 712.729 39C712.617 38.856 712.449 38.784 712.225 38.784H705.361L703.321 46.416H710.185Z" fill="#D95D39"/>
</svg>